<?xml version="1.0" encoding="UTF-8" standalone="no"?>
<!-- Created with Inkscape (http://www.inkscape.org/) -->

<svg
   xmlns:dc="http://purl.org/dc/elements/1.1/"
   xmlns:cc="http://creativecommons.org/ns#"
   xmlns:rdf="http://www.w3.org/1999/02/22-rdf-syntax-ns#"
   xmlns:svg="http://www.w3.org/2000/svg"
   xmlns="http://www.w3.org/2000/svg"
   xmlns:sodipodi="http://sodipodi.sourceforge.net/DTD/sodipodi-0.dtd"
   xmlns:inkscape="http://www.inkscape.org/namespaces/inkscape"
   height="210"
   width="700"
   version="1.1"
   viewBox="0 0 700 210"
   id="svg74"
   sodipodi:docname="share_without_access_by_geo.svg"
   inkscape:version="0.92.1 r15371">
  <defs
     id="defs78" />
  <sodipodi:namedview
     pagecolor="#ffffff"
     bordercolor="#666666"
     borderopacity="1"
     objecttolerance="10"
     gridtolerance="10"
     guidetolerance="10"
     inkscape:pageopacity="0"
     inkscape:pageshadow="2"
     inkscape:window-width="1289"
     inkscape:window-height="1028"
     id="namedview76"
     showgrid="false"
     inkscape:zoom="0.92857143"
     inkscape:cx="120.79567"
     inkscape:cy="98.485229"
     inkscape:window-x="1989"
     inkscape:window-y="24"
     inkscape:window-maximized="0"
     inkscape:current-layer="svg74" />
  <metadata
     id="metadata2">
    <rdf:RDF>
      <cc:Work
         rdf:about="">
        <dc:format>image/svg+xml</dc:format>
        <dc:type
           rdf:resource="http://purl.org/dc/dcmitype/StillImage" />
        <dc:title></dc:title>
      </cc:Work>
    </rdf:RDF>
  </metadata>
  <text
     id="text30"
     x="216.81264"
     y="129.52783"
     line-height="1.25"
     font-size="20px"
     xml:space="preserve"
     style="font-size:20px;line-height:1.25;font-family:Arial;font-variant-ligatures:normal;font-variant-caps:normal;font-variant-numeric:normal;font-feature-settings:normal;letter-spacing:0px;word-spacing:0px;fill:#101010"><tspan
       id="tspan28"
       y="129.52783"
       x="216.81264" /></text>
  <text
     x="216.81264"
     y="129.52783"
     line-height="1.25"
     font-size="20px"
     xml:space="preserve"
     style="font-size:20px;line-height:1.25;font-family:Arial;font-variant-ligatures:normal;font-variant-caps:normal;font-variant-numeric:normal;font-feature-settings:normal;letter-spacing:0px;word-spacing:0px;fill:#101010"
     id="text6733"><tspan
       y="129.52783"
       x="216.81264"
       id="tspan6735" /></text>
  <g
     id="g4555"
     transform="translate(-25.036968,10)">
    <rect
       style="opacity:0.98999999;fill:#dc2828"
       id="rect64"
       x="368"
       y="176"
       width="18"
       height="18" />
    <text
       id="text68"
       x="390.22223"
       y="191.91663"
       line-height="1.25"
       font-size="20px"
       xml:space="preserve"
       style="font-size:20px;line-height:1.25;font-family:Arial;font-variant-ligatures:normal;font-variant-caps:normal;font-variant-numeric:normal;font-feature-settings:normal;letter-spacing:0px;word-spacing:0px;fill:#101010"><tspan
         id="tspan66"
         x="390.22223"
         y="191.91663">No broadband access at 25 Mbps</tspan></text>
  </g>
  <g
     id="g4589"
     transform="translate(0,-7)">
    <g
       transform="translate(0,5)"
       id="g4550">
      <g
         id="g5637"
         transform="matrix(0.29107436,0,0,0.29107436,21.21455,-79.899274)">
        <path
           inkscape:connector-curvature="0"
           style="fill:#dc2828;fill-opacity:1;fill-rule:nonzero;stroke:none;stroke-width:1.33333325"
           d="m 139.13762,356.2295 5.95833,0.0989 5.95312,0.29167 5.94271,0.47916 5.91667,0.67709 5.89584,0.86979 5.86457,1.05729 5.82813,1.25 5.78646,1.4375 5.72917,1.625 5.68229,1.80729 5.61458,1.9948 5.54688,2.17708 5.47396,2.34896 5.39582,2.53124 5.31251,2.70833 5.21875,2.875 5.125,3.04167 5.02084,3.20833 4.91666,3.3698 4.80208,3.52604 4.68749,3.6823 4.56251,3.82812 4.43749,3.97917 4.3073,4.11979 4.16666,4.26041 4.03126,4.39062 3.88541,4.51563 3.73437,4.64583 3.58334,4.76042 3.42709,4.875 3.26561,4.98438 3.09896,5.08853 2.93751,5.18751 2.76563,5.27604 2.59374,5.36978 2.41667,5.44272 2.23959,5.52604 2.05729,5.59375 1.875,5.65625 1.69271,5.71354 1.5052,5.76562 1.3177,5.81251 1.125,5.84896 0.93751,5.88541 0.74479,5.91146 0.55209,5.9375 0.35937,5.94791 0.16667,5.95833 -0.0312,5.95834 -0.21875,5.95313 -0.41666,5.94792 -0.60418,5.92708 -0.80208,5.90625 -181.38541,-27.5625 z m 0,0"
           id="path4779" />
        <path
           inkscape:connector-curvature="0"
           style="fill:#c2defa;fill-opacity:1;fill-rule:nonzero;stroke:none;stroke-width:1.33333325"
           d="m 320.52303,567.26075 -0.96355,5.72916 -1.14582,5.69792 -1.32292,5.65625 -1.50522,5.61457 -1.67708,5.56251 -1.85937,5.51041 -2.02604,5.44271 -2.20312,5.38021 -2.3698,5.3073 -2.53645,5.22916 -2.70314,5.14584 -2.85937,5.05729 -3.02083,4.96353 -3.17708,4.86459 -3.33333,4.76563 -3.47917,4.65104 -3.625,4.54688 -3.76563,4.42186 -3.90625,4.3073 -4.03646,4.17708 -4.17188,4.04688 -4.29686,3.91666 -4.41667,3.77604 -4.53647,3.63021 -4.64582,3.48958 -4.75521,3.34376 -4.85938,3.18749 -4.95833,3.03125 -5.05208,2.86979 -5.14063,2.71355 -5.22396,2.54688 -5.30208,2.3802 -5.36978,2.21354 -5.44272,2.04167 -5.5052,1.86979 -5.5573,1.6875 -5.61458,1.51563 -5.65104,1.33853 -5.69792,1.15626 -5.72916,0.97396 -5.75522,0.79686 -5.78125,0.60939 -5.79687,0.42708 -5.80729,0.24479 -5.80729,0.0625 -5.8125,-0.12493 -5.80209,-0.3073 -5.79167,-0.48958 -5.77082,-0.67708 -5.75,-0.85938 -5.71875,-1.03646 -5.682291,-1.21875 -5.640627,-1.40104 -5.593746,-1.57812 -5.536467,-1.75 -5.484373,-1.92709 -5.416666,-2.10416 -5.35416,-2.27084 -5.27084,-2.4375 -5.19792,-2.60417 -5.109373,-2.77083 -5.020827,-2.92708 -4.92188,-3.08854 -4.82292,-3.23959 -4.718746,-3.39063 -4.609373,-3.54166 -4.494787,-3.68229 -4.380213,-3.82291 -4.25,-3.96355 -4.1249999,-4.09374 -3.9947866,-4.21875 -3.85417324,-4.34896 -3.71874656,-4.46876 -3.5781333,-4.57812 -3.4270794,-4.69271 -3.27604,-4.80208 -3.125,-4.90104 -2.963547,-4.9948 -2.80728,-5.08853 -2.64584,-5.17709 -2.47916,-5.2552 -2.312506,-5.33334 -2.140627,-5.40104 -1.968747,-5.46876 -1.796879,-5.52604 -1.619787,-5.58333 -1.437507,-5.6302 -1.265613,-5.67188 -1.083333,-5.70833 -0.901054,-5.74479 -0.713533,-5.76563 -0.536467,-5.78646 -0.35416,-5.80208 -0.166666,-5.80729 0.0156,-5.8125 0.19792,-5.80729 0.385413,-5.79688 0.567707,-5.78645 0.75,-5.76042 0.932293,-5.73958 1.114587,-5.70314 1.291666,-5.66666 1.473947,-5.61979 1.651053,-5.57292 1.822907,-5.51563 2,-5.45833 2.17188,-5.39061 2.338546,-5.31772 2.510414,-5.24479 2.671866,-5.16145 2.833333,-5.07292 2.9948,-4.97918 3.15104,-4.88541 3.307294,-4.78125 3.4531194,-4.67187 3.5989599,-4.56251 3.73958662,-4.4479 3.88541328,-4.32292 4.0156265,-4.20313 4.1458263,-4.07291 4.276054,-3.93751 4.395826,-3.79686 4.515627,-3.66147 4.625,-3.51563 4.739586,-3.36457 4.843747,-3.21355 4.937493,-3.05729 5.036466,-2.90104 5.125,-2.73959 5.208333,-2.57812 5.291667,-2.41145 5.359373,-2.23959 5.432293,-2.07292 5.489587,-1.89582 5.55208,-1.72396 5.60416,-1.54688 5.645839,-1.36459 5.687495,-1.18749 5.72396,-1.01042 5.75521,-0.82292 5.77604,-0.64584 5.79167,-0.45833 5.80729,-0.27604 5.80729,-0.0937 v 183.46874 z m 0,0"
           id="path4795" />
      </g>
      <text
         id="text12"
         x="74.581123"
         y="18.722229"
         line-height="1.25"
         font-size="20px"
         xml:space="preserve"
         style="font-size:20px;line-height:1.25;font-family:Arial;font-variant-ligatures:normal;font-variant-caps:normal;font-variant-numeric:normal;font-feature-settings:normal;letter-spacing:0px;word-spacing:0px;fill:#101010"><tspan
           id="tspan10"
           y="18.722229"
           x="74.581123">27.4%</tspan></text>
      <text
         id="text16"
         x="37.643192"
         y="154.79272"
         line-height="1.25"
         font-size="20px"
         xml:space="preserve"
         style="font-size:20px;line-height:1.25;font-family:Arial;font-variant-ligatures:normal;font-variant-caps:normal;font-variant-numeric:normal;font-feature-settings:normal;letter-spacing:0px;word-spacing:0px;fill:#101010;fill-opacity:1"><tspan
           id="tspan14"
           y="154.79272"
           x="37.643192"
           style="fill:#101010;fill-opacity:1">Rural</tspan></text>
    </g>
    <g
       transform="translate(-13.333923,5)"
       id="g4532">
      <g
         id="g7766"
         transform="matrix(0.29103605,0,0,0.29103605,129.69653,-54.906756)">
        <path
           inkscape:connector-curvature="0"
           style="fill:#dc2828;fill-opacity:1;fill-rule:nonzero;stroke:none;stroke-width:1.33333325"
           d="m 1077.6824,270.41116 8.3541,0.19271 8.3386,0.5677 8.3021,0.95314 8.25,1.3229 -33.2448,180.43229 z m 0,0"
           id="path7026" />
        <path
           inkscape:connector-curvature="0"
           style="fill:#c2defa;fill-opacity:1;fill-rule:nonzero;stroke:none;stroke-width:1.33333325"
           d="m 1110.9272,273.44761 5.6875,1.14063 5.6458,1.32292 5.6042,1.49479 5.5521,1.67709 5.5,1.84895 5.4322,2.02084 5.3698,2.1927 5.2969,2.35938 5.2188,2.53125 5.1406,2.68749 5.0469,2.85418 4.9583,3.01041 4.8594,3.16145 4.7552,3.31772 4.651,3.46875 4.5365,3.60937 4.4218,3.75522 4.3021,3.89061 4.1771,4.02605 4.0417,4.15104 3.9167,4.28124 3.776,4.40105 3.6302,4.52083 3.4896,4.63021 3.3437,4.73958 3.1927,4.84376 3.0313,4.9427 2.8802,5.03646 2.7187,5.1198 2.5521,5.20833 2.3907,5.28645 2.2187,5.35416 2.0469,5.4271 1.8802,5.48437 1.7031,5.54687 1.5261,5.59376 1.3489,5.64062 1.1719,5.68228 0.9896,5.71355 0.8073,5.73959 0.625,5.76562 0.4479,5.78124 0.2604,5.79688 0.078,5.79688 -0.1041,5.80208 -0.2917,5.79167 -0.4687,5.77604 -0.6563,5.76562 -0.8333,5.73959 -1.0156,5.70833 -1.1979,5.67187 -1.375,5.63543 -1.5521,5.58853 -1.7292,5.53647 -1.901,5.47916 -2.0729,5.41666 -2.2448,5.34375 -2.4167,5.27604 -2.5781,5.19272 -2.7396,5.10937 -2.901,5.02604 -3.0573,4.92708 -3.2136,4.82812 -3.3646,4.72396 -3.5104,4.61459 -3.6562,4.5 -3.7969,4.38541 -3.9323,4.26563 -4.0625,4.13541 -4.1927,4.00522 -4.3229,3.86978 -4.4375,3.72917 -4.5521,3.59375 -4.6667,3.44271 -4.7708,3.29688 -4.875,3.14062 -4.974,2.98959 -5.0625,2.82812 -5.1458,2.66667 -5.2344,2.50521 -5.3073,2.33333 -5.3802,2.16667 -5.4427,2 -5.5052,1.82291 -5.5625,1.64584 -5.6094,1.47396 -5.651,1.29166 -5.6927,1.11458 -5.724,0.9375 -5.75,0.75 -5.7708,0.57292 -5.7865,0.38542 -5.7968,0.20833 -5.7969,0.0208 -5.7969,-0.16145 -5.7917,-0.34375 -5.7708,-0.53125 -5.7604,-0.70834 -5.7292,-0.89062 -5.6979,-1.07292 -5.6614,-1.25 -5.6198,-1.43228 -5.573,-1.60418 -5.5208,-1.78645 -5.4583,-1.95313 -5.3959,-2.1302 -5.3229,-2.29688 -5.24997,-2.46355 -5.17187,-2.625 -5.08333,-2.79167 -4.9948,-2.95312 -4.89583,-3.10416 -4.79688,-3.26042 -4.6927,-3.41146 -4.57812,-3.55208 -4.46876,-3.70313 -4.34375,-3.83853 -4.22396,-3.97396 -4.09896,-4.10417 -3.96353,-4.23438 -3.82814,-4.35416 -3.68749,-4.47396 -3.54688,-4.58854 -3.40104,-4.70312 -3.24479,-4.80208 -3.09375,-4.90626 -2.94271,-5 -2.77604,-5.08854 -2.61979,-5.17708 -2.44792,-5.25522 -2.2865,-5.32809 -2.11459,-5.40104 -1.94271,-5.46355 -1.77084,-5.52082 -1.59374,-5.57814 -1.41667,-5.625 -1.23959,-5.66145 -1.05729,-5.70312 -0.8802,-5.73439 -0.69792,-5.7552 -0.51041,-5.77604 -0.33334,-5.79166 -0.15104,-5.79688 0.0364,-5.80208 0.21875,-5.79167 0.40104,-5.78646 0.58333,-5.77083 0.76563,-5.75 0.94792,-5.71875 1.13021,-5.6875 1.3073,-5.65104 1.48437,-5.60938 1.66145,-5.55208 1.83334,-5.50521 2.01041,-5.43749 2.18229,-5.375 2.34896,-5.3021 2.51563,-5.22396 2.67708,-5.14582 2.83855,-5.0573 3,-4.96354 3.15625,-4.86458 3.30208,-4.76562 3.45833,-4.65626 3.59896,-4.54688 3.74479,-4.43228 3.88021,-4.30729 4.01563,-4.1875 4.14582,-4.05208 4.27084,-3.92188 4.39062,-3.78646 4.51042,-3.64584 4.625,-3.5 4.73438,-3.35416 4.83333,-3.20312 4.93749,-3.04688 5.02604,-2.88541 5.11459,-2.72917 5.20313,-2.56771 5.28128,-2.40104 5.3489,-2.23437 5.4219,-2.06251 5.4844,-1.88541 5.5364,-1.71875 5.5938,-1.53645 5.6354,-1.36459 5.6771,-1.18229 5.7135,-1.00522 5.7396,-0.8229 5.7656,-0.64063 5.7813,-0.45313 5.7916,-0.27604 5.7969,-0.0937 v 183.46875 z m 0,0"
           id="path7040" />
      </g>
      <text
         id="text40"
         x="449.70129"
         y="18.784729"
         line-height="1.25"
         font-size="20px"
         xml:space="preserve"
         style="font-size:20px;line-height:1.25;font-family:Arial;font-variant-ligatures:normal;font-variant-caps:normal;font-variant-numeric:normal;font-feature-settings:normal;letter-spacing:0px;word-spacing:0px;fill:#101010"><tspan
           id="tspan38"
           y="18.784729"
           x="449.70129">2.9%</tspan></text>
      <text
         id="text44"
         x="405.96451"
         y="154.79272"
         line-height="1.25"
         font-size="20px"
         xml:space="preserve"
         style="font-size:20px;line-height:1.25;font-family:Arial;font-variant-ligatures:normal;font-variant-caps:normal;font-variant-numeric:normal;font-feature-settings:normal;letter-spacing:0px;word-spacing:0px;fill:#101010"><tspan
           id="tspan42"
           y="154.79272"
           x="405.96451">Suburbs</tspan></text>
    </g>
    <g
       transform="translate(-20,5)"
       id="g4523">
      <g
         id="g8681"
         transform="matrix(0.91730117,0,0,0.91730117,-184.3865,-56.467223)">
        <path
           inkscape:connector-curvature="0"
           style="fill:#dc2828;fill-opacity:1;fill-rule:nonzero;stroke:none;stroke-width:0.4230769"
           d="m 888.11538,87.491907 2.19471,0.04133 -2.19471,58.174723 z m 0,0"
           id="path7976" />
        <path
           inkscape:connector-curvature="0"
           style="fill:#c2defa;fill-opacity:1;fill-rule:nonzero;stroke:none;stroke-width:0.4230769"
           d="m 890.31009,87.533224 1.8427,0.09916 1.83939,0.156999 1.83279,0.214847 1.82451,0.274336 1.81626,0.330529 1.80469,0.388372 1.78981,0.446215 1.77659,0.500749 1.75842,0.558597 1.74188,0.613132 1.71875,0.66932 1.69892,0.722205 1.67413,0.776744 1.64934,0.827974 1.62125,0.880859 1.59314,0.930439 1.5634,0.981669 1.53035,1.03125 1.49895,1.079176 1.46259,1.125454 1.42458,1.17007 1.38988,1.21634 1.34855,1.25932 1.3089,1.30228 1.26592,1.34195 1.22296,1.38161 1.17999,1.41962 1.13206,1.45763 1.08744,1.49069 1.03786,1.52539 0.98993,1.55844 0.94036,1.58819 0.88912,1.61629 0.83789,1.64438 0.78501,1.67082 0.73212,1.69396 0.67758,1.7171 0.62305,1.73693 0.56685,1.75676 0.51232,1.77328 0.45448,1.78817 0.39829,1.80138 0.34044,1.8146 0.28261,1.82287 0.22641,1.83278 0.16692,1.83774 0.10741,1.8427 0.0512,1.84435 -0.008,1.846 -0.0678,1.84435 -0.12395,1.84105 -0.1851,1.83609 -0.24128,1.82947 -0.29913,1.82122 -0.35697,1.80964 -0.41481,1.79973 -0.47101,1.7832 -0.52719,1.76833 -0.58338,1.75181 -0.63793,1.73197 -0.69245,1.71048 -0.747,1.68736 -0.79988,1.66255 -0.85276,1.63778 -0.904,1.60802 -0.95357,1.57992 -1.00481,1.54853 -1.05274,1.51713 -1.099,1.48077 -1.14694,1.44606 -1.19156,1.40971 -1.23617,1.37004 -1.2775,1.33203 -1.32046,1.28906 -1.36013,1.24775 -1.39979,1.20313 -1.43614,1.1585 -1.47251,1.11223 -1.50721,1.0643 -1.54027,1.01803 -1.57166,0.9668 -1.60141,0.91721 -1.62951,0.86599 -1.6576,0.81475 -1.68074,0.76022 -1.70553,0.70733 -1.72536,0.65279 -1.74685,0.59826 -1.76337,0.54207 -1.77989,0.48588 -1.79477,0.42969 -1.808,0.37184 -1.81791,0.314 -1.82782,0.25782 -1.83609,0.19831 -1.83939,0.14048 -1.84435,0.0826 -1.84435,0.0231 -1.84601,-0.0347 -1.84269,-0.0926 -1.8394,-0.15204 -1.83278,-0.20989 -1.82617,-0.26773 -1.81626,-0.32557 -1.80634,-0.38341 -1.79146,-0.43961 -1.77825,-0.49744 -1.76006,-0.55199 -1.74354,-0.60817 -1.72206,-0.66271 -1.70057,-0.7189 -1.67578,-0.77013 -1.65099,-0.82467 -1.62455,-0.87425 -1.59646,-0.92713 -1.5667,-0.97671 -1.53365,-1.0263 -1.50061,-1.07421 -1.46589,-1.12215 -1.42954,-1.16677 -1.39152,-1.21139 -1.35352,-1.256 -1.3122,-1.29733 -1.27088,-1.33864 -1.22792,-1.37666 -1.18329,-1.41631 -1.13702,-1.45433 -1.09074,-1.48738 -1.04283,-1.52208 -0.99489,-1.55514 -0.94531,-1.58489 -0.89408,-1.61463 -0.84285,-1.64273 -0.78996,-1.66751 -0.73708,-1.69231 -0.68254,-1.7138 -0.62801,-1.73692 -0.57181,-1.75346 -0.51728,-1.77164 -0.46109,-1.78816 -0.40324,-1.79972 -0.34541,-1.81296 -0.28921,-1.82286 -0.22972,-1.83113 -0.17352,-1.83774 -0.11404,-1.84105 -0.0562,-1.846 0.003,-1.84435 0.0611,-1.84435 0.12064,-1.8427 0.17683,-1.83609 0.23633,-1.83113 0.29417,-1.82121 0.35202,-1.81295 0.4082,-1.79808 0.46604,-1.78651 0.52224,-1.76998 0.57842,-1.75346 0.63297,-1.73362 0.6875,-1.71214 0.74203,-1.689 0.79493,-1.66586 0.8478,-1.63943 0.89904,-1.61133 0.94862,-1.58323 0.99985,-1.55183 1.04778,-1.51878 1.0957,-1.48573 1.14198,-1.44937 1.18825,-1.41301 1.23122,-1.37335 1.27419,-1.33533 1.3155,-1.29402 1.35682,-1.25105 1.39649,-1.20809 1.43284,-1.161801 1.4692,-1.11719 1.5039,-1.069259 1.53696,-1.021333 1.56836,-0.971757 1.59976,-0.922176 1.6262,-0.870942 1.6543,-0.819712 1.67909,-0.765172 1.70222,-0.712293 1.72536,-0.657749 1.74354,-0.603219 1.76172,-0.548675 1.7799,-0.490837 1.79312,-0.434644 1.80633,-0.376805 1.81792,-0.320612 1.82616,-0.262769 1.83444,-0.20493 1.83939,-0.145432 1.84435,-0.08759 1.84436,-0.02974 v 58.216047 z m 0,0"
           id="path7990" />
      </g>
      <text
         id="text54"
         x="629.12524"
         y="18.722229"
         line-height="1.25"
         font-size="20px"
         xml:space="preserve"
         style="font-size:20px;line-height:1.25;font-family:Arial;font-variant-ligatures:normal;font-variant-caps:normal;font-variant-numeric:normal;font-feature-settings:normal;letter-spacing:0px;word-spacing:0px;fill:#101010"><tspan
           id="tspan52"
           y="18.722229"
           x="629.12524">0.6%</tspan></text>
      <text
         id="text58"
         x="612.56927"
         y="150.83765"
         line-height="1.25"
         font-size="20px"
         xml:space="preserve"
         style="font-size:20px;line-height:1.25;font-family:Arial;font-variant-ligatures:normal;font-variant-caps:normal;font-variant-numeric:normal;font-feature-settings:normal;letter-spacing:0px;word-spacing:0px;fill:#101010"><tspan
           id="tspan56"
           y="150.83765"
           x="612.56927">City</tspan></text>
    </g>
    <g
       transform="translate(-3.8936768,5)"
       id="g4541">
      <g
         id="g6804"
         transform="matrix(0.69327628,0,0,0.69327628,159.36707,-213.32075)">
        <path
           inkscape:connector-curvature="0"
           style="fill:#dc2828;fill-opacity:1;fill-rule:nonzero;stroke:none;stroke-width:0.55982906"
           d="m 135.9609,342.00617 2.61326,0.0437 2.61108,0.1334 2.60451,0.22305 2.59358,0.30834 2.58484,0.39801 2.56734,0.48548 2.54985,0.57076 2.53016,0.65824 2.50611,0.74352 2.47768,0.82662 2.44925,0.91191 2.41864,0.99501 2.38146,1.07592 2.34429,1.15465 2.30273,1.23556 -37.53478,67.26914 z m 0,0"
           id="path5909" />
        <path
           inkscape:connector-curvature="0"
           style="fill:#c2defa;fill-opacity:1;fill-rule:nonzero;stroke:none;stroke-width:0.55982906"
           d="m 173.49568,351.77037 2.11467,1.22463 2.0753,1.29023 2.03376,1.35583 1.98782,1.41926 1.9441,1.48267 1.8938,1.5439 1.84568,1.60295 1.7932,1.65981 1.74072,1.71666 1.68387,1.76915 1.627,1.82381 1.57014,1.87412 1.50673,1.92222 1.44768,1.97034 1.38426,2.01407 1.31867,2.05781 1.25305,2.09718 1.18526,2.13872 1.11748,2.17152 1.04749,2.2087 0.97751,2.23932 0.90754,2.26993 0.83318,2.29836 0.75883,2.32241 0.68667,2.34429 0.61231,2.36615 0.53577,2.38583 0.45924,2.39896 0.38488,2.41426 0.30616,2.4252 0.22961,2.43176 0.15308,2.4405 0.0744,2.4427 -0.002,2.44269 -0.0809,2.44269 -0.15745,2.43832 -0.23399,2.43394 -0.31053,2.42301 -0.38926,2.41426 -0.46361,2.39895 -0.54233,2.38365 -0.6145,2.36397 -0.69104,2.34428 -0.76539,2.32023 -0.83756,2.29618 -0.90972,2.26774 -0.98189,2.23932 -1.05405,2.20432 -1.12184,2.17153 -1.18964,2.13434 -1.25743,2.09718 -1.32304,2.05343 -1.38645,2.01189 -1.45205,1.96815 -1.5111,1.91785 -1.57233,1.87193 -1.63139,1.81944 -1.68823,1.76696 -1.7429,1.71448 -1.79539,1.65543 -1.85006,1.59857 -1.89817,1.53953 -1.94409,1.4783 -1.99221,1.41707 -2.03594,1.35146 -2.07749,1.28805 -2.11685,1.22025 -2.15622,1.15246 -2.19121,1.08248 -2.224,1.01469 -2.25463,0.94253 -2.28305,0.87036 -2.3093,0.79819 -2.33554,0.72384 -2.35521,0.64949 -2.3749,0.57295 -2.39239,0.4986 -2.40771,0.42424 -2.41864,0.34552 -2.42956,0.26899 -2.43613,0.19244 -2.44051,0.11371 -2.44488,0.0372 -2.44269,-0.0394 -2.4405,-0.11809 -2.43614,-0.19463 -2.42957,-0.27335 -2.41863,-0.3499 -2.40552,-0.42424 -2.39239,-0.50297 -2.3749,-0.57733 -2.35522,-0.65167 -2.33335,-0.72821 -2.30929,-0.80039 -2.28087,-0.87255 -2.25462,-0.94689 -2.22182,-1.01688 -2.18903,-1.08467 -2.154028,-1.15683 -2.116853,-1.22244 -2.075303,-1.29023 -2.033753,-1.35365 -1.990018,-1.41925 -1.944091,-1.48049 -1.895984,-1.54172 -1.845689,-1.60295 -1.795389,-1.65762 -1.740715,-1.71666 -1.686048,-1.76914 -1.627004,-1.82164 -1.570146,-1.87193 -1.511102,-1.92222 -1.447684,-1.96815 -1.384262,-2.01407 -1.320849,-2.05781 -1.255243,-2.09717 -1.185259,-2.13654 -1.119658,-2.17152 -1.049679,-2.20651 -0.979701,-2.23932 -0.907539,-2.26993 -0.833182,-2.29617 -0.763204,-2.32242 -0.686664,-2.34647 -0.612313,-2.36397 -0.537962,-2.38583 -0.461422,-2.39896 -0.384883,-2.41426 -0.310531,-2.42301 -0.229614,-2.43394 -0.155269,-2.43832 -0.07653,-2.44269 v -2.44488 l 0.07872,-2.4405 0.155263,-2.44051 0.233992,-2.43176 0.310531,-2.4252 0.387072,-2.41207 0.463605,-2.39896 0.537962,-2.38364 0.614502,-2.36615 0.688848,-2.34429 0.763209,-2.32241 0.837555,-2.29618 0.907533,-2.26775 0.98189,-2.23931 1.049679,-2.20651 1.119658,-2.17153 1.189637,-2.13653 1.255243,-2.09499 1.323032,-2.05562 1.386451,-2.01407 1.447684,-1.96815 1.511102,-1.92004 1.57233,-1.87193 1.629192,-1.82163 1.686048,-1.76696 1.742905,-1.71448 1.795388,-1.65762 1.847873,-1.60075 1.895984,-1.53953 1.946279,-1.48049 1.990019,-1.41707 2.035941,-1.35365 2.075303,-1.28804 2.116854,-1.22244 2.154027,-1.15465 2.19121,-1.08467 2.22182,-1.01469 2.25462,-0.94471 2.28306,-0.87036 2.30929,-0.80038 2.33335,-0.72603 2.35522,-0.64948 2.3749,-0.57733 2.39239,-0.4986 2.4077,-0.42643 2.41864,-0.3477 2.42957,-0.26899 2.43613,-0.19463 2.44051,-0.1159 2.44269,-0.0394 v 77.03334 z m 0,0"
           id="path5923" />
      </g>
      <text
         id="text26"
         x="267.6864"
         y="18.722229"
         line-height="1.25"
         font-size="20px"
         xml:space="preserve"
         style="font-size:20px;line-height:1.25;font-family:Arial;font-variant-ligatures:normal;font-variant-caps:normal;font-variant-numeric:normal;font-feature-settings:normal;letter-spacing:0px;word-spacing:0px;fill:#101010"><tspan
           id="tspan24"
           y="18.722229"
           x="267.6864">8.1%</tspan></text>
      <text
         xml:space="preserve"
         style="font-style:normal;font-variant:normal;font-weight:normal;font-stretch:normal;font-size:20px;line-height:1.25;font-family:Arial;-inkscape-font-specification:Arial;font-variant-ligatures:normal;font-variant-caps:normal;font-variant-numeric:normal;font-feature-settings:normal;text-align:center;letter-spacing:0px;word-spacing:0px;writing-mode:lr-tb;text-anchor:middle;fill:#000000;fill-opacity:1;stroke:none"
         x="253.5336"
         y="154.79272"
         id="text6748"><tspan
           sodipodi:role="line"
           x="253.5336"
           y="154.79272"
           id="tspan6750">Small metro areas</tspan></text>
    </g>
  </g>
</svg>
