<?xml version="1.0" encoding="UTF-8" standalone="no"?>
<!-- Created with Inkscape (http://www.inkscape.org/) -->

<svg
   xmlns:dc="http://purl.org/dc/elements/1.1/"
   xmlns:cc="http://creativecommons.org/ns#"
   xmlns:rdf="http://www.w3.org/1999/02/22-rdf-syntax-ns#"
   xmlns:svg="http://www.w3.org/2000/svg"
   xmlns="http://www.w3.org/2000/svg"
   xmlns:sodipodi="http://sodipodi.sourceforge.net/DTD/sodipodi-0.dtd"
   xmlns:inkscape="http://www.inkscape.org/namespaces/inkscape"
   width="700"
   height="180"
   viewBox="0 0 700 180"
   version="1.1"
   id="svg9"
   inkscape:version="0.92.1 r15371"
   sodipodi:docname="share_without_access.svg">
  <defs
     id="defs2" />
  <sodipodi:namedview
     inkscape:document-units="px"
     pagecolor="#ffffff"
     bordercolor="#666666"
     borderopacity="1.0"
     inkscape:pageopacity="0.0"
     inkscape:pageshadow="2"
     inkscape:zoom="0.72000003"
     inkscape:cx="20.319759"
     inkscape:cy="190.27923"
     inkscape:current-layer="layer1"
     id="namedview4"
     showgrid="false"
     inkscape:window-width="1648"
     inkscape:window-height="841"
     inkscape:window-x="2234"
     inkscape:window-y="24"
     inkscape:window-maximized="0" />
  <metadata
     id="metadata6">
    <rdf:RDF>
      <cc:Work
         rdf:about="">
        <dc:format>image/svg+xml</dc:format>
        <dc:type
           rdf:resource="http://purl.org/dc/dcmitype/StillImage" />
        <dc:title></dc:title>
      </cc:Work>
    </rdf:RDF>
  </metadata>
  <g
     inkscape:label="Layer 1"
     inkscape:groupmode="layer"
     id="layer1"
     transform="translate(0,-900)">
    <g
       style="fill:#000000;fill-opacity:1"
       id="use4728"
       transform="matrix(0.38808219,0,0,0.38808219,623.84548,941.42585)">
      <path
         inkscape:connector-curvature="0"
         id="path5409"
         d=""
         style="stroke:none" />
    </g>
    <g
       id="g10856"
       transform="translate(-20,-38)">
      <path
         inkscape:connector-curvature="0"
         style="fill:#dc2828;fill-opacity:1;fill-rule:nonzero;stroke:none;stroke-width:1;stroke-miterlimit:10;stroke-dasharray:none"
         d="m 81.715822,961.78807 1.69028,0.0273 1.68876,0.0803 1.68422,0.13341 1.67967,0.18646 1.6736,0.23952 1.66451,0.29409 1.65541,0.34412 1.64177,0.3987 1.629638,0.44872 1.61449,0.50026 1.5978,0.5518 1.57962,0.60183 1.55839,0.65186 1.53869,0.70037 1.51594,0.74736 1.49018,0.79739 1.4644,0.84286 1.43863,0.88835 1.40832,0.93534 1.37799,0.97778 1.34616,1.02175 1.31433,1.06268 1.27946,1.10512 1.24307,1.14454 1.2067,1.18244 1.17031,1.22185 1.12937,1.25672 1.08846,1.29159 1.04751,1.32645 1.00659,1.35829 0.96111,1.39012 0.91715,1.42044 0.87318,1.44773 0.82468,1.4735 0.77919,1.50079 0.73069,1.5235 0.68218,1.5463 0.63366,1.5675 0.58212,1.5872 0.5321,1.6039 0.48207,1.6205 0.43053,1.6342 0.37747,1.6478 0.32593,1.6585 0.27287,1.6675 0.21981,1.6751 0.16676,1.6827 0.1137,1.6858 0.0606,1.6887 0.008,1.6903 -0.047,1.6903 -0.10005,1.6872 -0.15463,1.6827 -0.20616,1.6782 -0.25923,1.669 -0.31228,1.6615 -0.36535,1.6509 -0.41688,1.6372 -0.46843,1.6236 -0.51997,1.6084 -0.56999,1.5918 -0.62003,1.572 -0.67004,1.5523 -0.71856,1.5296 -0.76707,1.5053 -0.81406,1.4826 -0.85955,1.4538 -0.90653,1.4265 -0.9505,1.3977 -0.99446,1.3674 -1.03691,1.3341 -1.07935,1.3006 -1.12029,1.2674 -1.15818,1.2294 -1.1976,1.193 -1.23398,1.1537 -1.27036,1.1157 -1.30523,1.0733 -1.33858,1.0324 -1.37041,0.9884 -1.40226,0.9459 -1.42953,0.9005 -1.45834,0.855 -1.48411,0.808 -1.50989,0.761 -1.5311,0.7125 -1.55536,0.664 -1.57355,0.6139 -1.59326,0.5655 -1.61145,0.5124 -1.625098,0.4623 -1.64025,0.4108 -1.65087,0.3593 -1.66299,0.3062 -1.67057,0.2532 -1.67815,0.2001 -1.68422,0.1471 -1.68725,0.094 -1.69028,0.039 -1.68876,-0.012 -1.690281,-0.067 -1.685732,-0.1213 -1.681183,-0.1728 -1.675122,-0.2259 -1.666026,-0.2805 -1.656928,-0.332 -1.646318,-0.3835 -1.632674,-0.4366 -1.619028,-0.4881 -1.602357,-0.5382 -1.584163,-0.5897 -1.564456,-0.6382 -1.543232,-0.6882 -1.522012,-0.7368 -1.496239,-0.7837 -1.471984,-0.8323 -1.444695,-0.8777 -1.415894,-0.9217 -1.385574,-0.9672 -1.355257,-1.0111 -1.321905,-1.0536 -1.288553,-1.093 -1.25217,-1.1354 -1.217305,-1.1734 -1.177892,-1.2112 -1.139991,-1.2477 -1.099061,-1.284 -1.058129,-1.3173 -1.017202,-1.3507 -0.973237,-1.3826 -0.927757,-1.4113 -0.883799,-1.4417 -0.838316,-1.4674 -0.789809,-1.4947 -0.742813,-1.5175 -0.694306,-1.5402 -0.645792,-1.5629 -0.595764,-1.5812 -0.545741,-1.6008 -0.494199,-1.616 -0.442658,-1.6312 -0.391113,-1.6433 -0.339572,-1.6569 -0.286514,-1.6645 -0.233454,-1.6751 -0.1804,-1.6797 -0.127338,-1.6857 -0.07428,-1.6888 -0.01971,-1.6903 0.03334,-1.6887 0.08641,-1.6888 0.139469,-1.6842 0.194042,-1.6797 0.245582,-1.6721 0.300158,-1.6629 0.3517,-1.6524 0.40324,-1.6418 0.4563,-1.6281 0.506326,-1.6115 0.557869,-1.5963 0.606378,-1.5766 0.65792,-1.5568 0.706433,-1.5357 0.754941,-1.51291 0.801933,-1.48715 0.848929,-1.46289 0.89441,-1.43408 0.939888,-1.40377 0.982333,-1.37496 1.026295,-1.34313 1.06874,-1.30977 1.109674,-1.27492 1.149088,-1.23852 1.188502,-1.20367 1.224884,-1.16424 1.261267,-1.12483 1.296133,-1.0839 1.331001,-1.04297 1.361319,-1.00053 1.39467,-0.95656 1.421957,-0.91109 1.452277,-0.86712 1.478046,-0.82012 1.502305,-0.77314 1.526556,-0.72462 1.549298,-0.67611 20.589572,49.2713 z m 0,0"
         id="path7453" />
      <path
         inkscape:connector-curvature="0"
         style="fill:#c2defa;fill-opacity:1;fill-rule:nonzero;stroke:none;stroke-width:0.38808218"
         d="m 61.12624,965.9175 1.785784,-0.70946 1.810038,-0.64276 1.83278,-0.57909 1.852487,-0.51239 1.869159,-0.44569 1.882808,-0.37747 1.896449,-0.31077 1.90706,-0.24103 1.913124,-0.17282 1.919187,-0.10309 1.920706,-0.0349 v 53.40077 z m 0,0"
         id="path7469" />
      <text
         id="text8550"
         y="956.72223"
         x="94.581123"
         style="font-style:normal;font-variant:normal;font-weight:normal;font-stretch:normal;font-size:20px;line-height:1.25;font-family:Arial;-inkscape-font-specification:Arial;font-variant-ligatures:normal;font-variant-caps:normal;font-variant-numeric:normal;font-feature-settings:normal;text-align:start;letter-spacing:0px;word-spacing:0px;writing-mode:lr-tb;text-anchor:start;fill:#101010;fill-opacity:1;stroke:none"
         xml:space="preserve"><tspan
           y="956.72223"
           x="94.581123"
           id="tspan8548"
           sodipodi:role="line">93.7%</tspan></text>
      <text
         id="text8554"
         y="1038.7927"
         x="49.598263"
         style="font-style:normal;font-variant:normal;font-weight:normal;font-stretch:normal;font-size:20px;line-height:1.25;font-family:Arial;-inkscape-font-specification:Arial;font-variant-ligatures:normal;font-variant-caps:normal;font-variant-numeric:normal;font-feature-settings:normal;text-align:start;letter-spacing:0px;word-spacing:0px;writing-mode:lr-tb;text-anchor:start;fill:#ffffff;fill-opacity:1;stroke:none"
         xml:space="preserve"><tspan
           y="1038.7927"
           x="49.598263"
           id="tspan8552"
           sodipodi:role="line">1 Gbps</tspan></text>
    </g>
    <g
       id="g10864"
       transform="translate(-10.943314,-38)">
      <path
         inkscape:connector-curvature="0"
         style="fill:#dc2828;fill-opacity:1;fill-rule:nonzero;stroke:none;stroke-width:1;stroke-miterlimit:10;stroke-dasharray:none"
         d="m 257.90512,961.78807 1.80701,0.0303 1.80397,0.0925 1.80095,0.1516 1.79336,0.21374 1.78579,0.27439 1.77517,0.33351 1.76304,0.39414 1.74941,0.45479 1.7312,0.51239 1.71454,0.56999 1.69331,0.62912 1.67209,0.68521 1.64783,0.7413 -22.73767,48.31775 z m 0,0"
         id="path6591" />
      <path
         inkscape:connector-curvature="0"
         style="fill:#c2defa;fill-opacity:1;fill-rule:nonzero;stroke:none;stroke-width:0.38808218"
         d="m 280.64279,966.87104 1.51443,0.74129 1.49018,0.78981 1.4644,0.8368 1.43712,0.88228 1.40983,0.92624 1.37951,0.97173 1.34616,1.01416 1.31584,1.05662 1.28098,1.09603 1.2461,1.13696 1.20821,1.17637 1.17183,1.21428 1.13241,1.24913 1.09148,1.28553 1.05207,1.31887 1.00962,1.35071 0.96566,1.38254 0.92169,1.41286 0.87622,1.44015 0.83073,1.46895 0.78375,1.49321 0.73675,1.51744 0.68824,1.5387 0.63973,1.5614 0.5897,1.5796 0.53968,1.5994 0.48813,1.6129 0.43811,1.6297 0.38505,1.6417 0.33351,1.6539 0.28197,1.663 0.2289,1.6706 0.17586,1.6766 0.12278,1.6827 0.0697,1.6858 0.0152,1.6857 -0.0364,1.6857 -0.091,1.6843 -0.1425,1.6811 -0.19707,1.6752 -0.24861,1.6675 -0.30168,1.66 -0.35321,1.6493 -0.40627,1.6372 -0.45782,1.6236 -0.50784,1.6069 -0.55939,1.5918 -0.60789,1.5735 -0.65944,1.5523 -0.70643,1.5311 -0.75494,1.5084 -0.80194,1.4841 -0.84893,1.4568 -0.8944,1.4311 -0.93837,1.4007 -0.98385,1.3704 -1.02478,1.3386 -1.06723,1.3068 -1.10815,1.2703 -1.14758,1.2371 -1.18698,1.1991 -1.22337,1.1612 -1.25975,1.1218 -1.29311,1.0808 -1.32796,1.04 -1.35981,0.9975 -1.39163,0.955 -1.41893,0.9096 -1.44924,0.8641 -1.47502,0.8186 -1.49927,0.7716 -1.52353,0.7231 -1.54626,0.6746 -1.56597,0.6261 -1.58417,0.5761 -1.60387,0.526 -1.61751,0.4745 -1.63268,0.4244 -1.6448,0.3715 -1.65693,0.3198 -1.6645,0.2668 -1.67361,0.2153 -1.67815,0.1607 -1.6827,0.1091 -1.68573,0.055 h -1.68725 l -1.68574,-0.052 -1.68421,-0.1046 -1.67815,-0.1577 -1.67361,-0.2107 -1.66602,-0.2638 -1.65693,-0.3153 -1.64632,-0.3684 -1.63267,-0.4184 -1.62055,-0.4714 -1.60387,-0.523 -1.58568,-0.5715 -1.56749,-0.6231 -1.54778,-0.67 -1.52504,-0.7201 -1.5023,-0.7686 -1.47653,-0.8141 -1.44925,-0.861 -1.42347,-0.9066 -1.39316,-0.9505 -1.36132,-0.9944 -1.331,-1.0369 -1.29613,-1.0794 -1.26278,-1.1188 -1.2264,-1.1581 -1.1885,-1.1961 -1.15061,-1.2325 -1.11119,-1.2688 -1.07025,-1.3037 -1.02933,-1.3371 -0.98537,-1.3674 -0.94292,-1.3992 -0.89744,-1.428 -0.85196,-1.4553 -0.80497,-1.4826 -0.75948,-1.5054 -0.71098,-1.5296 -0.66095,-1.5523 -0.61245,-1.5705 -0.56241,-1.5902 -0.51239,-1.6069 -0.46237,-1.6221 -0.4093,-1.6372 -0.35777,-1.6479 -0.30622,-1.6584 -0.25164,-1.6675 -0.20162,-1.6752 -0.14705,-1.6796 -0.094,-1.6842 -0.0409,-1.6858 0.0121,-1.6872 0.0652,-1.6842 0.11975,-1.6827 0.17131,-1.6782 0.22436,-1.6721 0.27741,-1.663 0.33048,-1.6539 0.38202,-1.6433 0.43356,-1.6296 0.4851,-1.616 0.53513,-1.5993 0.58516,-1.5811 0.63669,-1.563 0.68369,-1.5402 0.73372,-1.51897 0.78072,-1.49624 0.82618,-1.46895 0.87319,-1.44318 0.91866,-1.41438 0.96263,-1.38557 1.00659,-1.35374 1.04752,-1.32191 1.08996,-1.28704 1.12938,-1.25217 1.1688,-1.21579 1.20517,-1.1794 1.24308,-1.13999 1.27946,-1.10058 1.31129,-1.05965 1.34616,-1.0172 1.37648,-0.97475 1.4068,-0.92927 1.4356,-0.88532 1.46289,-0.83983 1.48714,-0.79436 1.51291,-0.74584 1.53566,-0.69734 1.55687,-0.64883 1.57659,-0.59879 1.59477,-0.54878 1.61145,-0.49874 1.62661,-0.44721 1.63874,-0.39566 1.65238,-0.34412 1.65996,-0.29106 1.67058,-0.23952 1.67663,-0.18646 1.68119,-0.1334 1.68421,-0.0788 1.68574,-0.0273 v 53.40074 z m 0,0"
         id="path6605" />
      <text
         id="text8546"
         y="956.72223"
         x="271.96301"
         style="font-style:normal;font-variant:normal;font-weight:normal;font-stretch:normal;font-size:20px;line-height:1.25;font-family:Arial;-inkscape-font-specification:Arial;font-variant-ligatures:normal;font-variant-caps:normal;font-variant-numeric:normal;font-feature-settings:normal;text-align:start;letter-spacing:0px;word-spacing:0px;writing-mode:lr-tb;text-anchor:start;fill:#101010;fill-opacity:1;stroke:none"
         xml:space="preserve"><tspan
           y="956.72223"
           x="271.96301"
           id="tspan8544"
           sodipodi:role="line">7.0%</tspan></text>
      <text
         id="text8554-8"
         y="1037.5278"
         x="221.08923"
         style="font-style:normal;font-variant:normal;font-weight:normal;font-stretch:normal;font-size:20px;line-height:1.25;font-family:Arial;-inkscape-font-specification:Arial;font-variant-ligatures:normal;font-variant-caps:normal;font-variant-numeric:normal;font-feature-settings:normal;text-align:start;letter-spacing:0px;word-spacing:0px;writing-mode:lr-tb;text-anchor:start;fill:#101010;fill-opacity:1;stroke:none"
         xml:space="preserve"><tspan
           y="1037.5278"
           x="221.08923"
           id="tspan8552-3"
           sodipodi:role="line">25 Mbps</tspan></text>
    </g>
    <g
       id="g10872"
       transform="translate(-4.0863037,-38)">
      <path
         inkscape:connector-curvature="0"
         style="fill:#dc2828;fill-opacity:1;fill-rule:nonzero;stroke:none;stroke-width:1;stroke-miterlimit:10;stroke-dasharray:none"
         d="m 434.09443,961.78807 2.3482,0.0515 2.34365,0.15463 2.33456,0.25771 -7.02641,52.93689 z m 0,0"
         id="path5645" />
      <path
         inkscape:connector-curvature="0"
         style="fill:#c2defa;fill-opacity:1;fill-rule:nonzero;stroke:none;stroke-width:0.38808218"
         d="m 441.12084,962.25195 1.67512,0.25013 1.66451,0.30167 1.65541,0.35473 1.6448,0.40779 1.62964,0.45933 1.61297,0.51088 1.59781,0.5609 1.5781,0.61244 1.5599,0.66095 1.53566,0.71098 1.51443,0.75949 1.48866,0.80648 1.46137,0.85348 1.43408,0.89896 1.40529,0.94443 1.37496,0.9884 1.34313,1.03236 1.30826,1.07329 1.27491,1.11422 1.23853,1.15363 1.20215,1.19305 1.16272,1.23095 1.12332,1.26733 1.08238,1.3022 1.03994,1.33403 0.99901,1.3689 0.95353,1.3977 0.90957,1.42954 0.86258,1.45531 0.81709,1.48411 0.7701,1.50685 0.72159,1.53264 0.67157,1.5538 0.62305,1.5736 0.57303,1.5948 0.52148,1.6099 0.46994,1.6266 0.41841,1.6403 0.36685,1.6539 0.31381,1.6629 0.26074,1.6736 0.20768,1.6797 0.15463,1.6857 0.10005,1.6903 0.047,1.6933 -0.006,1.6918 -0.0606,1.6933 -0.11369,1.6888 -0.16676,1.6842 -0.21981,1.6797 -0.27439,1.6706 -0.32592,1.6614 -0.37899,1.6494 -0.43205,1.6372 -0.48206,1.6236 -0.53514,1.6069 -0.58364,1.5887 -0.63517,1.569 -0.68521,1.5493 -0.73221,1.5266 -0.78071,1.5008 -0.82922,1.478 -0.8747,1.4492 -0.92018,1.4205 -0.96414,1.3916 -1.00811,1.3598 -1.05055,1.328 -1.09299,1.2931 -1.13393,1.2582 -1.17183,1.2219 -1.20972,1.1839 -1.24763,1.1446 -1.284,1.1051 -1.31736,1.0627 -1.34919,1.0217 -1.38254,0.9778 -1.41286,0.9338 -1.44167,0.8884 -1.46895,0.8413 -1.49473,0.7959 -1.51897,0.7474 -1.54172,0.6988 -1.56294,0.6504 -1.58416,0.5988 -1.60084,0.5487 -1.61904,0.4988 -1.63267,0.4472 -1.64631,0.3941 -1.65845,0.3426 -1.66754,0.2896 -1.67664,0.2365 -1.68421,0.1834 -1.68725,0.1288 -1.6918,0.076 -1.69331,0.023 -1.69179,-0.03 -1.6918,-0.085 -1.68725,-0.1395 -1.6827,-0.191 -1.67512,-0.2456 -1.66602,-0.2971 -1.65693,-0.3517 -1.64481,-0.4032 -1.62964,-0.4548 -1.616,-0.5064 -1.59932,-0.5563 -1.57961,-0.6079 -1.55991,-0.6579 -1.53869,-0.7065 -1.51594,-0.7564 -1.49018,-0.8019 -1.4644,-0.8505 -1.43712,-0.8944 -1.40831,-0.9414 -1.37648,-0.9854 -1.34465,-1.0278 -1.3128,-1.0702 -1.27643,-1.1112 -1.24156,-1.1506 -1.20518,-1.19 -1.16576,-1.228 -1.12635,-1.2643 -1.08693,-1.2991 -1.04297,-1.3325 -1.00205,-1.3659 -0.95807,-1.3962 -0.9126,-1.425 -0.86712,-1.4538 -0.82013,-1.4811 -0.77313,-1.5068 -0.72614,-1.5296 -0.67611,-1.5523 -0.62609,-1.5736 -0.57757,-1.5917 -0.52603,-1.6084 -0.4745,-1.6251 -0.42143,-1.6403 -0.37141,-1.6524 -0.31834,-1.663 -0.2653,-1.672 -0.21071,-1.6797 -0.15918,-1.6857 -0.1046,-1.6888 -0.0515,-1.6933 0.002,-1.6933 0.0561,-1.6918 0.10915,-1.6888 0.16373,-1.6857 0.21526,-1.6797 0.26984,-1.6721 0.3229,-1.6615 0.37443,-1.6508 0.42598,-1.6388 0.47904,-1.6235 0.53058,-1.6085 0.58061,-1.5902 0.63064,-1.572 0.68065,-1.5493 0.72918,-1.52809 0.77616,-1.50534 0.82467,-1.47805 0.87167,-1.45227 0.91564,-1.42348 0.9611,-1.39315 1.00508,-1.36284 1.04751,-1.331 1.08997,-1.29613 1.12938,-1.25975 1.16879,-1.22489 1.20821,-1.18698 1.24459,-1.14909 1.27946,-1.10664 1.31433,-1.06723 1.34919,-1.02478 1.37951,-0.98233 1.40983,-0.93685 1.43863,-0.89138 1.46744,-0.8459 1.49169,-0.7989 1.51746,-0.75191 1.54021,-0.70188 1.56293,-0.65489 1.58114,-0.60335 1.59932,-0.55332 1.61751,-0.50178 1.63268,-0.45175 1.6448,-0.39869 1.65693,-0.34564 1.66754,-0.29409 1.67663,-0.24104 1.68271,-0.18798 1.68724,-0.1334 1.6918,-0.0803 1.6918,-0.0273 v 53.40069 z m 0,0"
         id="path5659" />
      <text
         id="text8542"
         y="956.78473"
         x="440.45428"
         style="font-style:normal;font-variant:normal;font-weight:normal;font-stretch:normal;font-size:20px;line-height:1.25;font-family:Arial;-inkscape-font-specification:Arial;font-variant-ligatures:normal;font-variant-caps:normal;font-variant-numeric:normal;font-feature-settings:normal;text-align:start;letter-spacing:0px;word-spacing:0px;writing-mode:lr-tb;text-anchor:start;fill:#101010;fill-opacity:1;stroke:none"
         xml:space="preserve"><tspan
           y="956.78473"
           x="440.45428"
           id="tspan8540"
           sodipodi:role="line">2.1%</tspan></text>
      <text
         id="text8554-3"
         y="1038.0189"
         x="397.07242"
         style="font-style:normal;font-variant:normal;font-weight:normal;font-stretch:normal;font-size:20px;line-height:1.25;font-family:Arial;-inkscape-font-specification:Arial;font-variant-ligatures:normal;font-variant-caps:normal;font-variant-numeric:normal;font-feature-settings:normal;text-align:start;letter-spacing:0px;word-spacing:0px;writing-mode:lr-tb;text-anchor:start;fill:#101010;fill-opacity:1;stroke:none"
         xml:space="preserve"><tspan
           y="1038.0189"
           x="397.07242"
           id="tspan8552-38"
           sodipodi:role="line">10 Mbps</tspan></text>
    </g>
    <g
       id="g10880"
       transform="translate(6.1e-5,-38)">
      <path
         inkscape:connector-curvature="0"
         style="fill:#dc2828;fill-opacity:1;fill-rule:nonzero;stroke:none;stroke-width:1;stroke-miterlimit:10;stroke-dasharray:none"
         d="m 610.28375,961.78807 2.3482,0.0515 -2.3482,53.34923 z m 0,0"
         id="path4710" />
      <path
         inkscape:connector-curvature="0"
         style="fill:#c2defa;fill-opacity:1;fill-rule:nonzero;stroke:none;stroke-width:0.38808218"
         d="m 612.63195,961.83961 1.68876,0.10157 1.68422,0.15463 1.67815,0.20768 1.67057,0.26074 1.66148,0.3138 1.65087,0.36535 1.63873,0.4184 1.6251,0.46994 1.60842,0.52149 1.59174,0.57151 1.57355,0.62154 1.55233,0.67156 1.52959,0.72007 1.50685,0.76859 1.48108,0.81558 1.45531,0.86106 1.4265,0.90805 1.3977,0.95201 1.36739,0.99749 1.33403,1.03843 1.30068,1.08087 1.26582,1.12179 1.22943,1.1597 1.19305,1.19912 1.15364,1.23701 1.11422,1.27188 1.07328,1.30674 1.03085,1.34162 0.9884,1.37193 0.94443,1.40225 0.90047,1.43256 0.85348,1.45986 0.80648,1.48563 0.75949,1.5114 0.7125,1.53414 0.66095,1.5554 0.61396,1.5765 0.56241,1.5948 0.51239,1.613 0.45933,1.6266 0.40931,1.6402 0.35625,1.6539 0.3047,1.663 0.25165,1.6736 0.19707,1.6782 0.14553,1.6857 0.091,1.6888 0.0379,1.6903 -0.0152,1.6918 -0.0697,1.6887 -0.12279,1.6873 -0.17585,1.6827 -0.22891,1.6751 -0.28196,1.6675 -0.33503,1.657 -0.38657,1.6463 -0.43962,1.6342 -0.48965,1.6175 -0.54119,1.6023 -0.59274,1.5842 -0.64124,1.5645 -0.69127,1.5432 -0.73979,1.522 -0.78829,1.4962 -0.83377,1.4705 -0.88076,1.4447 -0.92625,1.4144 -0.96868,1.3856 -1.01417,1.3537 -1.05662,1.3219 -1.09603,1.287 -1.13847,1.2507 -1.17638,1.2143 -1.21427,1.1779 -1.25065,1.1384 -1.28704,1.0976 -1.32039,1.0566 -1.35374,1.0142 -1.38406,0.9702 -1.41438,0.9262 -1.44318,0.8823 -1.47198,0.8338 -1.49624,0.7883 -1.5205,0.7413 -1.54323,0.6912 -1.56445,0.6428 -1.58265,0.5927 -1.60236,0.5412 -1.61903,0.4912 -1.63267,0.4396 -1.64632,0.3881 -1.65693,0.3365 -1.66754,0.282 -1.67512,0.2304 -1.6827,0.1759 -1.68573,0.1243 -1.69028,0.07 -1.69028,0.017 -1.6918,-0.038 -1.68876,-0.091 -1.68421,-0.144 -1.67967,-0.1971 -1.67209,-0.2501 -1.66451,-0.3032 -1.6539,-0.3562 -1.64025,-0.4078 -1.62813,-0.4609 -1.61145,-0.5108 -1.59478,-0.5609 -1.57658,-0.6125 -1.55688,-0.6625 -1.53413,-0.7109 -1.5114,-0.758 -1.48714,-0.8065 -1.45986,-0.8535 -1.43257,-0.8989 -1.40377,-0.9429 -1.37192,-0.9884 -1.34162,-1.0309 -1.30674,-1.0733 -1.2734,-1.1127 -1.23701,-1.1536 -1.19912,-1.1915 -1.16121,-1.2295 -1.1218,-1.2658 -1.08238,-1.3007 -1.03843,-1.3325 -0.99749,-1.3674 -0.95353,-1.3962 -0.90805,-1.4265 -0.86258,-1.4553 -0.81557,-1.4811 -0.7701,-1.5053 -0.72008,-1.5311 -0.67156,-1.5508 -0.62306,-1.5736 -0.57302,-1.5902 -0.52149,-1.6084 -0.46994,-1.6251 -0.4184,-1.6387 -0.36686,-1.6509 -0.31532,-1.6615 -0.26074,-1.6705 -0.2092,-1.6782 -0.15463,-1.6842 -0.10157,-1.6888 -0.0485,-1.6903 0.005,-1.6902 0.0591,-1.6903 0.11218,-1.6873 0.16524,-1.6842 0.21981,-1.6766 0.27136,-1.6691 0.32441,-1.6599 0.37747,-1.6479 0.42901,-1.6357 0.48056,-1.622 0.53058,-1.6054 0.58212,-1.5872 0.63215,-1.569 0.68218,-1.5478 0.73068,-1.52505 0.77769,-1.5023 0.82467,-1.47653 0.87167,-1.44925 0.91714,-1.42044 0.96263,-1.39164 1.00508,-1.3598 1.04751,-1.32645 1.08845,-1.29462 1.1309,-1.25824 1.16879,-1.22185 1.2067,-1.18395 1.24459,-1.14606 1.27946,-1.10664 1.31432,-1.06419 1.34616,-1.02175 1.37951,-0.9793 1.40832,-0.93534 1.43863,-0.88986 1.4644,-0.84438 1.49169,-0.79739 1.51595,-0.74888 1.53868,-0.70188 1.56143,-0.65186 1.57961,-0.60335 1.59933,-0.5518 1.61448,-0.50026 1.63116,-0.45024 1.64328,-0.39869 1.65542,-0.34564 1.66602,-0.29257 1.6736,-0.24104 1.68119,-0.18646 1.68573,-0.13341 1.68877,-0.0803 1.69028,-0.0273 v 53.40071 z m 0,0"
         id="path4724" />
      <text
         id="text8538"
         y="956.72223"
         x="609.12524"
         style="font-style:normal;font-variant:normal;font-weight:normal;font-stretch:normal;font-size:20px;line-height:1.25;font-family:Arial;-inkscape-font-specification:Arial;font-variant-ligatures:normal;font-variant-caps:normal;font-variant-numeric:normal;font-feature-settings:normal;text-align:start;letter-spacing:0px;word-spacing:0px;writing-mode:lr-tb;text-anchor:start;fill:#101010;fill-opacity:1;stroke:none"
         xml:space="preserve"><tspan
           y="956.72223"
           x="609.12524"
           id="tspan8536"
           sodipodi:role="line">0.7%</tspan></text>
      <text
         id="text8554-0"
         y="1036.0547"
         x="578.02045"
         style="font-style:normal;font-variant:normal;font-weight:normal;font-stretch:normal;font-size:20px;line-height:1.25;font-family:Arial;-inkscape-font-specification:Arial;font-variant-ligatures:normal;font-variant-caps:normal;font-variant-numeric:normal;font-feature-settings:normal;text-align:start;letter-spacing:0px;word-spacing:0px;writing-mode:lr-tb;text-anchor:start;fill:#101010;fill-opacity:1;stroke:none"
         xml:space="preserve"><tspan
           y="1036.0547"
           x="578.02045"
           id="tspan8552-4"
           sodipodi:role="line">3 Mbps</tspan></text>
    </g>
    <g
       id="g11107"
       transform="translate(257.00965,152)">
      <rect
         y="904"
         x="22"
         height="18"
         width="18"
         id="rect9125"
         style="opacity:0.98999999;fill:#dc2828;fill-opacity:1;stroke:none;stroke-width:0.76235288;stroke-linecap:round;stroke-miterlimit:10;stroke-dasharray:none;stroke-opacity:1" />
      <text
         id="text9129"
         y="919.91663"
         x="44.222229"
         style="font-style:normal;font-variant:normal;font-weight:normal;font-stretch:normal;font-size:20px;line-height:1.25;font-family:Arial;-inkscape-font-specification:Arial;font-variant-ligatures:normal;font-variant-caps:normal;font-variant-numeric:normal;font-feature-settings:normal;text-align:start;letter-spacing:0px;word-spacing:0px;writing-mode:lr-tb;text-anchor:start;fill:#101010;fill-opacity:1;stroke:none"
         xml:space="preserve"><tspan
           y="919.91663"
           x="44.222229"
           id="tspan9127"
           sodipodi:role="line">No broadband access at the given speed</tspan></text>
    </g>
  </g>
</svg>
