<?xml version="1.0" encoding="UTF-8" standalone="no"?>
<!-- Created with Inkscape (http://www.inkscape.org/) -->
<svg xmlns:rdf="http://www.w3.org/1999/02/22-rdf-syntax-ns#" xmlns="http://www.w3.org/2000/svg" height="180" width="700" version="1.1" xmlns:cc="http://creativecommons.org/ns#" xmlns:dc="http://purl.org/dc/elements/1.1/" viewBox="0 0 700 180">
 <metadata>
  <rdf:RDF>
   <cc:Work rdf:about="">
    <dc:format>image/svg+xml</dc:format>
    <dc:type rdf:resource="http://purl.org/dc/dcmitype/StillImage"/>
    <dc:title/>
   </cc:Work>
  </rdf:RDF>
 </metadata>
 <g transform="translate(0,-900)">
  <g transform="matrix(.38808 0 0 .38808 623.85 941.43)"></g>
  <g transform="translate(0,-42)">
   <g transform="translate(-20,4)">
    <path d="m81.716 961.79 1.6903 0.0273 1.6888 0.0803 1.6842 0.13341 1.6797 0.18646 1.6736 0.23952 1.6645 0.29409 1.6554 0.34412 1.6418 0.3987 1.6296 0.44872 1.6145 0.50026 1.5978 0.5518 1.5796 0.60183 1.5584 0.65186 1.5387 0.70037 1.5159 0.74736 1.4902 0.79739 1.4644 0.84286 1.4386 0.88835 1.4083 0.93534 1.378 0.97778 1.3462 1.0218 1.3143 1.0627 1.2795 1.1051 1.2431 1.1445 1.2067 1.1824 1.1703 1.2218 1.1294 1.2567 1.0885 1.2916 1.0475 1.3264 1.0066 1.3583 0.96111 1.3901 0.91715 1.4204 0.87318 1.4477 0.82468 1.4735 0.77919 1.5008 0.73069 1.5235 0.68218 1.5463 0.63366 1.5675 0.58212 1.5872 0.5321 1.6039 0.48207 1.6205 0.43053 1.6342 0.37747 1.6478 0.32593 1.6585 0.27287 1.6675 0.21981 1.6751 0.16676 1.6827 0.1137 1.6858 0.0606 1.6887 0.008 1.6903-0.047 1.6903-0.10005 1.6872-0.15463 1.6827-0.20616 1.6782-0.25923 1.669-0.31228 1.6615-0.36535 1.6509-0.41688 1.6372-0.46843 1.6236-0.51997 1.6084-0.56999 1.5918-0.62003 1.572-0.67004 1.5523-0.71856 1.5296-0.76707 1.5053-0.81406 1.4826-0.85955 1.4538-0.90653 1.4265-0.9505 1.3977-0.99446 1.3674-1.0369 1.3341-1.0794 1.3006-1.1203 1.2674-1.1582 1.2294-1.1976 1.193-1.234 1.1537-1.2704 1.1157-1.3052 1.0733-1.3386 1.0324-1.3704 0.9884-1.4023 0.9459-1.4295 0.9005-1.4583 0.855-1.4841 0.808-1.5099 0.761-1.5311 0.7125-1.5554 0.664-1.5736 0.6139-1.5933 0.5655-1.6114 0.5124-1.6251 0.4623-1.6402 0.4108-1.6509 0.3593-1.663 0.3062-1.6706 0.2532-1.6782 0.2001-1.6842 0.1471-1.6872 0.094-1.6903 0.039-1.6888-0.012-1.6903-0.067-1.6857-0.1213-1.6812-0.1728-1.6751-0.2259-1.666-0.2805-1.6569-0.332-1.6463-0.3835-1.6327-0.4366-1.619-0.4881-1.6024-0.5382-1.5842-0.5897-1.5645-0.6382-1.5432-0.6882-1.522-0.7368-1.4962-0.7837-1.472-0.8323-1.4447-0.8777-1.4159-0.9217-1.3856-0.9672-1.3553-1.0111-1.3219-1.0536-1.2886-1.093-1.2522-1.1354-1.2173-1.1734-1.1779-1.2112-1.14-1.2477-1.0991-1.284-1.0581-1.3173-1.0172-1.3507-0.97324-1.3826-0.92776-1.4113-0.8838-1.4417-0.83832-1.4674-0.78981-1.4947-0.74281-1.5175-0.69431-1.5402-0.64579-1.5629-0.59576-1.5812-0.54574-1.6008-0.4942-1.616-0.44266-1.6312-0.39111-1.6433-0.33957-1.6569-0.28651-1.6645-0.23345-1.6751-0.1804-1.6797-0.12734-1.6857-0.07428-1.6888-0.01971-1.6903 0.03334-1.6887 0.08641-1.6888 0.13947-1.6842 0.19404-1.6797 0.24558-1.6721 0.30016-1.6629 0.3517-1.6524 0.40324-1.6418 0.4563-1.6281 0.50633-1.6115 0.55787-1.5963 0.60638-1.5766 0.65792-1.5568 0.70643-1.5357 0.75494-1.5129 0.80193-1.4872 0.84893-1.4629 0.89441-1.4341 0.93989-1.4038 0.98233-1.375 1.0263-1.3431 1.0687-1.3098 1.1097-1.2749 1.1491-1.2385 1.1885-1.2037 1.2249-1.1642 1.2613-1.1248 1.2961-1.0839 1.331-1.043 1.3613-1.0005 1.3947-0.95656 1.422-0.91109 1.4523-0.86712 1.478-0.82012 1.5023-0.77314 1.5266-0.72462 1.5493-0.67611 20.59 49.271z" fill="#dc2828"/>
    <path d="m61.126 965.92 1.7858-0.70946 1.81-0.64276 1.8328-0.57909 1.8525-0.51239 1.8692-0.44569 1.8828-0.37747 1.8964-0.31077 1.9071-0.24103 1.9131-0.17282 1.9192-0.10309 1.9207-0.0349v53.401z" fill="#c2defa"/>
    <text style="font-variant-ligatures:normal;letter-spacing:0px;font-variant-numeric:normal;word-spacing:0px;font-variant-caps:normal;font-feature-settings:normal" xml:space="preserve" font-size="20px" line-height="1.25" y="956.72223" x="94.581123" font-family="Arial" fill="#101010"><tspan x="94.581123" y="956.72223">93.7%</tspan></text>
    <text style="font-variant-ligatures:normal;letter-spacing:0px;font-variant-numeric:normal;word-spacing:0px;font-variant-caps:normal;font-feature-settings:normal" xml:space="preserve" font-size="20px" line-height="1.25" y="1038.7927" x="49.598263" font-family="Arial" fill="#ffffff"><tspan x="49.598263" y="1038.7927">1 Gbps</tspan></text>
   </g>
   <g transform="translate(-4.2766 4)">
    <path d="m257.91 961.79 1.807 0.0303 1.804 0.0925 1.801 0.1516 1.7934 0.21374 1.7858 0.27439 1.7752 0.33351 1.763 0.39414 1.7494 0.45479 1.7312 0.51239 1.7145 0.56999 1.6933 0.62912 1.6721 0.68521 1.6478 0.7413-22.738 48.318z" fill="#dc2828"/>
    <path d="m280.64 966.87 1.5144 0.74129 1.4902 0.78981 1.4644 0.8368 1.4371 0.88228 1.4098 0.92624 1.3795 0.97173 1.3462 1.0142 1.3158 1.0566 1.281 1.096 1.2461 1.137 1.2082 1.1764 1.1718 1.2143 1.1324 1.2491 1.0915 1.2855 1.0521 1.3189 1.0096 1.3507 0.96566 1.3825 0.92169 1.4129 0.87622 1.4402 0.83073 1.469 0.78375 1.4932 0.73675 1.5174 0.68824 1.5387 0.63973 1.5614 0.5897 1.5796 0.53968 1.5994 0.48813 1.6129 0.43811 1.6297 0.38505 1.6417 0.33351 1.6539 0.28197 1.663 0.2289 1.6706 0.17586 1.6766 0.12278 1.6827 0.0697 1.6858 0.0152 1.6857-0.0364 1.6857-0.091 1.6843-0.1425 1.6811-0.19707 1.6752-0.24861 1.6675-0.30168 1.66-0.35321 1.6493-0.40627 1.6372-0.45782 1.6236-0.50784 1.6069-0.55939 1.5918-0.60789 1.5735-0.65944 1.5523-0.70643 1.5311-0.75494 1.5084-0.80194 1.4841-0.84893 1.4568-0.8944 1.4311-0.93837 1.4007-0.98385 1.3704-1.0248 1.3386-1.0672 1.3068-1.1082 1.2703-1.1476 1.2371-1.187 1.1991-1.2234 1.1612-1.2598 1.1218-1.2931 1.0808-1.328 1.04-1.3598 0.9975-1.3916 0.955-1.4189 0.9096-1.4492 0.8641-1.475 0.8186-1.4993 0.7716-1.5235 0.7231-1.5463 0.6746-1.566 0.6261-1.5842 0.5761-1.6039 0.526-1.6175 0.4745-1.6327 0.4244-1.6448 0.3715-1.6569 0.3198-1.6645 0.2668-1.6736 0.2153-1.6782 0.1607-1.6827 0.1091-1.6857 0.055h-1.6872l-1.6857-0.052-1.6842-0.1046-1.6782-0.1577-1.6736-0.2107-1.666-0.2638-1.6569-0.3153-1.6463-0.3684-1.6327-0.4184-1.6206-0.4714-1.6039-0.523-1.5857-0.5715-1.5675-0.6231-1.5478-0.67-1.525-0.7201-1.5023-0.7686-1.4765-0.8141-1.4492-0.861-1.4235-0.9066-1.3932-0.9505-1.3613-0.9944-1.331-1.0369-1.2961-1.0794-1.2628-1.1188-1.2264-1.1581-1.1885-1.1961-1.1506-1.2325-1.1112-1.2688-1.0702-1.3037-1.0293-1.3371-0.98537-1.3674-0.94292-1.3992-0.89744-1.428-0.85196-1.4553-0.80497-1.4826-0.75948-1.5054-0.71098-1.5296-0.66095-1.5523-0.61245-1.5705-0.56241-1.5902-0.51239-1.6069-0.46237-1.6221-0.4093-1.6372-0.35777-1.6479-0.30622-1.6584-0.25164-1.6675-0.20162-1.6752-0.14705-1.6796-0.094-1.6842-0.0409-1.6858 0.0121-1.6872 0.0652-1.6842 0.11975-1.6827 0.17131-1.6782 0.22436-1.6721 0.27741-1.663 0.33048-1.6539 0.38202-1.6433 0.43356-1.6296 0.4851-1.616 0.53513-1.5993 0.58516-1.5811 0.63669-1.563 0.68369-1.5402 0.73372-1.519 0.78072-1.4962 0.82618-1.469 0.87319-1.4432 0.91866-1.4144 0.96263-1.3856 1.0066-1.3537 1.0475-1.3219 1.09-1.287 1.1294-1.2522 1.1688-1.2158 1.2052-1.1794 1.2431-1.14 1.2795-1.1006 1.3113-1.0596 1.3462-1.0172 1.3765-0.97475 1.4068-0.92927 1.4356-0.88532 1.4629-0.83983 1.4871-0.79436 1.5129-0.74584 1.5357-0.69734 1.5569-0.64883 1.5766-0.59879 1.5948-0.54878 1.6114-0.49874 1.6266-0.44721 1.6387-0.39566 1.6524-0.34412 1.66-0.29106 1.6706-0.23952 1.6766-0.18646 1.6812-0.1334 1.6842-0.0788 1.6857-0.0273v53.401z" fill="#c2defa"/>
    <text style="font-variant-ligatures:normal;letter-spacing:0px;font-variant-numeric:normal;word-spacing:0px;font-variant-caps:normal;font-feature-settings:normal" xml:space="preserve" font-size="20px" line-height="1.25" y="956.72223" x="271.96301" font-family="Arial" fill="#101010"><tspan x="271.96301" y="956.72223">7.0%</tspan></text>
    <text style="font-variant-ligatures:normal;letter-spacing:0px;font-variant-numeric:normal;word-spacing:0px;font-variant-caps:normal;font-feature-settings:normal" xml:space="preserve" font-size="20px" line-height="1.25" y="1037.5278" x="221.08923" font-family="Arial" fill="#101010"><tspan x="221.08923" y="1037.5278">25 Mbps</tspan></text>
   </g>
   <g transform="translate(9.247 4)">
    <path d="m434.09 961.79 2.3482 0.0515 2.3436 0.15463 2.3346 0.25771-7.0264 52.937z" fill="#dc2828"/>
    <path d="m441.12 962.25 1.6751 0.25013 1.6645 0.30167 1.6554 0.35473 1.6448 0.40779 1.6296 0.45933 1.613 0.51088 1.5978 0.5609 1.5781 0.61244 1.5599 0.66095 1.5357 0.71098 1.5144 0.75949 1.4887 0.80648 1.4614 0.85348 1.4341 0.89896 1.4053 0.94443 1.375 0.9884 1.3431 1.0324 1.3083 1.0733 1.2749 1.1142 1.2385 1.1536 1.2022 1.193 1.1627 1.231 1.1233 1.2673 1.0824 1.3022 1.0399 1.334 0.99901 1.3689 0.95353 1.3977 0.90957 1.4295 0.86258 1.4553 0.81709 1.4841 0.7701 1.5068 0.72159 1.5326 0.67157 1.5538 0.62305 1.5736 0.57303 1.5948 0.52148 1.6099 0.46994 1.6266 0.41841 1.6403 0.36685 1.6539 0.31381 1.6629 0.26074 1.6736 0.20768 1.6797 0.15463 1.6857 0.10005 1.6903 0.047 1.6933-0.006 1.6918-0.0606 1.6933-0.11369 1.6888-0.16676 1.6842-0.21981 1.6797-0.27439 1.6706-0.32592 1.6614-0.37899 1.6494-0.43205 1.6372-0.48206 1.6236-0.53514 1.6069-0.58364 1.5887-0.63517 1.569-0.68521 1.5493-0.73221 1.5266-0.78071 1.5008-0.82922 1.478-0.8747 1.4492-0.92018 1.4205-0.96414 1.3916-1.0081 1.3598-1.0506 1.328-1.093 1.2931-1.1339 1.2582-1.1718 1.2219-1.2097 1.1839-1.2476 1.1446-1.284 1.1051-1.3174 1.0627-1.3492 1.0217-1.3825 0.9778-1.4129 0.9338-1.4417 0.8884-1.469 0.8413-1.4947 0.7959-1.519 0.7474-1.5417 0.6988-1.5629 0.6504-1.5842 0.5988-1.6008 0.5487-1.619 0.4988-1.6327 0.4472-1.6463 0.3941-1.6584 0.3426-1.6675 0.2896-1.6766 0.2365-1.6842 0.1834-1.6872 0.1288-1.6918 0.076-1.6933 0.023-1.6918-0.03-1.6918-0.085-1.6872-0.1395-1.6827-0.191-1.6751-0.2456-1.666-0.2971-1.6569-0.3517-1.6448-0.4032-1.6296-0.4548-1.616-0.5064-1.5993-0.5563-1.5796-0.6079-1.5599-0.6579-1.5387-0.7065-1.5159-0.7564-1.4902-0.8019-1.4644-0.8505-1.4371-0.8944-1.4083-0.9414-1.3765-0.9854-1.3446-1.0278-1.3128-1.0702-1.2764-1.1112-1.2416-1.1506-1.2052-1.19-1.1658-1.228-1.1264-1.2643-1.0869-1.2991-1.043-1.3325-1.002-1.3659-0.95807-1.3962-0.9126-1.425-0.86712-1.4538-0.82013-1.4811-0.77313-1.5068-0.72614-1.5296-0.67611-1.5523-0.62609-1.5736-0.57757-1.5917-0.52603-1.6084-0.4745-1.6251-0.42143-1.6403-0.37141-1.6524-0.31834-1.663-0.2653-1.672-0.21071-1.6797-0.15918-1.6857-0.1046-1.6888-0.0515-1.6933 0.002-1.6933 0.0561-1.6918 0.10915-1.6888 0.16373-1.6857 0.21526-1.6797 0.26984-1.6721 0.3229-1.6615 0.37443-1.6508 0.42598-1.6388 0.47904-1.6235 0.53058-1.6085 0.58061-1.5902 0.63064-1.572 0.68065-1.5493 0.72918-1.5281 0.77616-1.5053 0.82467-1.478 0.87167-1.4523 0.91564-1.4235 0.9611-1.3932 1.0051-1.3628 1.0475-1.331 1.09-1.2961 1.1294-1.2598 1.1688-1.2249 1.2082-1.187 1.2446-1.1491 1.2795-1.1066 1.3143-1.0672 1.3492-1.0248 1.3795-0.98233 1.4098-0.93685 1.4386-0.89138 1.4674-0.8459 1.4917-0.7989 1.5175-0.75191 1.5402-0.70188 1.5629-0.65489 1.5811-0.60335 1.5993-0.55332 1.6175-0.50178 1.6327-0.45175 1.6448-0.39869 1.6569-0.34564 1.6675-0.29409 1.6766-0.24104 1.6827-0.18798 1.6872-0.1334 1.6918-0.0803 1.6918-0.0273v53.401z" fill="#c2defa"/>
    <text style="font-variant-ligatures:normal;letter-spacing:0px;font-variant-numeric:normal;word-spacing:0px;font-variant-caps:normal;font-feature-settings:normal" xml:space="preserve" font-size="20px" line-height="1.25" y="956.78473" x="440.45428" font-family="Arial" fill="#101010"><tspan x="440.45428" y="956.78473">2.1%</tspan></text>
    <text style="font-variant-ligatures:normal;letter-spacing:0px;font-variant-numeric:normal;word-spacing:0px;font-variant-caps:normal;font-feature-settings:normal" xml:space="preserve" font-size="20px" line-height="1.25" y="1038.0189" x="397.07242" font-family="Arial" fill="#101010"><tspan x="397.07242" y="1038.0189">10 Mbps</tspan></text>
   </g>
   <g transform="translate(20 4)">
    <path d="m610.28 961.79 2.3482 0.0515-2.3482 53.349z" fill="#dc2828"/>
    <path d="m612.63 961.84 1.6888 0.10157 1.6842 0.15463 1.6782 0.20768 1.6706 0.26074 1.6615 0.3138 1.6509 0.36535 1.6387 0.4184 1.6251 0.46994 1.6084 0.52149 1.5917 0.57151 1.5736 0.62154 1.5523 0.67156 1.5296 0.72007 1.5068 0.76859 1.4811 0.81558 1.4553 0.86106 1.4265 0.90805 1.3977 0.95201 1.3674 0.99749 1.334 1.0384 1.3007 1.0809 1.2658 1.1218 1.2294 1.1597 1.193 1.1991 1.1536 1.237 1.1142 1.2719 1.0733 1.3067 1.0308 1.3416 0.9884 1.3719 0.94443 1.4022 0.90047 1.4326 0.85348 1.4599 0.80648 1.4856 0.75949 1.5114 0.7125 1.5341 0.66095 1.5554 0.61396 1.5765 0.56241 1.5948 0.51239 1.613 0.45933 1.6266 0.40931 1.6402 0.35625 1.6539 0.3047 1.663 0.25165 1.6736 0.19707 1.6782 0.14553 1.6857 0.091 1.6888 0.0379 1.6903-0.0152 1.6918-0.0697 1.6887-0.12279 1.6873-0.17585 1.6827-0.22891 1.6751-0.28196 1.6675-0.33503 1.657-0.38657 1.6463-0.43962 1.6342-0.48965 1.6175-0.54119 1.6023-0.59274 1.5842-0.64124 1.5645-0.69127 1.5432-0.73979 1.522-0.78829 1.4962-0.83377 1.4705-0.88076 1.4447-0.92625 1.4144-0.96868 1.3856-1.0142 1.3537-1.0566 1.3219-1.096 1.287-1.1385 1.2507-1.1764 1.2143-1.2143 1.1779-1.2506 1.1384-1.287 1.0976-1.3204 1.0566-1.3537 1.0142-1.3841 0.9702-1.4144 0.9262-1.4432 0.8823-1.472 0.8338-1.4962 0.7883-1.5205 0.7413-1.5432 0.6912-1.5644 0.6428-1.5826 0.5927-1.6024 0.5412-1.619 0.4912-1.6327 0.4396-1.6463 0.3881-1.6569 0.3365-1.6675 0.282-1.6751 0.2304-1.6827 0.1759-1.6857 0.1243-1.6903 0.07-1.6903 0.017-1.6918-0.038-1.6888-0.091-1.6842-0.144-1.6797-0.1971-1.6721-0.2501-1.6645-0.3032-1.6539-0.3562-1.6402-0.4078-1.6281-0.4609-1.6114-0.5108-1.5948-0.5609-1.5766-0.6125-1.5569-0.6625-1.5341-0.7109-1.5114-0.758-1.4871-0.8065-1.4599-0.8535-1.4326-0.8989-1.4038-0.9429-1.3719-0.9884-1.3416-1.0309-1.3067-1.0733-1.2734-1.1127-1.237-1.1536-1.1991-1.1915-1.1612-1.2295-1.1218-1.2658-1.0824-1.3007-1.0384-1.3325-0.99749-1.3674-0.95353-1.3962-0.90805-1.4265-0.86258-1.4553-0.81557-1.4811-0.7701-1.5053-0.72008-1.5311-0.67156-1.5508-0.62306-1.5736-0.57302-1.5902-0.52149-1.6084-0.46994-1.6251-0.4184-1.6387-0.36686-1.6509-0.31532-1.6615-0.26074-1.6705-0.2092-1.6782-0.15463-1.6842-0.10157-1.6888-0.0485-1.6903 0.005-1.6902 0.0591-1.6903 0.11218-1.6873 0.16524-1.6842 0.21981-1.6766 0.27136-1.6691 0.32441-1.6599 0.37747-1.6479 0.42901-1.6357 0.48056-1.622 0.53058-1.6054 0.58212-1.5872 0.63215-1.569 0.68218-1.5478 0.73068-1.525 0.77769-1.5023 0.82467-1.4765 0.87167-1.4492 0.91714-1.4204 0.96263-1.3916 1.0051-1.3598 1.0475-1.3264 1.0884-1.2946 1.1309-1.2582 1.1688-1.2218 1.2067-1.184 1.2446-1.1461 1.2795-1.1066 1.3143-1.0642 1.3462-1.0218 1.3795-0.9793 1.4083-0.93534 1.4386-0.88986 1.4644-0.84438 1.4917-0.79739 1.516-0.74888 1.5387-0.70188 1.5614-0.65186 1.5796-0.60335 1.5993-0.5518 1.6145-0.50026 1.6312-0.45024 1.6433-0.39869 1.6554-0.34564 1.666-0.29257 1.6736-0.24104 1.6812-0.18646 1.6857-0.13341 1.6888-0.0803 1.6903-0.0273v53.401z" fill="#c2defa"/>
    <text style="font-variant-ligatures:normal;letter-spacing:0px;font-variant-numeric:normal;word-spacing:0px;font-variant-caps:normal;font-feature-settings:normal" xml:space="preserve" font-size="20px" line-height="1.25" y="956.72223" x="609.12524" font-family="Arial" fill="#101010"><tspan x="609.12524" y="956.72223">0.7%</tspan></text>
    <text style="font-variant-ligatures:normal;letter-spacing:0px;font-variant-numeric:normal;word-spacing:0px;font-variant-caps:normal;font-feature-settings:normal" xml:space="preserve" font-size="20px" line-height="1.25" y="1036.0547" x="578.02045" font-family="Arial" fill="#101010"><tspan x="578.02045" y="1036.0547">3 Mbps</tspan></text>
   </g>
  </g>
  <g transform="translate(282,152)">
   <rect opacity="0.99" height="18" width="18" y="904" x="22" fill="#dc2828"/>
   <text style="font-variant-ligatures:normal;letter-spacing:0px;font-variant-numeric:normal;word-spacing:0px;font-variant-caps:normal;font-feature-settings:normal" xml:space="preserve" font-size="20px" line-height="1.25" y="919.91663" x="44.222229" font-family="Arial" fill="#101010"><tspan y="919.91663" x="44.222229">No broadband access at the given speed</tspan></text>
  </g>
 </g>
</svg>
