<?xml version="1.0" encoding="UTF-8" standalone="no"?>
<!-- Created with Inkscape (http://www.inkscape.org/) -->
<svg xmlns:rdf="http://www.w3.org/1999/02/22-rdf-syntax-ns#" xmlns="http://www.w3.org/2000/svg" height="210" width="700" version="1.1" xmlns:cc="http://creativecommons.org/ns#" xmlns:dc="http://purl.org/dc/elements/1.1/" viewBox="0 0 700 210">
 <metadata>
  <rdf:RDF>
   <cc:Work rdf:about="">
    <dc:format>image/svg+xml</dc:format>
    <dc:type rdf:resource="http://purl.org/dc/dcmitype/StillImage"/>
    <dc:title/>
   </cc:Work>
  </rdf:RDF>
 </metadata>
 <text font-size="20px" xml:space="preserve" style="font-variant-ligatures:normal;letter-spacing:0px;font-variant-numeric:normal;word-spacing:0px;font-variant-caps:normal;font-feature-settings:normal" line-height="1.25" y="129.52783" x="216.81264" font-family="Arial" fill="#101010"><tspan y="129.52783" x="216.81264"/></text>
 <text font-size="20px" xml:space="preserve" style="font-variant-ligatures:normal;letter-spacing:0px;font-variant-numeric:normal;word-spacing:0px;font-variant-caps:normal;font-feature-settings:normal" y="129.52783" x="216.81264" font-family="Arial" line-height="1.25" fill="#101010"><tspan y="129.52783" x="216.81264"/></text>
 <g transform="translate(-25.037 10)">
  <rect opacity="0.99" height="18" width="18" y="176" x="368" fill="#dc2828"/>
  <text font-size="20px" xml:space="preserve" style="font-variant-ligatures:normal;letter-spacing:0px;font-variant-numeric:normal;word-spacing:0px;font-variant-caps:normal;font-feature-settings:normal" line-height="1.25" y="191.91663" x="390.22223" font-family="Arial" fill="#101010"><tspan y="191.91663" x="390.22223">No broadband access at 25 Mbps</tspan></text>
 </g>
 <g transform="translate(0,-7)">
  <g transform="translate(0,5)">
   <g transform="matrix(.29107 0 0 .29107 21.215 -79.899)">
    <path d="m139.14 356.23 5.9583 0.0989 5.9531 0.29167 5.9427 0.47916 5.9167 0.67709 5.8958 0.86979 5.8646 1.0573 5.8281 1.25 5.7865 1.4375 5.7292 1.625 5.6823 1.8073 5.6146 1.9948 5.5469 2.1771 5.474 2.349 5.3958 2.5312 5.3125 2.7083 5.2188 2.875 5.125 3.0417 5.0208 3.2083 4.9167 3.3698 4.8021 3.526 4.6875 3.6823 4.5625 3.8281 4.4375 3.9792 4.3073 4.1198 4.1667 4.2604 4.0313 4.3906 3.8854 4.5156 3.7344 4.6458 3.5833 4.7604 3.4271 4.875 3.2656 4.9844 3.099 5.0885 2.9375 5.1875 2.7656 5.276 2.5937 5.3698 2.4167 5.4427 2.2396 5.526 2.0573 5.5938 1.875 5.6562 1.6927 5.7135 1.5052 5.7656 1.3177 5.8125 1.125 5.849 0.93751 5.8854 0.74479 5.9115 0.55209 5.9375 0.35937 5.9479 0.16667 5.9583-0.0312 5.9583-0.21875 5.9531-0.41666 5.9479-0.60418 5.9271-0.80208 5.9062-181.39-27.562z" fill="#dc2828"/>
    <path d="m320.52 567.26-0.96355 5.7292-1.1458 5.6979-1.3229 5.6562-1.5052 5.6146-1.6771 5.5625-1.8594 5.5104-2.026 5.4427-2.2031 5.3802-2.3698 5.3073-2.5364 5.2292-2.7031 5.1458-2.8594 5.0573-3.0208 4.9635-3.1771 4.8646-3.3333 4.7656-3.4792 4.651-3.625 4.5469-3.7656 4.4219-3.9062 4.3073-4.0365 4.1771-4.1719 4.0469-4.2969 3.9167-4.4167 3.776-4.5365 3.6302-4.6458 3.4896-4.7552 3.3438-4.8594 3.1875-4.9583 3.0312-5.0521 2.8698-5.1406 2.7136-5.224 2.5469-5.3021 2.3802-5.3698 2.2135-5.4427 2.0417-5.5052 1.8698-5.5573 1.6875-5.6146 1.5156-5.651 1.3385-5.6979 1.1563-5.7292 0.97396-5.7552 0.79686-5.7812 0.60939-5.7969 0.42708-5.8073 0.24479-5.8073 0.0625-5.8125-0.12493-5.8021-0.3073-5.7917-0.48958-5.7708-0.67708-5.75-0.85938-5.7188-1.0365-5.6823-1.2188-5.6406-1.401-5.5937-1.5781-5.5365-1.75-5.4844-1.9271-5.4167-2.1042-5.3542-2.2708-5.2708-2.4375-5.1979-2.6042-5.1094-2.7708-5.0208-2.9271-4.9219-3.0885-4.8229-3.2396-4.7187-3.3906-4.6094-3.5417-4.4948-3.6823-4.3802-3.8229-4.25-3.9636-4.125-4.0937-3.9948-4.2188-3.8542-4.349-3.7187-4.4688-3.5781-4.5781-3.4271-4.6927-3.276-4.8021-3.125-4.901-2.9635-4.9948-2.8073-5.0885-2.6458-5.1771-2.4792-5.2552-2.3125-5.3333-2.1406-5.401-1.9687-5.4688-1.7969-5.526-1.6198-5.5833-1.4375-5.6302-1.2656-5.6719-1.0833-5.7083-0.90105-5.7448-0.71353-5.7656-0.53647-5.7865-0.35416-5.8021-0.16667-5.8073 0.0156-5.8125 0.19792-5.8073 0.38541-5.7969 0.56771-5.7864 0.75-5.7604 0.93229-5.7396 1.1146-5.7031 1.2917-5.6667 1.4739-5.6198 1.6511-5.5729 1.8229-5.5156 2-5.4583 2.1719-5.3906 2.3385-5.3177 2.5104-5.2448 2.6719-5.1614 2.8333-5.0729 2.9948-4.9792 3.151-4.8854 3.3073-4.7812 3.4531-4.6719 3.599-4.5625 3.7396-4.4479 3.8854-4.3229 4.0156-4.2031 4.1458-4.0729 4.2761-3.9375 4.3958-3.7969 4.5156-3.6615 4.625-3.5156 4.7396-3.3646 4.8437-3.2136 4.9375-3.0573 5.0365-2.901 5.125-2.7396 5.2083-2.5781 5.2917-2.4114 5.3594-2.2396 5.4323-2.0729 5.4896-1.8958 5.5521-1.724 5.6042-1.5469 5.6458-1.3646 5.6875-1.1875 5.724-1.0104 5.7552-0.82292 5.776-0.64584 5.7917-0.45833 5.8073-0.27604 5.8073-0.0937v183.47z" fill="#c2defa"/>
   </g>
   <text font-size="20px" xml:space="preserve" style="font-variant-ligatures:normal;letter-spacing:0px;font-variant-numeric:normal;word-spacing:0px;font-variant-caps:normal;font-feature-settings:normal" line-height="1.25" y="18.722229" x="74.581123" font-family="Arial" fill="#101010"><tspan y="18.722229" x="74.581123">27.4%</tspan></text>
   <text font-size="20px" xml:space="preserve" style="font-variant-ligatures:normal;letter-spacing:0px;font-variant-numeric:normal;word-spacing:0px;font-variant-caps:normal;font-feature-settings:normal" line-height="1.25" y="154.79272" x="37.643192" font-family="Arial" fill="#101010"><tspan y="154.79272" x="37.643192" fill="#101010">Rural</tspan></text>
  </g>
  <g transform="translate(-13.334 5)">
   <g transform="matrix(.29104 0 0 .29104 129.7 -54.907)">
    <path d="m1077.7 270.41 8.3541 0.19271 8.3386 0.5677 8.3021 0.95314 8.25 1.3229-33.245 180.43z" fill="#dc2828"/>
    <path d="m1110.9 273.45 5.6875 1.1406 5.6458 1.3229 5.6042 1.4948 5.5521 1.6771 5.5 1.849 5.4322 2.0208 5.3698 2.1927 5.2969 2.3594 5.2188 2.5312 5.1406 2.6875 5.0469 2.8542 4.9583 3.0104 4.8594 3.1614 4.7552 3.3177 4.651 3.4688 4.5365 3.6094 4.4218 3.7552 4.3021 3.8906 4.1771 4.026 4.0417 4.151 3.9167 4.2812 3.776 4.401 3.6302 4.5208 3.4896 4.6302 3.3437 4.7396 3.1927 4.8438 3.0313 4.9427 2.8802 5.0365 2.7187 5.1198 2.5521 5.2083 2.3907 5.2864 2.2187 5.3542 2.0469 5.4271 1.8802 5.4844 1.7031 5.5469 1.5261 5.5938 1.3489 5.6406 1.1719 5.6823 0.9896 5.7136 0.8073 5.7396 0.625 5.7656 0.4479 5.7812 0.2604 5.7969 0.078 5.7969-0.1041 5.8021-0.2917 5.7917-0.4687 5.776-0.6563 5.7656-0.8333 5.7396-1.0156 5.7083-1.1979 5.6719-1.375 5.6354-1.5521 5.5885-1.7292 5.5365-1.901 5.4792-2.0729 5.4167-2.2448 5.3438-2.4167 5.276-2.5781 5.1927-2.7396 5.1094-2.901 5.026-3.0573 4.9271-3.2136 4.8281-3.3646 4.724-3.5104 4.6146-3.6562 4.5-3.7969 4.3854-3.9323 4.2656-4.0625 4.1354-4.1927 4.0052-4.3229 3.8698-4.4375 3.7292-4.5521 3.5938-4.6667 3.4427-4.7708 3.2969-4.875 3.1406-4.974 2.9896-5.0625 2.8281-5.1458 2.6667-5.2344 2.5052-5.3073 2.3333-5.3802 2.1667-5.4427 2-5.5052 1.8229-5.5625 1.6458-5.6094 1.474-5.651 1.2917-5.6927 1.1146-5.724 0.9375-5.75 0.75-5.7708 0.57292-5.7865 0.38542-5.7968 0.20833-5.7969 0.0208-5.7969-0.16145-5.7917-0.34375-5.7708-0.53125-5.7604-0.70834-5.7292-0.89062-5.6979-1.0729-5.6614-1.25-5.6198-1.4323-5.573-1.6042-5.5208-1.7864-5.4583-1.9531-5.3959-2.1302-5.3229-2.2969-5.25-2.4636-5.1719-2.625-5.0833-2.7917-4.9948-2.9531-4.8958-3.1042-4.7969-3.2604-4.6927-3.4115-4.5781-3.5521-4.4688-3.7031-4.3438-3.8385-4.224-3.974-4.099-4.1042-3.9635-4.2344-3.8281-4.3542-3.6875-4.474-3.5469-4.5885-3.401-4.7031-3.2448-4.8021-3.0938-4.9063-2.9427-5-2.776-5.0885-2.6198-5.1771-2.4479-5.2552-2.2865-5.3281-2.1146-5.401-1.9427-5.4636-1.7708-5.5208-1.5937-5.5781-1.4167-5.625-1.2396-5.6614-1.0573-5.7031-0.8802-5.7344-0.69792-5.7552-0.51041-5.776-0.33334-5.7917-0.15104-5.7969 0.0364-5.8021 0.21875-5.7917 0.40104-5.7865 0.58333-5.7708 0.76563-5.75 0.94792-5.7188 1.1302-5.6875 1.3073-5.651 1.4844-5.6094 1.6614-5.5521 1.8333-5.5052 2.0104-5.4375 2.1823-5.375 2.349-5.3021 2.5156-5.224 2.6771-5.1458 2.8386-5.0573 3-4.9635 3.1562-4.8646 3.3021-4.7656 3.4583-4.6563 3.599-4.5469 3.7448-4.4323 3.8802-4.3073 4.0156-4.1875 4.1458-4.0521 4.2708-3.9219 4.3906-3.7865 4.5104-3.6458 4.625-3.5 4.7344-3.3542 4.8333-3.2031 4.9375-3.0469 5.026-2.8854 5.1146-2.7292 5.2031-2.5677 5.2813-2.401 5.3489-2.2344 5.4219-2.0625 5.4844-1.8854 5.5364-1.7188 5.5938-1.5364 5.6354-1.3646 5.6771-1.1823 5.7135-1.0052 5.7396-0.8229 5.7656-0.64063 5.7813-0.45313 5.7916-0.27604 5.7969-0.0937v183.47z" fill="#c2defa"/>
   </g>
   <text font-size="20px" xml:space="preserve" style="font-variant-ligatures:normal;letter-spacing:0px;font-variant-numeric:normal;word-spacing:0px;font-variant-caps:normal;font-feature-settings:normal" line-height="1.25" y="18.784729" x="449.70129" font-family="Arial" fill="#101010"><tspan y="18.784729" x="449.70129">2.9%</tspan></text>
   <text font-size="20px" xml:space="preserve" style="font-variant-ligatures:normal;letter-spacing:0px;font-variant-numeric:normal;word-spacing:0px;font-variant-caps:normal;font-feature-settings:normal" line-height="1.25" y="154.79272" x="405.96451" font-family="Arial" fill="#101010"><tspan y="154.79272" x="405.96451">Suburbs</tspan></text>
  </g>
  <g transform="translate(-20,5)">
   <g transform="matrix(.91730 0 0 .91730 -184.39 -56.467)">
    <path d="m888.12 87.492 2.1947 0.04133-2.1947 58.175z" fill="#dc2828"/>
    <path d="m890.31 87.533 1.8427 0.09916 1.8394 0.157 1.8328 0.21485 1.8245 0.27434 1.8163 0.33053 1.8047 0.38837 1.7898 0.44622 1.7766 0.50075 1.7584 0.5586 1.7419 0.61313 1.7188 0.66932 1.6989 0.7222 1.6741 0.77674 1.6493 0.82797 1.6212 0.88086 1.5931 0.93044 1.5634 0.98167 1.5304 1.0312 1.499 1.0792 1.4626 1.1255 1.4246 1.1701 1.3899 1.2163 1.3486 1.2593 1.3089 1.3023 1.2659 1.342 1.223 1.3816 1.18 1.4196 1.1321 1.4576 1.0874 1.4907 1.0379 1.5254 0.98993 1.5584 0.94036 1.5882 0.88912 1.6163 0.83789 1.6444 0.78501 1.6708 0.73212 1.694 0.67758 1.7171 0.62305 1.7369 0.56685 1.7568 0.51232 1.7733 0.45448 1.7882 0.39829 1.8014 0.34044 1.8146 0.28261 1.8229 0.22641 1.8328 0.16692 1.8377 0.10741 1.8427 0.0512 1.8444-0.008 1.846-0.0678 1.8444-0.12395 1.841-0.1851 1.8361-0.24128 1.8295-0.29913 1.8212-0.35697 1.8096-0.41481 1.7997-0.47101 1.7832-0.52719 1.7683-0.58338 1.7518-0.63793 1.732-0.69245 1.7105-0.747 1.6874-0.79988 1.6626-0.85276 1.6378-0.904 1.608-0.95357 1.5799-1.0048 1.5485-1.0527 1.5171-1.099 1.4808-1.1469 1.4461-1.1916 1.4097-1.2362 1.37-1.2775 1.332-1.3205 1.2891-1.3601 1.2478-1.3998 1.2031-1.4361 1.1585-1.4725 1.1122-1.5072 1.0643-1.5403 1.018-1.5717 0.9668-1.6014 0.91721-1.6295 0.86599-1.6576 0.81475-1.6807 0.76022-1.7055 0.70733-1.7254 0.65279-1.7468 0.59826-1.7634 0.54207-1.7799 0.48588-1.7948 0.42969-1.808 0.37184-1.8179 0.314-1.8278 0.25782-1.8361 0.19831-1.8394 0.14048-1.8444 0.0826-1.8444 0.0231-1.846-0.0347-1.8427-0.0926-1.8394-0.15204-1.8328-0.20989-1.8262-0.26773-1.8163-0.32557-1.8063-0.38341-1.7915-0.43961-1.7782-0.49744-1.7601-0.55199-1.7435-0.60817-1.7221-0.66271-1.7006-0.7189-1.6758-0.77013-1.651-0.82467-1.6246-0.87425-1.5965-0.92713-1.5667-0.97671-1.5336-1.0263-1.5006-1.0742-1.4659-1.1222-1.4295-1.1668-1.3915-1.2114-1.3535-1.256-1.3122-1.2973-1.2709-1.3386-1.2279-1.3767-1.1833-1.4163-1.137-1.4543-1.0907-1.4874-1.0428-1.5221-0.99489-1.5551-0.94531-1.5849-0.89408-1.6146-0.84285-1.6427-0.78996-1.6675-0.73708-1.6923-0.68254-1.7138-0.62801-1.7369-0.57181-1.7535-0.51728-1.7716-0.46109-1.7882-0.40324-1.7997-0.34541-1.813-0.28921-1.8229-0.22972-1.8311-0.17352-1.8377-0.11404-1.841-0.0562-1.846 0.003-1.8444 0.0611-1.8444 0.12064-1.8427 0.17683-1.8361 0.23633-1.8311 0.29417-1.8212 0.35202-1.813 0.4082-1.7981 0.46604-1.7865 0.52224-1.77 0.57842-1.7535 0.63297-1.7336 0.6875-1.7121 0.74203-1.689 0.79493-1.6659 0.8478-1.6394 0.89904-1.6113 0.94862-1.5832 0.99985-1.5518 1.0478-1.5188 1.0957-1.4857 1.142-1.4494 1.1882-1.413 1.2312-1.3734 1.2742-1.3353 1.3155-1.294 1.3568-1.251 1.3965-1.2081 1.4328-1.1618 1.4692-1.1172 1.5039-1.0693 1.537-1.0213 1.5684-0.97176 1.5998-0.92218 1.6262-0.87094 1.6543-0.81971 1.6791-0.76517 1.7022-0.71229 1.7254-0.65775 1.7435-0.60322 1.7617-0.54868 1.7799-0.49084 1.7931-0.43464 1.8063-0.3768 1.8179-0.32061 1.8262-0.26277 1.8344-0.20493 1.8394-0.14543 1.8444-0.08759 1.8444-0.02974v58.216z" fill="#c2defa"/>
   </g>
   <text font-size="20px" xml:space="preserve" style="font-variant-ligatures:normal;letter-spacing:0px;font-variant-numeric:normal;word-spacing:0px;font-variant-caps:normal;font-feature-settings:normal" line-height="1.25" y="18.722229" x="629.12524" font-family="Arial" fill="#101010"><tspan y="18.722229" x="629.12524">0.6%</tspan></text>
   <text font-size="20px" xml:space="preserve" style="font-variant-ligatures:normal;letter-spacing:0px;font-variant-numeric:normal;word-spacing:0px;font-variant-caps:normal;font-feature-settings:normal" line-height="1.25" y="150.83765" x="612.56927" font-family="Arial" fill="#101010"><tspan y="150.83765" x="612.56927">City</tspan></text>
  </g>
  <g transform="translate(-3.8937 5)">
   <g transform="matrix(.69328 0 0 .69328 159.37 -213.32)">
    <path d="m135.96 342.01 2.6133 0.0437 2.6111 0.1334 2.6045 0.22305 2.5936 0.30834 2.5848 0.39801 2.5673 0.48548 2.5498 0.57076 2.5302 0.65824 2.5061 0.74352 2.4777 0.82662 2.4492 0.91191 2.4186 0.99501 2.3815 1.0759 2.3443 1.1546 2.3027 1.2356-37.535 67.269z" fill="#dc2828"/>
    <path d="m173.5 351.77 2.1147 1.2246 2.0753 1.2902 2.0338 1.3558 1.9878 1.4193 1.9441 1.4827 1.8938 1.5439 1.8457 1.603 1.7932 1.6598 1.7407 1.7167 1.6839 1.7692 1.627 1.8238 1.5701 1.8741 1.5067 1.9222 1.4477 1.9703 1.3843 2.0141 1.3187 2.0578 1.253 2.0972 1.1853 2.1387 1.1175 2.1715 1.0475 2.2087 0.97751 2.2393 0.90754 2.2699 0.83318 2.2984 0.75883 2.3224 0.68667 2.3443 0.61231 2.3662 0.53577 2.3858 0.45924 2.399 0.38488 2.4143 0.30616 2.4252 0.22961 2.4318 0.15308 2.4405 0.0744 2.4427-0.002 2.4427-0.0809 2.4427-0.15745 2.4383-0.23399 2.4339-0.31053 2.423-0.38926 2.4143-0.46361 2.399-0.54233 2.3836-0.6145 2.364-0.69104 2.3443-0.76539 2.3202-0.83756 2.2962-0.90972 2.2677-0.98189 2.2393-1.054 2.2043-1.1218 2.1715-1.1896 2.1343-1.2574 2.0972-1.323 2.0534-1.3864 2.0119-1.452 1.9682-1.5111 1.9178-1.5723 1.8719-1.6314 1.8194-1.6882 1.767-1.7429 1.7145-1.7954 1.6554-1.8501 1.5986-1.8982 1.5395-1.9441 1.4783-1.9922 1.4171-2.0359 1.3515-2.0775 1.288-2.1168 1.2202-2.1562 1.1525-2.1912 1.0825-2.224 1.0147-2.2546 0.94253-2.283 0.87036-2.3093 0.79819-2.3355 0.72384-2.3552 0.64949-2.3749 0.57295-2.3924 0.4986-2.4077 0.42424-2.4186 0.34552-2.4296 0.26899-2.4361 0.19244-2.4405 0.11371-2.4449 0.0372-2.4427-0.0394-2.4405-0.11809-2.4361-0.19463-2.4296-0.27335-2.4186-0.3499-2.4055-0.42424-2.3924-0.50297-2.3749-0.57733-2.3552-0.65167-2.3334-0.72821-2.3093-0.80039-2.2809-0.87255-2.2546-0.94689-2.2218-1.0169-2.189-1.0847-2.154-1.1568-2.1169-1.2224-2.0753-1.2902-2.0338-1.3536-1.99-1.4192-1.9441-1.4805-1.896-1.5417-1.8457-1.603-1.7954-1.6576-1.7407-1.7167-1.686-1.7691-1.627-1.8216-1.5701-1.8719-1.5111-1.9222-1.4477-1.9682-1.3843-2.0141-1.3208-2.0578-1.2552-2.0972-1.1853-2.1365-1.1197-2.1715-1.0497-2.2065-0.9797-2.2393-0.90754-2.2699-0.83318-2.2962-0.7632-2.3224-0.68666-2.3465-0.61231-2.364-0.53796-2.3858-0.46142-2.399-0.38488-2.4143-0.31053-2.423-0.22961-2.4339-0.15527-2.4383-0.07653-2.4427v-2.4449l0.07872-2.4405 0.15526-2.4405 0.23399-2.4318 0.31053-2.4252 0.38707-2.4121 0.4636-2.399 0.53796-2.3836 0.6145-2.3662 0.68885-2.3443 0.76321-2.3224 0.83756-2.2962 0.90753-2.2678 0.98189-2.2393 1.0497-2.2065 1.1197-2.1715 1.1896-2.1365 1.2552-2.095 1.323-2.0556 1.3865-2.0141 1.4477-1.9682 1.5111-1.92 1.5723-1.8719 1.6292-1.8216 1.686-1.767 1.7429-1.7145 1.7954-1.6576 1.8479-1.6008 1.896-1.5395 1.9463-1.4805 1.99-1.4171 2.0359-1.3536 2.0753-1.288 2.1169-1.2224 2.154-1.1546 2.1912-1.0847 2.2218-1.0147 2.2546-0.94471 2.2831-0.87036 2.3093-0.80038 2.3334-0.72603 2.3552-0.64948 2.3749-0.57733 2.3924-0.4986 2.4077-0.42643 2.4186-0.3477 2.4296-0.26899 2.4361-0.19463 2.4405-0.1159 2.4427-0.0394v77.033z" fill="#c2defa"/>
   </g>
   <text font-size="20px" xml:space="preserve" style="font-variant-ligatures:normal;letter-spacing:0px;font-variant-numeric:normal;word-spacing:0px;font-variant-caps:normal;font-feature-settings:normal" line-height="1.25" y="18.722229" x="267.6864" font-family="Arial" fill="#101010"><tspan y="18.722229" x="267.6864">8.1%</tspan></text>
   <text style="font-variant-ligatures:normal;letter-spacing:0px;font-variant-numeric:normal;text-anchor:middle;word-spacing:0px;font-variant-caps:normal;font-feature-settings:normal;text-align:center" xml:space="preserve" font-size="20px" line-height="1.25" y="154.79272" x="253.5336" font-family="Arial" fill="#000000"><tspan x="253.5336" y="154.79272">Small metro areas</tspan></text>
  </g>
 </g>
</svg>
