<?xml version="1.0" encoding="UTF-8" standalone="no"?>
<svg
   xmlns:dc="http://purl.org/dc/elements/1.1/"
   xmlns:cc="http://creativecommons.org/ns#"
   xmlns:rdf="http://www.w3.org/1999/02/22-rdf-syntax-ns#"
   xmlns:svg="http://www.w3.org/2000/svg"
   xmlns="http://www.w3.org/2000/svg"
   xmlns:sodipodi="http://sodipodi.sourceforge.net/DTD/sodipodi-0.dtd"
   xmlns:inkscape="http://www.inkscape.org/namespaces/inkscape"
   width="1600"
   height="780"
   version="1.1"
   id="svg268"
   sodipodi:docname="palm_bay.svg"
   inkscape:version="0.92.1 r15371"
   inkscape:export-filename="/home/alec/Projects/Brookings/broadband/assets/graphics/blog/palm_bay.png"
   inkscape:export-xdpi="96"
   inkscape:export-ydpi="96">
  <metadata
     id="metadata274">
    <rdf:RDF>
      <cc:Work
         rdf:about="">
        <dc:format>image/svg+xml</dc:format>
        <dc:type
           rdf:resource="http://purl.org/dc/dcmitype/StillImage" />
        <dc:title />
      </cc:Work>
    </rdf:RDF>
  </metadata>
  <defs
     id="defs272" />
  <sodipodi:namedview
     pagecolor="#ffffff"
     bordercolor="#666666"
     borderopacity="1"
     objecttolerance="10"
     gridtolerance="10"
     guidetolerance="10"
     inkscape:pageopacity="0"
     inkscape:pageshadow="2"
     inkscape:window-width="1867"
     inkscape:window-height="1056"
     id="namedview270"
     showgrid="false"
     fit-margin-top="0"
     fit-margin-left="0"
     fit-margin-right="0"
     fit-margin-bottom="0"
     inkscape:zoom="0.45254834"
     inkscape:cx="-202.69639"
     inkscape:cy="689.70791"
     inkscape:window-x="1973"
     inkscape:window-y="24"
     inkscape:window-maximized="1"
     inkscape:current-layer="svg268" />
  <defs
     id="defs23">
    <filter
       id="feBlur"
       width="150%"
       height="150%">
      <feOffset
         result="offsetout"
         in="SourceGraphic"
         dx="6"
         dy="6"
         id="feOffset5" />
      <feColorMatrix
         result="matrixout"
         in="offsetout"
         type="matrix"
         values="0.25 0 0 0 0 0 0.25 0 0 0 0 0 0.25 0 0 0 0 0 1 0"
         id="feColorMatrix7" />
      <feGaussianBlur
         result="blurout"
         in="matrixout"
         stdDeviation="6"
         id="feGaussianBlur9" />
      <feBlend
         in="SourceGraphic"
         in2="blurout"
         mode="normal"
         id="feBlend11" />
    </filter>
    <filter
       id="feBlur2"
       width="150%"
       height="150%">
      <feOffset
         result="offsetout"
         in="SourceGraphic"
         dx="2"
         dy="2"
         id="feOffset14" />
      <feColorMatrix
         result="matrixout"
         in="offsetout"
         type="matrix"
         values="0.25 0 0 0 0 0 0.25 0 0 0 0 0 0.25 0 0 0 0 0 0.5 0"
         id="feColorMatrix16" />
      <feGaussianBlur
         result="blurout"
         in="matrixout"
         stdDeviation="5"
         id="feGaussianBlur18" />
      <feBlend
         in="SourceGraphic"
         in2="blurout"
         mode="normal"
         id="feBlend20" />
    </filter>
  </defs>
  <g
     id="g266"
     transform="matrix(1.1817183,0,0,1.1817183,121.24664,0.618696)">
    <g
       id="g10">
      <g
         id="g6">
        <g
           id="g4">
          <path
             d="m 660.69992,470.57825 0.79426,2.52896 1.21712,3.88421 1.85087,5.3754 0.21135,0.6095 1.21061,3.52089 2.44602,6.24376 1.60743,4.09762 1.54999,3.96793 0.42915,1.09571 1.79637,4.25944 0.0352,0.0778 0.12169,0.29174 2.62292,6.22375 2.32226,5.51054 3.00825,7.13764 3.97886,8.79665 6.06259,13.1068 1.76634,4.01896 1.29525,2.95585 17.95207,36.07335 6.82303,12.97958 3.94945,7.27008 8.02655,16.23227 -0.0653,0.80452 -1.4234,1.08648 -1.11549,1.55933 -1.56359,1.34621 -0.5113,0.1049 -14.05094,0.0486 -7.35955,0.0271 -1.97246,1.80054 -0.2162,0.65557 0.24276,3.3468 -1.47754,5.04952 -1.69019,2.507 -3.29311,3.91095 -1.17904,0.55344 -1.02287,3.97174 -26.86662,-0.0431 -31.16153,-0.0751 -96.48672,-0.86594 -33.97248,0.483 -24.48734,0.2394 -0.3003,-83.88936 0.12331,-1.53077 -0.0139,-9.231 -0.10319,-9.3414 -0.21639,-3.12052 0.31749,-44.11784 -0.35014,-5.74796 0.50775,-5.36415 5.9e-4,-13.13628 3.79949,-0.008 0.89831,-108.30078 0.1096,-3.7559 -0.76098,-63.61347 -0.0539,-0.17521 -1.98052,-1.66312 -1.79828,-2.26624 -1.53026,-2.75248 -1.03658,-3.03081 0.31821,-2.48415 0.5903,-1.30315 -0.24923,-1.65453 -1.09954,-0.99395 -0.4981,-1.07751 -0.80803,-0.0594 -0.67544,0.71917 -0.85886,-0.11792 -0.59377,-0.87007 0.12836,-0.8172 -1.16714,-0.33891 1.34701,-0.93232 0.2138,-0.47976 -0.10557,-1.9333 -1.08145,-0.13769 -0.61587,-0.95444 -1.79488,-1.81887 -1.67581,-0.47591 0.25108,-2.08201 -0.99173,-2.76491 1.51593,-1.2823 0.12577,-1.2194 1.39608,0.22251 0.0527,-1.33627 -1.32458,-1.28629 0.68924,-1.58189 -0.52667,-0.94136 0.807,-1.65957 1.08154,-0.10879 0.12242,-1.14156 -1.03636,-0.33876 -0.15699,-1.4663 -1.69644,-1.33872 -0.19437,-1.98533 -1.66609,-0.24889 -0.75783,-1.55151 -1.23001,-0.48832 -0.23956,0.71322 -0.89011,-0.22836 0.48872,-1.45887 -0.12162,-1.62844 -0.65493,-0.10477 0.23069,-1.16084 -1.30265,-0.76094 0.96697,-0.18019 0.0971,-1.16105 -0.91202,-2.52484 -0.98298,0.28395 -0.62154,-1.11672 1.07193,-0.2384 0.40835,-0.89461 0.96085,-0.39427 -0.66032,-0.70159 1.02788,-0.57582 0.5427,0.68843 0.72645,-1.02389 -4.6e-4,-1.84882 0.58303,-0.81003 -0.42413,-1.31101 1.53968,-0.58809 0.68127,-0.6153 -0.67819,-1.51895 -0.87872,-1.33761 -1.52494,-0.74177 -0.7993,-1.2467 -0.2049,-1.16798 -0.68299,-0.34484 0.57159,-1.69876 0.52689,0.55219 0.2871,-0.66775 1.17674,-0.34857 0.34172,-1.07635 -0.97889,-0.14416 -0.20954,-2.34214 1.22375,0.0667 0.3381,-0.78444 -0.89651,0.0636 -0.20432,-1.57017 2.33462,-1.00211 0.0777,1.27158 0.62959,-0.14181 1.17451,-1.10763 0.56074,-0.92038 0.71432,0.62376 2.16273,-0.90521 0.3798,1.20063 0.70562,0.0334 0.0867,-0.68751 2.14372,-0.99616 0.30393,0.92805 0.99538,-0.36197 0.67798,-0.71919 0.80703,0.26051 0.24558,-0.65488 -1.31035,-1.85698 -0.68439,-1.66158 0.66563,-1.03707 -0.46878,-1.25261 0.15412,-1.2064 -1.06964,-1.09122 -0.0179,-0.91471 -0.5298,-0.72076 -0.89937,-0.0336 -0.0405,-0.6293 1.2309,-0.7379 0.34405,-0.6288 -0.56832,-0.41592 -1.81454,-0.0867 -0.61878,-0.69495 -1.15316,-0.32593 -0.90248,-2.34956 0.10233,-0.46692 2.33708,-1.00231 -5.2e-4,-1.97207 -0.61659,-2.26482 -0.97856,-0.11162 -1.28698,-2.25278 -0.28994,-1.71948 -0.38718,-0.33787 -2.60076,-1.08053 -1.89066,0.0816 -0.7897,1.16002 -0.91248,0.3749 -1.2993,-0.18357 -0.6529,-1.0973 -1.03349,0.54983 -1.01312,-0.30645 -0.52798,0.343 -1.20333,-0.58571 0.13513,-1.07015 -0.69176,-0.57843 0.94902,-1.39324 -0.19829,-1.20041 -1.04514,-0.10544 0.396,-1.2903 -0.33893,-0.64924 -1.1521,-0.74784 -1.41058,-0.0282 -0.20172,-0.99933 1.04854,-0.0762 -0.34851,-0.59737 -2.92765,0.98776 -2.03201,-0.77533 -0.84335,-1.02637 0.24732,-1.60189 -1.22952,-1.83143 -0.33158,-1.16824 -0.58717,-0.30589 -2.66528,-0.0111 -2.03002,-1.74212 -0.51019,1.07595 -0.64212,0.23887 -0.72943,-0.67597 -0.12811,-1.18088 -0.53298,-0.3837 -0.72992,1.35447 -0.74353,0.10243 -0.37679,-0.67535 0.35058,-2.35416 -0.28623,-1.53796 0.30229,-0.28487 1.87083,0.0618 0.55129,0.78593 1.25878,-0.49075 0.38574,-0.77776 -0.40219,-0.68186 -0.8212,-0.83181 0.0383,-1.88118 0.89724,-2.63214 -0.60608,-0.31895 -0.0981,-1.95926 1.23019,-0.58813 -1.37426,-2.31184 1.48707,-0.40603 -0.36302,-1.24616 1.25614,-0.94489 -1.16375,-1.00106 0.018,-1.17412 -0.54968,0.15471 -0.91377,-2.23967 -1.15696,-1.18274 -1.71658,-0.77509 -0.5404,-1.41517 0.54994,-0.31685 -0.58741,-1.7461 -0.72363,-0.19595 -0.58824,-1.27904 -1.02477,-0.4625 0.18555,-0.73269 -0.98282,-0.80625 0.34739,-0.68048 -1.18324,-0.58607 0.28931,-1.86772 0.68461,0.64351 -0.0523,-0.89531 0.56632,-0.6152 0.35841,-1.49134 -0.64619,-0.79912 0.82278,-0.24496 -0.0523,-0.90828 -1.70597,-1.12548 -0.65736,0.0831 0.45953,-1.23166 -1.39867,-0.7422 -0.0229,-1.30393 -0.63277,0.51774 -1.45924,-0.58667 0.61824,-2.84011 -1.09197,-0.0475 -0.3919,0.72578 -1.16205,0.0691 -0.58328,1.16651 -1.29393,-0.67075 -0.40665,-1.42797 -1.91706,-0.19201 -0.67036,0.25163 -2.05915,-0.55565 -0.25446,-1.29145 -1.03924,-0.94928 -0.0198,-1.14824 -0.78636,-0.42331 -0.4188,-0.10468 -0.26073,0.20055 -1.14992,1.85933 -1.2181,-0.42427 -1.83712,-0.41266 -0.87088,-0.95549 -1.04536,0.44531 -0.50201,-1.23365 -1.01318,0.25075 -0.70004,-0.66973 4.0093,-0.043 3.64356,0.2803 4.10131,-0.0109 1.63201,-0.19125 -0.1296,-0.26624 -0.0197,-7.40173 -0.10444,-1.69332 -1.51576,-109.2434094 40.23491,-0.4403752 9.71959,-0.1416958 1.15664,0.040497 22.19261,0.020096 L 519.35313,5 l 0.52285,0.052281 42.78802,0.018515 13.60915,23.126218 36.66356,52.740029 2.28271,2.865884 12.45265,20.775593 3.19693,5.32973 12.6419,16.77026 6.71314,7.88113 5.67681,8.27096 2.31468,7.8141 0.763,3.30746 0.98656,4.25428 1.90915,12.90683 1.87206,8.24914 4.00533,11.31463 4.98995,10.05454 5.67343,13.47187 6.50427,12.83438 -0.0716,2.96471 -0.88347,2.21999 -1.31089,1.35136 -4.05398,1.82259 -1.99333,0.0678 -1.78564,0.78754 -9.01084,4.41072 -3.63456,2.24275 -8.41945,8.52124 -2.72703,4.16132 -1.14755,3.36158 -1.24848,1.30526 -1.29618,1.35719 -3.00655,8.39742 -0.77354,2.57616 -1.19528,3.99076 -0.85204,3.76985 -1.57131,6.94271 -0.22176,0.99274 -1.01813,6.79944 -0.30358,2.02426 -1.12627,10.60097 -0.33959,7.99891 0.0392,4.63176 0.0353,3.76897 -0.0717,12.11798 0.35781,4.79364 0.86724,11.54624 0.80626,10.76135 0.0467,2.24449 3.07794,20.52871 0.84089,6.17488 0.36272,2.65286 0.0289,0.22053 0.42375,3.11987 0.0289,0.21404 0.48799,3.5739 0.0128,0.0973 0.18622,1.35561 1.22987,5.92145 1.25251,6.03818 0.003,0.013 0.90925,3.79398 1.22635,5.10402 1.13685,4.73433 0.63736,2.66549 1.35172,5.63577 0.56702,2.36065 0.47414,1.97154 4.05691,16.89408 0.29811,1.25165 2.9597,10.25243 0.1377,0.43446"
             id="path2"
             inkscape:connector-curvature="0"
             style="fill:#ffffff;stroke:#aaaaaa;filter:url(#feBlur)" />
        </g>
      </g>
      <g
         id="g8" />
    </g>
    <g
       id="g244">
      <g
         id="g240">
        <g
           id="g238">
          <path
             d="m 509.90163,151.83119 1.12403,0.15017 1.90707,1.75311 1.53546,1.9344 1.69837,0.82521 0.88274,0.17584 4.49054,0.0422 0.74619,4.72309 -2.76001,0.0759 -7.20946,-0.0965 -2.36612,-0.009 -0.30376,-1.29767 0.0617,-5.20904 -0.23064,-1.34302 z"
             id="path12"
             inkscape:connector-curvature="0"
             style="fill:#6baed6;stroke:#ffffff;stroke-width:0.5px" />
          <path
             d="m 532.7136,206.12461 4.66848,0.009 10.75445,-0.24209 2.87846,13.51996 0.70398,5.86452 0.46374,1.35593 -0.10171,-0.0325 -7.24791,-0.0867 -4.88281,-0.015 -0.41327,0.0323 -1.72994,-5.35265 -1.83136,-5.41112 z"
             id="path14"
             inkscape:connector-curvature="0"
             style="fill:#084594;stroke:#ffffff;stroke-width:0.5px" />
          <path
             d="m 556.74953,337.00438 15.47672,0.0211 2.10775,1.01844 4.46384,0.0451 0.44574,0.006 0.10507,-10e-6 0.035,-10e-6 1.85621,-0.0132 0.4903,-0.12332 0.62438,2.2704 6.50316,19.41464 -0.81211,0.15588 -1.76456,-0.7132 -3.07341,-0.20704 -2.78371,-1.34893 -0.33123,-0.1297 -1.82171,-0.24633 -6.89818,-0.20082 -3.61146,-0.70073 -2.9172,0.0192 -2.37137,-9.38711 -0.76069,-2.46521 -1.65534,-2.6405 -0.7704,-0.824 -0.88821,-0.72672 -1.63314,-1.168 z"
             id="path16"
             inkscape:connector-curvature="0"
             style="fill:#084594;stroke:#ffffff;stroke-width:0.5px" />
          <path
             d="m 608.57942,448.35397 4.84706,0.0492 -0.007,-6.81142 -0.035,-5.44263 4.31694,-0.009 0.64695,-0.42857 1.86714,2.95687 0.38359,1.43987 0.34364,8.24484 0.13731,4.90413 -2.7617,0.0278 -9.68841,-0.10463 z"
             id="path18"
             inkscape:connector-curvature="0"
             style="fill:#6baed6;stroke:#ffffff;stroke-width:0.5px" />
          <path
             d="m 598.81067,453.2366 9.81907,-0.0563 9.68841,0.10463 0.062,2.24449 1.21676,2.52915 -10.92317,0.15567 -6.5221,-0.0748 1.3111,0.70004 -4.60853,0.0343 -0.65064,-0.0387 0.0686,-4.275 z"
             id="path20"
             inkscape:connector-curvature="0"
             style="fill:#6baed6;stroke:#ffffff;stroke-width:0.5px" />
          <path
             d="m 617.05005,525.75904 11.01349,0.0765 11.13816,0.23688 0.94163,-0.11117 0.17902,3.59364 -0.0123,3.79491 -4.55594,-0.0477 -0.0617,2.41323 -2.59253,-0.0302 -0.42047,4.89805 -1.33153,-0.0832 -3.15468,-0.0429 -0.0421,3.263 -2.01419,-3.34574 -2.86747,-4.71393 -1.04201,-1.66642 z"
             id="path22"
             inkscape:connector-curvature="0"
             style="fill:#6baed6;stroke:#ffffff;stroke-width:0.5px" />
          <path
             d="m 638.32648,419.24442 8.9091,-0.0607 0.61848,0.0902 1.22635,5.10402 1.13685,4.73433 -1.41551,-0.0504 -7.11232,0.0527 0.007,-2.40023 -2.60755,0.13225 -0.009,-6.03298 -0.85428,8e-4 z"
             id="path24"
             inkscape:connector-curvature="0"
             style="fill:#084594;stroke:#ffffff;stroke-width:0.5px" />
          <path
             d="m 592.72237,288.10321 1.15131,-1.47941 0.94159,-0.51277 8.24026,-0.0745 0.77651,0.46024 8.17006,-0.50364 0.64801,9.3216 -9.95642,0.0634 -8.7791,0.10705 -0.81224,-2.78921 0.2916,-3.7626 z"
             id="path26"
             inkscape:connector-curvature="0"
             style="fill:#084594;stroke:#ffffff;stroke-width:0.5px" />
          <path
             d="m 574.86943,506.18891 9.69234,-0.0659 -0.12914,9.76949 -0.47158,4.84588 0.0136,4.87175 -0.1612,9.65919 -9.35148,0.0593 -0.0703,-1.25199 0.22636,-8.38123 -0.12769,-0.12974 0.15304,-4.86527 z"
             id="path28"
             inkscape:connector-curvature="0"
             style="fill:#084594;stroke:#ffffff;stroke-width:0.5px" />
          <path
             d="m 549.6727,293.49354 7.25475,0.0214 3.69102,-0.006 0.92579,0.95375 1.99116,6.33167 -13.88731,0.0684 z"
             id="path30"
             inkscape:connector-curvature="0"
             style="fill:#ef3b2c;stroke:#ffffff;stroke-width:0.5px" />
          <path
             d="m 564.84416,356.27234 2.9172,-0.0192 3.61146,0.70073 -0.0796,1.99803 0.93317,1.99803 -0.18153,4.96263 1.12759,2.91269 -0.006,1.98506 1.10543,3.28244 0.0924,1.64123 -0.28028,1.73206 0.4684,3.00351 -3.35783,0.026 -5.03833,-19.84426 z"
             id="path32"
             inkscape:connector-curvature="0"
             style="fill:#084594;stroke:#ffffff;stroke-width:0.5px" />
          <path
             d="m 617.85573,413.68165 2.1232,5.42181 0.71205,1.79643 3.51288,8.87833 6.18478,15.61608 2.74502,-0.52775 -6.59886,2.23042 -0.63424,0.43512 -0.65001,0.68163 -4.30801,0.13932 -0.34364,-8.24484 -0.38359,-1.43987 -1.86714,-2.95687 -1.61807,-2.56784 -1.73674,-3.94957 -3.95205,-9.72186 -0.1819,-0.38263 -1.25064,-2.1271 -0.56146,-0.91438 0.46167,-0.94736 1.22121,0.84267 1.68591,-0.39665 z"
             id="path34"
             inkscape:connector-curvature="0"
             style="fill:#6baed6;stroke:#ffffff;stroke-width:0.5px" />
          <path
             d="m 618.66852,481.84726 9.77204,0.0578 0.12332,6.65562 -0.0326,3.17867 -0.0569,4.73559 -0.0376,4.8718 -9.89593,-0.0123 0.0639,-4.81991 0.0638,-4.89776 0.016,-4.8588 z"
             id="path36"
             inkscape:connector-curvature="0"
             style="fill:#6baed6;stroke:#ffffff;stroke-width:0.5px" />
          <path
             d="m 643.52122,523.20747 1.51796,-1.48707 0.77101,-1.42794 0.88705,-0.33176 0.57707,-3.67226 4.40459,-3.04072 1.67092,-1.35767 -0.64281,-1.1345 0.29566,-1.0188 0.29881,-1.05124 5.37031,-3.48986 0.6974,1.36791 3.47138,6.80705 2.62718,5.15379 2.32669,4.5573 1.23645,3.13805 -9.22584,-0.0205 -19.66172,-0.23799 0.55009,-2.25801 1.95116,0.72464 z"
             id="path38"
             inkscape:connector-curvature="0"
             style="fill:#6baed6;stroke:#ffffff;stroke-width:0.5px" />
          <path
             d="m 659.36919,506.56356 9.4369,-0.14192 5.04221,-0.18217 0.12169,0.29174 2.62292,6.22375 2.32226,5.51054 -2.67806,0.004 -10.76936,0.25494 -2.62718,-5.15379 z"
             id="path40"
             inkscape:connector-curvature="0"
             style="fill:#6baed6;stroke:#ffffff;stroke-width:0.5px" />
          <path
             d="m 626.40581,407.65561 6.43945,1.96687 1.46287,-0.0142 0.30889,-0.29868 2.75999,-0.0284 2.8e-4,0.30489 2.41901,-0.002 5.8928,-0.15506 1.25251,6.03818 0.003,0.013 0.90925,3.79398 -0.61848,-0.0902 -8.9091,0.0607 -0.80963,7.5e-4 -1.55223,0.11818 -4.23948,-0.0677 z"
             id="path42"
             inkscape:connector-curvature="0"
             style="fill:#084594;stroke:#ffffff;stroke-width:0.5px" />
          <path
             d="m 637.59919,273.62269 0.0151,-0.83036 1.64452,-0.0599 4.29736,-0.14692 -1.19528,3.99076 -0.85204,3.76985 -0.67766,-0.0318 -3.22893,0.11982 z"
             id="path44"
             inkscape:connector-curvature="0"
             style="fill:#6baed6;stroke:#ffffff;stroke-width:0.5px" />
          <path
             d="m 578.52332,261.76833 6.12228,-0.9674 1.1863,-2.2e-4 -0.37163,2.51057 0.56048,3.56131 0.23288,3.3927 1.84845,1.62786 -0.30195,1.06395 -0.092,1.01201 0.51576,1.88763 0.22373,4.56038 -4.64153,0.15013 -0.0665,2.02398 -0.78931,-2.05628 -0.0155,2.40023 -1.78161,0.0132 -0.51559,-1.62819 -0.32832,-5.44264 -1.18733,-7.64166 -0.58575,-5.24152 z"
             id="path46"
             inkscape:connector-curvature="0"
             style="fill:#084594;stroke:#ffffff;stroke-width:0.5px" />
          <path
             d="m 598.69152,535.27175 16.27978,0.14774 2.57024,0.14111 5.72784,0.0999 2.86747,4.71393 2.01419,3.34574 -0.26126,4.80707 -0.0556,6.51947 -15.42842,-0.17771 -7.27185,-0.0481 -6.45432,-0.18541 0.10817,-18.07282 z"
             id="path48"
             inkscape:connector-curvature="0"
             style="fill:#084594;stroke:#ffffff;stroke-width:0.5px" />
          <path
             d="m 598.96457,505.95032 0.0335,-4.17767 4.98954,3.67609 0.68646,0.68731 3.07895,4.82487 9.23949,14.70085 -1.40781,-0.0121 -1.39185,-0.0121 -15.75079,-0.0767 0.3537,-10.20422 0.11611,-5.24805 0.0531,-3.03595 0.003,-0.77195 z"
             id="path50"
             inkscape:connector-curvature="0"
             style="fill:#084594;stroke:#ffffff;stroke-width:0.5px" />
          <path
             d="m 500.97562,132.23201 3.64442,-3.20104 2.51837,-1.03558 5.16826,-0.18359 0.0195,3.2565 -1.09007,1.36135 2.01593,0.0147 0.0245,4.88474 1.53032,0.001 -0.0328,5.26744 -2.62584,-0.0216 -2.62883,-0.2293 -2.97295,-2.36396 -1.37148,-0.15047 -0.69916,4.02778 0.23585,2.42637 -0.79588,2.13348 -1.80513,1.50972 -0.76735,-1.12301 -1.74011,-0.0342 -1.4814,-1.47408 0.0493,-4.64466 -2.5751,0.0362 0.0742,-4.0089 0.37298,-1.40729 0.97628,-1.49746 z"
             id="path52"
             inkscape:connector-curvature="0"
             style="fill:#6baed6;stroke:#ffffff;stroke-width:0.5px" />
          <path
             d="m 549.64038,284.92407 6.31852,-0.0372 0.99908,-0.38252 0.59504,-0.48641 1.4957,-2.17938 0.83956,1.90087 0.14229,5.22213 0.55005,2.41978 0.96364,3.08152 -0.92579,-0.95375 -3.69102,0.006 -7.25475,-0.0214 z"
             id="path54"
             inkscape:connector-curvature="0"
             style="fill:#9ecae1;stroke:#ffffff;stroke-width:0.5px" />
          <path
             d="m 620.94254,448.35304 4.30801,-0.13932 0.65001,-0.68163 0.63424,-0.43512 6.59886,-2.23042 0.74326,7.68005 1.06396,2.28251 1.34521,2.87257 0.80207,1.71835 1.63941,3.5015 -14.33357,-0.007 -2.38128,-2.74881 -0.61344,-1.55646 -0.31943,-5.35161 z"
             id="path56"
             inkscape:connector-curvature="0"
             style="fill:#6baed6;stroke:#ffffff;stroke-width:0.5px" />
          <path
             d="m 628.44056,481.90506 2.93177,-0.17104 1.94636,0.30324 2.58104,0.0561 -0.005,1.36877 0.34257,1.32954 3.53004,-1.90398 0.75602,-0.098 1.2136,1.28326 5.33242,-1.88666 0.29798,1.20628 4.43786,8.55807 -8.92788,-0.0619 -0.90619,9e-4 -3.68856,-0.0224 -2.25903,0.054 -7.49211,-0.18179 0.0326,-3.17867 z"
             id="path58"
             inkscape:connector-curvature="0"
             style="fill:#9ecae1;stroke:#ffffff;stroke-width:0.5px" />
          <path
             d="m 618.54087,501.33442 9.89593,0.0123 9.67283,0.29658 -0.0816,4.89778 -4.89902,-0.19024 -4.74248,-0.0156 -0.0744,2.76353 0.0207,1.97853 -7.43016,-0.0334 -2.34266,0.0145 0.0501,-6.42869 -0.0132,-0.6422 -0.0297,-1.48552 z"
             id="path60"
             inkscape:connector-curvature="0"
             style="fill:#6baed6;stroke:#ffffff;stroke-width:0.5px" />
          <path
             d="m 644.26017,402.05435 0.0128,0.0973 0.18622,1.35561 1.22987,5.92145 -5.8928,0.15506 -2.41901,0.002 -2.8e-4,-0.30489 -0.0543,-7.0579 3.57221,-0.16555 z"
             id="path62"
             inkscape:connector-curvature="0"
             style="fill:#084594;stroke:#ffffff;stroke-width:0.5px" />
          <path
             d="m 612.99657,272.6097 13.36025,0.17916 6.49943,0.79264 4.74294,0.0412 0.003,6.81145 3.22893,-0.11982 0.67766,0.0318 -1.57131,6.94271 -2.33853,-0.0302 0.004,-2.19913 -2.40202,0.0476 -0.0445,0.0649 -23.09483,-0.0481 0.40935,-1.87501 z"
             id="path64"
             inkscape:connector-curvature="0"
             style="fill:#6baed6;stroke:#ffffff;stroke-width:0.5px" />
          <path
             d="m 561.59308,265.06982 0.006,0.25299 0.941,3.54857 3.94312,14.18769 3.53114,9.76975 2.94653,7.90131 -7.09638,0.0646 -0.97699,0.36967 -1.35241,-0.36991 -1.99116,-6.33167 -0.96364,-3.08152 -0.55005,-2.41978 -0.14229,-5.22213 -0.83956,-1.90087 -5.35511,-9.16095 -2.99151,-6.02734 z"
             id="path66"
             inkscape:connector-curvature="0"
             style="fill:#6baed6;stroke:#ffffff;stroke-width:0.5px" />
          <path
             d="m 512.14821,142.57612 2.62584,0.0216 0.0328,-5.26744 0.0236,-1.73201 3.34308,0.048 1.25453,7.95402 2.11174,13.11183 -4.49054,-0.0422 -0.88274,-0.17584 -1.69837,-0.82521 -1.53546,-1.9344 -1.90707,-1.75311 -1.12403,-0.15017 0.0988,-0.40211 2.08155,-1.84702 0.20562,-2.85412 z"
             id="path68"
             inkscape:connector-curvature="0"
             style="fill:#6baed6;stroke:#ffffff;stroke-width:0.5px" />
          <path
             d="m 556.93919,313.28109 8.6795,-0.11547 0.16206,2.99057 2.52085,0.49968 0.80206,1.025 -0.0798,5.72162 -3.5e-4,8.48513 -12.2156,0.12171 0.0346,-13.11692 z"
             id="path70"
             inkscape:connector-curvature="0"
             style="fill:#084594;stroke:#ffffff;stroke-width:0.5px" />
          <path
             d="m 598.61989,429.16314 16.37347,0.0309 1.73674,3.94957 1.61807,2.56784 -0.64695,0.42857 -4.31694,0.009 -4.10648,0.0607 -0.74282,0.11066 -9.8518,0.0952 z"
             id="path72"
             inkscape:connector-curvature="0"
             style="fill:#084594;stroke:#ffffff;stroke-width:0.5px" />
          <path
             d="m 611.60813,315.50967 9.8193,0.0912 3.24353,0.21174 2.76075,1.49642 0.70173,1.87423 2.43837,0.17318 1.19785,1.20561 1.39132,0.34263 0.11194,0.62266 0.90081,-0.0332 0.55909,13.14238 0.23918,0.4474 0.28992,0.2203 0.21844,5.74089 0.36812,2.17934 0.52849,-0.0848 0.60404,9.42521 -0.72926,6.6e-4 -24.15157,0.15395 -0.89162,-11.44924 -0.0575,-6.19515 z"
             id="path74"
             inkscape:connector-curvature="0"
             style="fill:#084594;stroke:#ffffff;stroke-width:0.5px" />
          <path
             d="m 598.44208,525.56079 15.75079,0.0767 1.39185,0.0121 1.40781,0.0121 0.0575,0.0973 5.17732,8.23505 1.04201,1.66642 -5.72784,-0.0999 -2.57024,-0.14111 -16.27978,-0.14774 -0.50764,-0.006 0.0659,-3.10081 0.27069,-1.82944 z"
             id="path76"
             inkscape:connector-curvature="0"
             style="fill:#6baed6;stroke:#ffffff;stroke-width:0.5px" />
          <path
             d="m 571.37282,356.95383 6.89818,0.20082 1.82171,0.24633 0.33123,0.1297 2.78371,1.34893 3.07341,0.20704 1.76456,0.7132 0.81211,-0.15588 7.40913,21.96965 -1.79662,0.63633 -0.65668,-1.29721 -2.07724,-0.2978 -3.1189,0.0397 -4.69278,-0.49856 -5.29796,0.098 -4.07462,0.17541 -0.4684,-3.00351 0.28028,-1.73206 -0.0924,-1.64123 -1.10543,-3.28244 0.006,-1.98506 -1.12759,-2.91269 0.18153,-4.96263 -0.93317,-1.99803 z"
             id="path78"
             inkscape:connector-curvature="0"
             style="fill:#084594;stroke:#ffffff;stroke-width:0.5px" />
          <path
             d="m 465.07398,5.1789554 8.08166,33.6527786 0.14502,2.873909 -1.40311,5.68707 -1.7906,5.952458 -0.017,0.823817 0.32443,1.53787 11.82209,32.976181 -7.06908,0.126938 0.13561,12.254103 0.0285,2.39374 -4.7284,0.006 -0.16209,2.38698 0.24357,5.00831 -2.40907,0.12626 0.0572,2.1408 0.29101,0.67507 -0.31636,1.47209 1.93483,-1.32055 7.02624,0.56111 3.59593,0.089 0.55512,7.70728 0.59111,11.98227 0.98593,1.14295 -0.11424,2.49088 -0.43021,1.26443 -1.09967,0.86787 -0.21535,2.04962 0.19182,-1.0247 0.86195,1.32444 4.06389,0.26451 3.53396,0.004 3.1466,-0.003 -0.13593,19.40258 -0.0133,3.35379 -0.0259,3.31485 -0.0745,12.66913 -0.0247,5.07285 0.40156,1.75195 0.65317,1.20732 6.67221,9.51058 7.06444,10.00982 -1.80496,-0.22871 -10.59259,-0.0885 -0.57864,0.20047 -1.30539,2.12633 -9.11811,15.24692 -2.29652,3.5715 -1.17133,1.12077 -1.29126,0.40702 -2.30176,0.0554 -3.00128,0.11918 -7.80478,-0.0112 -0.2049,-1.16798 -0.68299,-0.34484 0.57159,-1.69876 0.52689,0.55219 0.2871,-0.66775 1.17674,-0.34857 0.34172,-1.07635 -0.97889,-0.14416 -0.20954,-2.34214 1.22375,0.0667 0.3381,-0.78444 -0.89651,0.0636 -0.20432,-1.57017 2.33462,-1.00211 0.0777,1.27158 0.62959,-0.14181 1.17451,-1.10763 0.56074,-0.92038 0.71432,0.62376 2.16273,-0.90521 0.3798,1.20063 0.70562,0.0334 0.0867,-0.68751 2.14372,-0.99616 0.30393,0.92805 0.99538,-0.36197 0.67798,-0.71919 0.80703,0.26051 0.24558,-0.65488 -1.31035,-1.85698 -0.68439,-1.66158 0.66563,-1.03707 -0.46878,-1.25261 0.15412,-1.2064 -1.06964,-1.09122 -0.0179,-0.91471 -0.5298,-0.72076 -0.89937,-0.0336 -0.0405,-0.6293 1.2309,-0.7379 0.34405,-0.6288 -0.56832,-0.41592 -1.81454,-0.0867 -0.61878,-0.69495 -1.15316,-0.32593 -0.90248,-2.34956 0.10233,-0.46692 2.33708,-1.00231 -5.2e-4,-1.97207 -0.61659,-2.26482 -0.97856,-0.11162 -1.28698,-2.25278 -0.28994,-1.71948 -0.38718,-0.33787 -2.60076,-1.08053 -1.89066,0.0816 -0.7897,1.16002 -0.91248,0.3749 -1.2993,-0.18357 -0.6529,-1.0973 -1.03349,0.54983 -1.01312,-0.30645 -0.52798,0.343 -1.20333,-0.58571 0.13513,-1.07015 -0.69176,-0.57843 0.94902,-1.39324 -0.19829,-1.20041 -1.04514,-0.10544 0.396,-1.2903 -0.33893,-0.64924 -1.1521,-0.74784 -1.41058,-0.0282 -0.20172,-0.99933 1.04854,-0.0762 -0.34851,-0.59737 -2.92765,0.98776 -2.03201,-0.77533 -0.84335,-1.02637 0.24732,-1.60189 -1.22952,-1.83143 -0.33158,-1.16824 -0.58717,-0.30589 -2.66528,-0.0111 -2.03002,-1.74212 -0.51019,1.07595 -0.64212,0.23887 -0.72943,-0.67597 -0.12811,-1.18088 -0.53298,-0.3837 -0.72992,1.35447 -0.74353,0.10243 -0.37679,-0.67535 0.35058,-2.35416 -0.28623,-1.53796 0.30229,-0.28487 1.87083,0.0618 0.55129,0.78593 1.25878,-0.49075 0.38574,-0.77776 -0.40219,-0.68186 -0.8212,-0.83181 0.0383,-1.88118 0.89724,-2.63214 -0.60608,-0.31895 -0.0981,-1.95926 1.23019,-0.58813 -1.37426,-2.31184 1.48707,-0.40603 -0.36302,-1.24616 1.25614,-0.94489 -1.16375,-1.00106 0.018,-1.17412 -0.54968,0.15471 -0.91377,-2.23967 -1.15696,-1.18274 -1.71658,-0.77509 -0.5404,-1.41517 0.54994,-0.31685 -0.58741,-1.7461 -0.72363,-0.19595 -0.58824,-1.27904 -1.02477,-0.4625 0.18555,-0.73269 -0.98282,-0.80625 0.34739,-0.68048 -1.18324,-0.58607 0.28931,-1.86772 0.68461,0.64351 -0.0523,-0.89531 0.56632,-0.6152 0.35841,-1.49134 -0.64619,-0.79912 0.82278,-0.24496 -0.0523,-0.90828 -1.70597,-1.12548 -0.65736,0.0831 0.45953,-1.23166 -1.39867,-0.7422 -0.0229,-1.30393 -0.63277,0.51774 -1.45924,-0.58667 0.61824,-2.84011 -1.09197,-0.0475 -0.3919,0.72578 -1.16205,0.0691 -0.58328,1.16651 -1.29393,-0.67075 -0.40665,-1.42797 -1.91706,-0.19201 -0.67036,0.25163 -2.05915,-0.55565 -0.25446,-1.29145 -1.03924,-0.94928 -0.0198,-1.14824 -0.78636,-0.42331 -0.4188,-0.10468 -0.26073,0.20055 -1.14992,1.85933 -1.2181,-0.42427 -1.83712,-0.41266 -0.87088,-0.95549 -1.04536,0.44531 -0.50201,-1.23365 -1.01318,0.25075 -0.70004,-0.66973 4.0093,-0.043 3.64356,0.2803 4.10131,-0.0109 1.63201,-0.19125 -0.1296,-0.26624 -0.0197,-7.40173 -0.10444,-1.69332 -1.51576,-109.2434094 z"
             id="path80"
             inkscape:connector-curvature="0"
             style="fill:#6baed6;stroke:#ffffff;stroke-width:0.5px" />
          <path
             d="m 584.56177,506.12298 4.87329,-0.0205 9.52951,-0.15217 0.003,0.3503 -0.003,0.77195 -0.0531,3.03595 -0.11611,5.24805 -0.3537,10.20422 0.0784,4.77441 -0.27069,1.82944 -0.0659,3.10081 -14.37044,0.004 0.1612,-9.65919 -0.0136,-4.87175 0.47158,-4.84588 z"
             id="path82"
             inkscape:connector-curvature="0"
             style="fill:#084594;stroke:#ffffff;stroke-width:0.5px" />
          <path
             d="m 627.80729,561.46238 -0.009,4.24249 -0.1733,19.4351 -0.13312,9.60079 -3.30084,-0.017 -5.07897,-7.12563 -8.39639,-11.34713 -2.37537,-3.5601 2.93436,-2.34335 1.34412,-1.18787 -1.32648,-1.57559 3.66494,-3.27155 1.60247,-1.4865 0.71863,-0.007 3.02942,2.2944 6.15859,-3.60471 z"
             id="path84"
             inkscape:connector-curvature="0"
             style="fill:#084594;stroke:#ffffff;stroke-width:0.5px" />
          <path
             d="m 658.97853,153.95216 0.98656,4.25428 1.90915,12.90683 1.87206,8.24914 4.00533,11.31463 4.98995,10.05454 5.67343,13.47187 6.50427,12.83438 -0.0716,2.96471 -0.88347,2.21999 -1.31089,1.35136 -4.05398,1.82259 -1.99333,0.0678 -1.78564,0.78754 -9.01084,4.41072 -3.63456,2.24275 -8.41945,8.52124 -2.72703,4.16132 -1.14755,3.36158 -1.24848,1.30526 -6.92986,0.29905 -19.78859,0.15289 -4.61798,0.029 -0.12433,-0.44753 2.68736,-0.15096 1.54777,-1.57742 0.1223,-2.49113 1.29316,-1.67458 0.9793,-0.25371 4.76056,-0.15932 1.65006,-0.53976 4.04867,0.4312 0.67702,-0.39631 0.76044,0.44045 2.78555,-0.27501 0.36281,-3.0882 0.65256,-2.64735 -0.30752,-2.38695 1.27203,-3.16692 0.0735,-2.93223 0.82513,-1.57068 -0.39889,-1.5111 1.26941,-2.35606 0.59547,-2.23214 0.0105,-2.19913 -1.20001,-1.52977 -0.86803,-0.1743 -0.2944,-2.01072 1.28626,-1.20784 0.43748,-1.21352 -0.54214,-1.78341 1.53522,-0.0923 1.47664,-1.42217 0.13764,-2.16682 -0.7055,-2.99631 1.74341,-1.47436 -0.23265,-0.60306 0.76756,-1.52526 1.21237,-1.61007 0.13578,-0.82401 -0.66593,-1.61457 1.09489,-1.43481 0.28454,-1.37556 0.59326,-0.9283 -0.16363,-1.44644 -1.0497,-0.95247 0.39369,-0.33126 1.19535,0.46578 -0.033,-1.12223 0.55868,-3.44524 -0.10242,-0.67454 -1.9,0.17072 0.96238,-0.39675 1.04127,-0.87689 0.29082,-1.37558 -0.0198,-3.51596 -0.16605,-0.75232 -0.39841,1.75843 0.0771,-2.1473 -5.03503,-5.34 -0.88932,0.24092 -0.28361,-0.84952 -0.54566,0.779 -1.21956,0.42286 -0.71949,-1.52375 -0.90206,0.19548 -0.0689,-2.29635 0.74947,-0.27966 0.0678,-2.18621 -0.49832,0.45458 0.63993,-1.83646 2.72861,-0.16488 1.28568,-0.85111 0.44855,-2.44609 -0.0635,-3.07479 1.03159,-3.73113 -1.08048,-0.5373 0.17547,-2.31605 1.40962,-0.5399 -0.16309,-1.05722 -1.29931,-0.30353 0.98575,-1.89525 0.44936,-1.5379 0.75855,-0.44841 0.83603,-2.22595 -0.55932,-0.36267 0.35403,-1.53132 z"
             id="path86"
             inkscape:connector-curvature="0"
             style="fill:#a50f15;stroke:#ffffff;stroke-width:0.5px" />
          <path
             d="m 465.07398,5.1789554 9.71959,-0.1416958 -0.62855,3.0868889 0.16998,0.8370417 6.0149,22.2515898 2.1998,5.276668 0.5328,4.924242 2.00078,5.094715 0.96064,5.346403 0.0642,4.631751 0.25545,1.180932 1.04099,4.665362 2.05091,9.136045 7.6695,18.39257 0.8593,3.555765 -3.24917,0.04195 -0.0409,-3.204613 -0.62194,0.06419 -7.71114,-1.669548 -4.12462,0.03383 -11.82209,-32.976181 -0.32443,-1.53787 0.017,-0.823817 1.7906,-5.952458 1.40311,-5.68707 -0.14502,-2.873909 z"
             id="path88"
             inkscape:connector-curvature="0"
             style="fill:#6baed6;stroke:#ffffff;stroke-width:0.5px" />
          <path
             d="m 503.69944,109.19283 2.07945,-0.74404 -2.80353,-5.28956 0.15866,0.007 7.40676,-0.0451 0.96149,0.0657 0.1777,0.0131 7.59409,-0.18857 -0.12299,7.49887 1.582,2.34297 2.23184,3.6797 -8.25862,-0.16187 -0.71121,0.29134 2.97137,3.45345 -3.04396,-0.0738 -1.35189,-0.35141 -1.60809,-1.39607 1.06419,2.72544 0.27997,6.79214 -5.16826,0.18359 -2.51837,1.03558 -3.64442,3.20104 -0.71343,-0.87646 -0.39873,-1.2524 0.27778,-1.56958 -0.0606,-6.00055 0.57115,0.20817 0.88243,0.0268 -0.0357,-2.41969 3.05686,-0.14623 0.29942,-1.10251 1.0158,-0.0899 -0.79277,-4.17838 -0.8818,-3.89952 -0.0601,-0.23359 z"
             id="path90"
             inkscape:connector-curvature="0"
             style="fill:#9ecae1;stroke:#ffffff;stroke-width:0.5px" />
          <path
             d="m 503.69944,109.19283 0.43653,1.5054 0.0601,0.23359 0.8818,3.89952 0.79277,4.17838 -1.0158,0.0899 -0.29942,1.10251 -3.05686,0.14623 0.0357,2.41969 -0.88243,-0.0268 -0.57115,-0.20817 0.0606,6.00055 -0.27778,1.56958 0.39873,1.2524 0.71343,0.87646 -3.95625,3.54434 -0.97628,1.49746 -0.37298,1.40729 -0.0742,4.0089 -2.66077,-0.0159 0.0944,-13.52533 0.0363,-6.98647 -0.0473,-3.18518 -2.02161,-5.82761 -1.78741,-4.99056 6.91215,0.0142 3.63387,-0.0676 2.07933,-0.60769 0.95009,2.03136 z"
             id="path92"
             inkscape:connector-curvature="0"
             style="fill:#6baed6;stroke:#ffffff;stroke-width:0.5px" />
          <path
             d="m 516.96645,120.11548 0.21952,7.58349 0.13779,2.45219 0.84981,5.49516 -3.34308,-0.048 -0.0236,1.73201 -1.53032,-0.001 -0.0245,-4.88474 -2.01593,-0.0147 1.09007,-1.36135 -0.0195,-3.2565 -0.27997,-6.79214 -1.06419,-2.72544 1.60809,1.39607 1.35189,0.35141 z"
             id="path94"
             inkscape:connector-curvature="0"
             style="fill:#9ecae1;stroke:#ffffff;stroke-width:0.5px" />
          <path
             d="m 495.7227,163.64326 1.37041,-1.43218 1.08682,-0.58269 2.59513,-0.3282 9.17538,0.10591 2.36612,0.009 7.20946,0.0965 2.76001,-0.0759 15.5782,0.21676 0.82153,2.27086 6.35424,11.47178 2.28182,6.29976 -12.92033,-0.32352 -2.65269,-0.0339 -0.5909,-0.007 -8.13598,-0.083 -1.22613,-0.21493 -4.65625,-1.36572 -2.05494,-0.58545 -3.01413,-0.76795 -1.96577,-0.74769 -1.10484,-0.74698 -1.24391,-1.49962 -6.40727,-9.57448 -0.94561,-0.89616 -2.0732,-0.80651 -1.82301,-0.0733 z"
             id="path96"
             inkscape:connector-curvature="0"
             style="fill:#6baed6;stroke:#ffffff;stroke-width:0.5px" />
          <path
             d="m 492.78599,165.43048 2.32616,-1.10674 0.61055,-0.68048 0.78416,0.32519 1.82301,0.0733 2.0732,0.80651 0.94561,0.89616 6.40727,9.57448 1.24391,1.49962 1.10484,0.74698 1.96577,0.74769 3.01413,0.76795 2.05494,0.58545 4.65625,1.36572 1.22613,0.21493 8.13598,0.083 0.5909,0.007 2.65269,0.0339 12.92033,0.32352 0.68355,7.882 -0.0543,1.02494 0.18551,15.29007 -10.75445,0.24209 -4.66848,-0.009 -12.02877,0.0313 0.12217,2.45869 -4.93595,0.42442 -8.41882,-0.072 -7.06444,-10.00982 -6.67221,-9.51058 -0.65317,-1.20732 -0.40156,-1.75195 0.0247,-5.07285 0.0745,-12.66913 z"
             id="path98"
             inkscape:connector-curvature="0"
             style="fill:#084594;stroke:#ffffff;stroke-width:0.5px" />
          <path
             d="m 507.45223,208.96698 8.41882,0.072 4.93595,-0.42442 -0.15513,12.39668 -0.12442,9.41266 0.5615,1.68056 3.5681,3.16167 1.0013,0.27312 2.02522,0.0207 1.49396,0.51988 0.81614,1.62226 0.0653,7.8559 -9.38349,-0.006 -9.57115,0.0508 -0.59956,-16.35445 0.0473,-3.22404 0.0307,-2.47155 0.083,-7.75847 -0.36676,-2.23188 -0.85978,-1.76523 z"
             id="path100"
             inkscape:connector-curvature="0"
             style="fill:#084594;stroke:#ffffff;stroke-width:0.5px" />
          <path
             d="m 520.65187,221.01125 6.11897,-0.0477 1.12554,-0.47934 1.44704,-1.25112 2.10137,-0.57613 0.94763,-0.74548 0.4359,-0.80415 3.14739,-1.34116 1.83136,5.41112 1.72994,5.35265 0.24068,9.06256 0.72994,2.95195 2.36591,6.79298 -0.41337,0.006 -2.56293,0.10268 -8.862,0.002 -0.97625,0.10971 -0.0653,-7.8559 -0.81614,-1.62226 -1.49396,-0.51988 -2.02522,-0.0207 -1.0013,-0.27312 -3.5681,-3.16167 -0.5615,-1.68056 z"
             id="path102"
             inkscape:connector-curvature="0"
             style="fill:#6baed6;stroke:#ffffff;stroke-width:0.5px" />
          <path
             d="m 549.6715,266.8186 1.0306,-0.16835 2.99151,6.02734 5.35511,9.16095 -1.4957,2.17938 -0.59504,0.48641 -0.99908,0.38252 -6.31852,0.0372 0.0114,-6.08489 -0.007,-7.26555 -0.047,-2.28347 -0.58468,-1.84252 z"
             id="path104"
             inkscape:connector-curvature="0"
             style="fill:#9ecae1;stroke:#ffffff;stroke-width:0.5px" />
          <path
             d="m 530.28879,276.67676 10.04621,-7.39011 0.81439,-0.2267 3.38125,-0.10889 0.0425,-2.86728 3.52709,0.86405 1.57132,-0.12923 -0.65861,0.62904 0.58468,1.84252 0.047,2.28347 0.007,7.26555 -0.0114,6.08489 0.0323,8.56947 -9.73672,0.15197 -9.5744,0.021 -0.2004,-0.10391 z"
             id="path106"
             inkscape:connector-curvature="0"
             style="fill:#6baed6;stroke:#ffffff;stroke-width:0.5px" />
          <path
             d="m 520.52054,283.97484 6.29913,-4.68589 3.46912,-2.61219 -0.12761,16.88584 0.2004,0.10391 9.5744,-0.021 9.73672,-0.15197 -0.0246,7.36933 -0.004,2.53646 -9.86529,-0.0297 -4.78625,-0.0153 -3.21104,0.0891 6.21319,10.75885 0.37845,0.66186 -1.79845,0.25213 -0.95832,0.54443 -2.04373,0.56979 -3.65353,-0.79997 -0.98678,0.13564 -1.21203,-1.04517 -0.70994,0.25255 -0.93507,-1.06448 -11.60395,-0.74146 -0.51544,-0.2145 -5.29198,-1.08785 -7.28434,-4.14562 -6.17904,-4.29437 -0.0857,-0.18822 10.288,-2.86342 0.16063,-5.04033 0.29001,-0.48626 0.24574,-0.7912 0.0834,-0.71999 1.44738,0.42298 z"
             id="path108"
             inkscape:connector-curvature="0"
             style="fill:#9ecae1;stroke:#ffffff;stroke-width:0.5px" />
          <path
             d="m 598.53163,414.76185 2.36813,-0.13067 0.0647,2.43912 2.21837,-0.20852 0.17433,-2.21866 4.86069,0.0301 0.82942,1.37484 0.56146,0.91438 1.25064,2.1271 0.1819,0.38263 3.95205,9.72186 -16.37347,-0.0309 -0.0483,-9.69817 z"
             id="path110"
             inkscape:connector-curvature="0"
             style="fill:#084594;stroke:#ffffff;stroke-width:0.5px" />
          <path
             d="m 594.47024,382.24995 1.79662,-0.63633 7.29773,-2.39011 7.23152,17.31048 7.05962,17.14766 -5.43963,1.86509 -1.68591,0.39665 -1.22121,-0.84267 -0.46167,0.94736 -0.82942,-1.37484 -4.86069,-0.0301 -0.17433,2.21866 -2.21837,0.20852 -0.0647,-2.43912 -2.36813,0.13067 -0.002,-4.54745 -0.01,-9.70468 -0.006,-0.23353 -5.41096,0.13804 -1.83541,0.44813 -1.88942,1.20709 -3.05873,2.81608 -1.72116,-1.33602 -1.86429,-0.006 -0.66612,-0.50589 -0.0643,-3.63925 0.64036,-1.03154 2.91244,-0.57785 0.53208,-0.38284 0.64654,-1.60893 0.89839,-0.89541 1.31265,-0.66847 -0.12764,-0.79789 0.9778,-1.68039 2.87667,-1.92745 1.49902,-5.4042 1.02573,-0.47388 z"
             id="path112"
             inkscape:connector-curvature="0"
             style="fill:#084594;stroke:#ffffff;stroke-width:0.5px" />
          <path
             d="m 598.71815,444.64127 1.1352,0.0839 1.30734,-0.0394 3.34467,-0.53988 1.01103,0.47957 2.47177,1.1016 0.57721,0.0905 0.014,2.53644 0.0503,4.82636 -9.81907,0.0563 -0.0113,-4.72258 z"
             id="path114"
             inkscape:connector-curvature="0"
             style="fill:#6baed6;stroke:#ffffff;stroke-width:0.5px" />
          <path
             d="m 599.32869,481.78595 1.33037,0.006 2.40232,-10e-4 6.42213,-0.0161 -0.10658,9.69819 -0.32674,9.80209 4.75814,0.0947 4.73254,-0.0354 0.0263,1.16765 0.0297,1.48552 0.0132,0.6422 -0.0501,6.42869 -0.99899,-0.0188 -2.70014,-0.0243 -7.10781,-0.0545 -3.07895,-4.82487 -0.68646,-0.68731 -4.98954,-3.67609 0.12232,-5.63079 0.14632,-1.20665 0.0519,-6.19514 0.0182,-2.39373 z"
             id="path116"
             inkscape:connector-curvature="0"
             style="fill:#084594;stroke:#ffffff;stroke-width:0.5px" />
          <path
             d="m 628.3328,511.07737 -0.0207,-1.97853 0.0744,-2.76353 4.74248,0.0156 4.89902,0.19024 -0.10729,4.76807 1.25753,0.0248 -0.0787,4.51504 0.004,0.80439 2.5813,2.30042 0.42206,0.72613 -0.32966,2.3616 1.74407,1.16594 -0.87664,1.22043 -1.95116,-0.72464 -0.55009,2.25801 -0.94163,0.11117 -11.13816,-0.23688 0.0511,-4.08686 0.0657,-5.72809 z"
             id="path118"
             inkscape:connector-curvature="0"
             style="fill:#6baed6;stroke:#ffffff;stroke-width:0.5px" />
          <path
             d="m 627.78515,618.9822 0.2173,-0.0845 18.87218,0.24867 0.7703,-0.0397 20.29453,0.0794 5.23194,-5.00864 7.60093,0.15749 6.86262,0.14491 2.64977,0.0411 7.64562,0.0713 8.64304,0.15939 1.25148,4.27901 1.04327,2.30087 2.26018,6.67068 1.9192,3.78459 -7.35955,0.0271 -1.97246,1.80054 -0.2162,0.65557 0.24276,3.3468 -1.47754,5.04952 -1.69019,2.507 -3.29311,3.91095 -1.17904,0.55344 -1.02287,3.97174 -26.86662,-0.0431 -31.16153,-0.0751 -0.4266,-1.40078 -0.32981,-0.46676 -6.59999,-7.26615 -0.7426,-0.94649 -1.0665,-2.18524 -0.34456,-3.1329 z"
             id="path120"
             inkscape:connector-curvature="0"
             style="fill:#9ecae1;stroke:#ffffff;stroke-width:0.5px" />
          <path
             d="m 642.45419,470.68295 10.62214,-0.0113 0.7846,-0.0852 6.83899,-0.008 0.79426,2.52896 1.21712,3.88421 1.85087,5.3754 -7.05733,-0.20526 -0.0273,1.19365 -10.11035,0.0374 -0.29798,-1.20628 -0.98338,-3.80038 -1.97579,-4.20159 z"
             id="path122"
             inkscape:connector-curvature="0"
             style="fill:#084594;stroke:#ffffff;stroke-width:0.5px" />
          <path
             d="m 635.71329,320.27964 1.2542,0.0573 0.0353,3.76897 -0.0717,12.11798 0.35781,4.79364 0.86724,11.54624 -1.1751,0.001 -0.60404,-9.42521 -0.52849,0.0848 -0.36812,-2.17934 -0.21844,-5.74089 -0.28992,-0.2203 -0.23918,-0.4474 -0.55909,-13.14238 -0.90081,0.0332 0.0329,-2.43269 1.1077,-0.007 -0.0403,1.20015 z"
             id="path124"
             inkscape:connector-curvature="0"
             style="fill:#084594;stroke:#ffffff;stroke-width:0.5px" />
          <path
             d="m 612.65011,295.31474 19.14909,-0.1822 -0.11005,5.37141 2.40906,0.12768 1.45753,0.0701 -0.1422,1.12888 -0.57575,7.47366 -0.18478,3.3994 0.0488,1.22602 0.99319,3.71623 0.0183,2.63375 -1.34008,0.008 0.0403,-1.20015 -1.1077,0.007 -0.0329,2.43269 -0.11194,-0.62266 -1.39132,-0.34263 -1.19785,-1.20561 -2.43837,-0.17318 -0.70173,-1.87423 -2.76075,-1.49642 -3.24353,-0.21174 -9.8193,-0.0912 0.62922,-12.99402 z"
             id="path126"
             inkscape:connector-curvature="0"
             style="fill:#084594;stroke:#ffffff;stroke-width:0.5px" />
          <path
             d="m 621.91403,260.70666 19.78859,-0.15289 6.92986,-0.29905 -1.29618,1.35719 -3.00655,8.39742 -0.77354,2.57616 -4.29736,0.14692 -1.64452,0.0599 0.84569,-7.2858 0.26246,-1.64148 -0.39822,-0.68726 -0.5722,0.32489 -6.39289,0.064 -1.40832,0.83151 -0.64622,-0.69359 -2.07431,-0.73789 -5.29544,0.25043 z"
             id="path128"
             inkscape:connector-curvature="0"
             style="fill:#084594;stroke:#ffffff;stroke-width:0.5px" />
          <path
             d="m 474.79357,5.0372596 1.15664,0.040497 22.19261,0.020096 1.21127,5.5021214 0.72307,2.660358 2.44482,11.691814 0.25153,2.114976 0.34127,1.122566 0.24151,2.666352 1.61844,1.6103 4.66764,20.464006 4.87262,21.372116 -0.64076,-5.22e-4 1.61889,6.5726 3.56136,10.18729 0.39829,2.011259 -21.46854,0.344144 -0.8593,-3.555765 -7.6695,-18.39257 -2.05091,-9.136045 -1.04099,-4.665362 -0.25545,-1.180932 -0.0642,-4.631751 -0.96064,-5.346403 -2.00078,-5.094715 -0.5328,-4.924242 -2.1998,-5.276668 -6.0149,-22.2515896 -0.16998,-0.8370417 z"
             id="path130"
             inkscape:connector-curvature="0"
             style="fill:#9ecae1;stroke:#ffffff;stroke-width:0.5px" />
          <path
             d="m 549.64811,300.86287 13.88731,-0.0684 2.76148,8.80975 0.49321,1.34936 1.66125,2.34843 -0.82752,-0.10384 -2.00515,-0.0326 -8.6795,0.11547 -12.24427,0.15855 -3.61558,-0.1896 -0.4679,0.0582 -2.22822,0.56336 -0.38847,0.33066 -6.21319,-10.75885 3.21104,-0.0891 4.78625,0.0153 9.86529,0.0297 z"
             id="path132"
             inkscape:connector-curvature="0"
             style="fill:#6baed6;stroke:#ffffff;stroke-width:0.5px" />
          <path
             d="m 537.99475,314.20224 0.38847,-0.33066 2.22822,-0.56336 0.4679,-0.0582 3.61558,0.1896 12.24427,-0.15855 -0.0967,5.61132 -0.0346,13.11692 -0.0482,2.23804 -0.0101,2.75701 0.0155,2.05642 -3.78182,-2.6736 -3.12885,-2.74494 -1.30481,-1.54435 -1.44781,-2.15421 -5.76744,-10.0313 -2.96108,-5.0483 z"
             id="path134"
             inkscape:connector-curvature="0"
             style="fill:#084594;stroke:#ffffff;stroke-width:0.5px" />
          <path
             d="m 556.8079,332.00933 12.2156,-0.12171 3.5e-4,-8.48513 0.0798,-5.72162 -0.80206,-1.025 -2.52085,-0.49968 -0.16206,-2.99057 2.00515,0.0326 0.82752,0.10384 4.75203,6.35094 0.56343,1.01847 1.08877,3.49002 0.71631,1.30388 1.77331,2.58824 2.1652,4.23588 1.47756,2.73738 0.74222,2.93207 -0.4903,0.12332 -1.85621,0.0132 -0.035,10e-6 -0.10507,1e-5 -0.44574,-0.006 -4.46384,-0.0451 -2.10775,-1.01844 -15.47672,-0.0211 0.0101,-2.75701 z"
             id="path136"
             inkscape:connector-curvature="0"
             style="fill:#084594;stroke:#ffffff;stroke-width:0.5px" />
          <path
             d="m 578.59692,436.86798 9.79769,-0.0989 0.66317,-0.0131 9.6254,-0.34029 0.0219,7.28497 0.0131,0.94063 0.0812,3.87275 -6.62633,0.30059 -0.41772,0.065 -1.87808,0.64271 -0.77158,0.53862 -2.48041,2.72512 -0.95979,0.56457 -3.79811,0.4677 -2.15581,0.0716 -1.13849,0.0585 0.0504,-6.8244 0.003,-5.63078 z"
             id="path138"
             inkscape:connector-curvature="0"
             style="fill:#6baed6;stroke:#ffffff;stroke-width:0.5px" />
          <path
             d="m 578.54024,410.11526 1.0613,-0.11038 0.38891,0.70056 1.55545,0.84961 0.51977,1.84227 -0.14636,1.84235 1.34895,4.37209 0.58043,1.77088 0.16579,0.17512 4.53023,2.58095 0.3986,0.5578 0.0394,4.69014 2.43558,-0.15631 7.20162,-0.0672 0.0633,7.25253 -9.6254,0.34029 -0.66317,0.0131 -9.79769,0.0989 0.0502,-9.00407 0.008,-16.15932 z"
             id="path140"
             inkscape:connector-curvature="0"
             style="fill:#6baed6;stroke:#ffffff;stroke-width:0.5px" />
          <path
             d="m 598.68318,436.41567 9.8518,-0.0952 0.74282,-0.11066 4.10648,-0.0607 0.035,5.44263 0.007,6.81142 -4.84706,-0.0492 -0.014,-2.53644 -0.57721,-0.0905 -2.47177,-1.1016 -1.01103,-0.47957 -3.34467,0.53988 -1.30734,0.0394 -1.1352,-0.0839 -0.0131,-0.94063 z"
             id="path142"
             inkscape:connector-curvature="0"
             style="fill:#6baed6;stroke:#ffffff;stroke-width:0.5px" />
          <path
             d="m 578.57301,453.94844 1.13849,-0.0585 2.15581,-0.0716 3.79811,-0.4677 0.95979,-0.56457 2.48041,-2.72512 0.77158,-0.53862 1.87808,-0.64271 0.41772,-0.065 6.62633,-0.30059 0.0113,4.72258 -0.53846,1.32356 -0.0686,4.275 0.65064,0.0387 0.13465,10.26897 -0.78468,-0.0127 -0.004,-1.23903 -5.85623,0.24843 -3.03976,0.18892 -6.4879,0.0727 -0.8995,0.007 -3.32369,0.13661 0.003,-0.50599 0.0279,-9.15973 z"
             id="path144"
             inkscape:connector-curvature="0"
             style="fill:#084594;stroke:#ffffff;stroke-width:0.5px" />
          <path
             d="m 609.48351,481.77484 9.18501,0.0724 0.016,4.91069 -0.016,4.8588 -0.0638,4.89776 -0.0639,4.81991 -4.73254,0.0354 -4.75814,-0.0947 0.32674,-9.80209 z"
             id="path146"
             inkscape:connector-curvature="0"
             style="fill:#084594;stroke:#ffffff;stroke-width:0.5px" />
          <path
             d="m 607.75304,510.96092 7.10781,0.0545 2.70014,0.0243 0.99899,0.0188 2.34266,-0.0145 7.43016,0.0334 -0.1525,4.94324 -0.0657,5.72809 -0.0511,4.08686 -11.01349,-0.0765 -0.0575,-0.0973 z"
             id="path148"
             inkscape:connector-curvature="0"
             style="fill:#6baed6;stroke:#ffffff;stroke-width:0.5px" />
          <path
             d="m 638.028,506.5411 0.0816,-4.89778 0.10391,-4.93674 5.50139,0.0985 0.48182,-0.0199 -1.81965,-4.01367 -0.4061,-0.88183 0.90619,-9e-4 8.92788,0.0619 5.49731,10.32101 1.36941,2.92401 -5.37031,3.48986 -0.29881,1.05124 -0.29566,1.0188 0.64281,1.1345 -1.67092,1.35767 -4.40459,3.04072 -0.57707,3.67226 -0.88705,0.33176 -0.77101,1.42794 -1.51796,1.48707 -1.74407,-1.16594 0.32966,-2.3616 -0.42206,-0.72613 -2.5813,-2.30042 -0.004,-0.80439 0.0787,-4.51504 -1.25753,-0.0248 z"
             id="path150"
             inkscape:connector-curvature="0"
             style="fill:#6baed6;stroke:#ffffff;stroke-width:0.5px" />
          <path
             d="m 627.80729,561.46238 0.0123,-0.64222 0.0132,-3.5484 10e-4,-2.22504 0.0556,-6.51947 0.26126,-4.80707 0.0421,-3.263 3.15468,0.0429 1.33153,0.0832 0.42047,-4.89805 2.59253,0.0302 0.0617,-2.41323 4.55594,0.0477 0.0123,-3.79491 -0.17902,-3.59364 19.66172,0.23799 9.22584,0.0205 7.54864,14.42943 3.12922,14.8895 11.72841,25.64385 -7.59253,0.93993 0.574,1.34839 1.02198,1.76933 -57.81608,-0.10021 0.1733,-19.4351 z"
             id="path152"
             inkscape:connector-curvature="0"
             style="fill:#6baed6;stroke:#ffffff;stroke-width:0.5px" />
          <path
             d="m 665.46775,518.5244 10.76936,-0.25494 2.67806,-0.004 3.00825,7.13764 3.97886,8.79665 6.06259,13.1068 1.76634,4.01896 1.29525,2.95585 17.95207,36.07335 6.82303,12.97958 3.94945,7.27008 8.02655,16.23227 -0.0653,0.80452 -1.4234,1.08648 -1.11549,1.55933 -1.56359,1.34621 -0.5113,0.1049 -14.05094,0.0486 -1.9192,-3.78459 -2.26018,-6.67068 -1.04327,-2.30087 -1.25148,-4.27901 -0.9488,-3.15086 -4.35907,-6.80327 0.2098,-0.62313 -7.05881,-16.34765 -2.97934,-6.6441 -11.72841,-25.64385 -3.12922,-14.8895 -7.54864,-14.42943 -1.23645,-3.13805 z"
             id="path154"
             inkscape:connector-curvature="0"
             style="fill:#084594;stroke:#ffffff;stroke-width:0.5px" />
          <path
             d="m 637.58526,434.69085 5.40846,-1.96428 2.58542,-0.15183 4.55864,-0.35516 0.71684,-0.44191 1.35172,5.63577 0.56702,2.36065 0.47414,1.97154 -0.81955,-0.0769 -10.50604,0.19272 -0.71409,0.1499 -1.83279,0.66344 0.10727,-1.20021 0.0487,-2.44567 z"
             id="path156"
             inkscape:connector-curvature="0"
             style="fill:#084594;stroke:#ffffff;stroke-width:0.5px" />
          <path
             d="m 638.32648,419.24442 -0.10054,1.56997 0.85428,-8e-4 0.009,6.03298 2.60755,-0.13225 -0.007,2.40023 7.11232,-0.0527 1.41551,0.0504 0.63736,2.66549 -0.71684,0.44191 -4.55864,0.35516 -2.58542,0.15183 -5.40846,1.96428 -5.86012,-15.39518 4.23948,0.0677 1.55223,-0.11818 z"
             id="path158"
             inkscape:connector-curvature="0"
             style="fill:#084594;stroke:#ffffff;stroke-width:0.5px" />
          <path
             d="m 612.10018,352.71941 24.15157,-0.15395 0.72926,-6.6e-4 1.1751,-10e-4 0.80626,10.76135 0.0467,2.24449 3.07794,20.52871 0.84089,6.17488 -5.7769,-0.0918 -6.69758,0.0837 -0.6117,0.0913 -8.67804,2.21862 -0.45717,-2.19881 -7.53266,-22.32382 -0.58544,-9.99629 z"
             id="path160"
             inkscape:connector-curvature="0"
             style="fill:#084594;stroke:#ffffff;stroke-width:0.5px" />
          <path
             d="m 612.0021,285.99314 0.06,-0.8693 23.09483,0.0481 0.0445,-0.0649 2.40202,-0.0476 -0.004,2.19913 2.33853,0.0302 -0.22176,0.99274 -1.01813,6.79944 -2.53287,-0.0106 -4.36562,0.0622 -19.14909,0.1822 z"
             id="path162"
             inkscape:connector-curvature="0"
             style="fill:#084594;stroke:#ffffff;stroke-width:0.5px" />
          <path
             d="m 613.65765,260.79631 3.6384,-0.0606 4.61798,-0.029 0.0208,2.51049 5.29544,-0.25043 2.07431,0.73789 0.64622,0.69359 1.40832,-0.83151 6.39289,-0.064 0.5722,-0.32489 0.39822,0.68726 -0.26246,1.64148 -0.84569,7.2858 -0.0151,0.83036 -4.74294,-0.0412 -6.49943,-0.79264 -13.36025,-0.17916 0.69766,-9.08883 z"
             id="path164"
             inkscape:connector-curvature="0"
             style="fill:#6baed6;stroke:#ffffff;stroke-width:0.5px" />
          <path
             d="m 593.91459,295.48517 8.7791,-0.10705 9.95642,-0.0634 -0.41276,7.20091 -0.62922,12.99402 -0.45711,19.56535 0.0575,6.19515 -7.21182,0.12038 -1.11637,-4.50804 -3.82724,-17.37738 -3.7107,-17.0403 z"
             id="path166"
             inkscape:connector-curvature="0"
             style="fill:#084594;stroke:#ffffff;stroke-width:0.5px" />
          <path
             d="m 577.43631,312.23804 10.42665,-0.14429 -1.13005,-0.87551 -2.13269,-1.56947 4.84714,-0.0205 -2.47021,-2.30884 -0.44287,-2.43906 -0.98658,-0.14901 0.0728,-2.25103 9.72196,-0.0155 3.7107,17.0403 3.82724,17.37738 1.11637,4.50804 7.21182,-0.12038 0.89162,11.44924 0.48824,7.33663 0.58544,9.99629 7.53266,22.32382 0.45717,2.19881 -0.31818,0.67488 5.24744,11.70541 0.31286,0.70036 5.31933,11.64006 5.86012,15.39518 1.94574,4.33804 -0.0487,2.44567 -0.10727,1.20021 -6.24137,2.19178 -2.74502,0.52775 -6.18478,-15.61608 -3.51288,-8.87833 -0.71205,-1.79643 -2.1232,-5.42181 -7.05962,-17.14766 -7.23152,-17.31048 -5.78397,-13.85411 -10.59674,-28.94887 -1.55452,-4.24225 z"
             id="path168"
             inkscape:connector-curvature="0"
             style="fill:#084594;stroke:#ffffff;stroke-width:0.5px" />
          <path
             d="m 569.708,535.31565 4.75396,0.013 9.35148,-0.0593 14.37044,-0.004 0.50764,0.006 0.0963,1.29088 -0.10817,18.07282 -0.0149,11.49494 0.004,27.74474 0.077,0.81084 -28.87024,-0.17015 -0.0666,-18.26078 -0.30667,-10e-6 0.44823,-35.633 z"
             id="path170"
             inkscape:connector-curvature="0"
             style="fill:#084594;stroke:#ffffff;stroke-width:0.5px" />
          <path
             d="m 574.86943,506.18891 -0.22604,14.51148 -0.15304,4.86527 0.12769,0.12974 -0.22636,8.38123 0.0703,1.25199 -4.75396,-0.013 -14.5301,0.037 0.0916,-9.33479 0.0959,-0.40217 8.83626,0.0145 0.80446,8e-5 -0.067,-0.63573 0.27626,-18.35825 0.35748,-0.38271 4.48395,-0.0192 z"
             id="path172"
             inkscape:connector-curvature="0"
             style="fill:#084594;stroke:#ffffff;stroke-width:0.5px" />
          <path
             d="m 598.67962,554.63545 6.45432,0.18541 7.27185,0.0481 15.42842,0.17771 -10e-4,2.22504 -0.0132,3.5484 -0.0123,0.64222 -1.3414,0.0464 -6.15859,3.60471 -3.02942,-2.2944 -0.71863,0.007 -1.60247,1.4865 -3.66494,3.27155 1.32648,1.57559 -1.34412,1.18787 -2.93436,2.34335 2.37537,3.5601 8.39639,11.34713 5.07897,7.12563 -25.44483,-0.0378 -0.077,-0.81084 -0.004,-27.74474 z"
             id="path174"
             inkscape:connector-curvature="0"
             style="fill:#084594;stroke:#ffffff;stroke-width:0.5px" />
          <path
             d="m 522.96491,116.53256 1.57588,2.39477 4.69531,19.76243 3.15761,8.40901 5.47052,14.55325 -15.5782,-0.21676 -0.74619,-4.72309 -2.11174,-13.11183 -1.25453,-7.95402 -0.84981,-5.49516 -0.13779,-2.45219 -0.21952,-7.58349 -2.97137,-3.45345 0.71121,-0.29134 z"
             id="path176"
             inkscape:connector-curvature="0"
             style="fill:#6baed6;stroke:#ffffff;stroke-width:0.5px" />
          <path
             d="m 570.01467,292.82882 7.5856,-0.0391 4.2637,-0.0848 1.37777,0.0647 7.79243,0.0502 2.06818,-0.12384 0.81224,2.78921 1.42784,6.97966 -9.72196,0.0155 -0.0728,2.25103 0.98658,0.14901 0.44287,2.43906 2.47021,2.30884 -4.84714,0.0205 2.13269,1.56947 1.13005,0.87551 -10.42665,0.14429 -4.47511,-11.50791 z"
             id="path178"
             inkscape:connector-curvature="0"
             style="fill:#084594;stroke:#ffffff;stroke-width:0.5px" />
          <path
             d="m 519.87598,5.052281 42.78802,0.018515 13.60915,23.126218 36.66356,52.740029 2.28271,2.865884 12.45265,20.775593 -1.53596,-0.005 -1.4063,-0.60872 -21.49685,0.0257 0.0408,6.25993 6.92173,5.61435 -1.87546,0.70158 -0.30407,1.23917 -1.04736,0.1627 -0.0385,-0.73301 -0.77471,-0.51858 -0.23749,1.16777 1.57955,4.07955 -0.68496,1.38856 -1.38828,-2.36709 -8.88463,-0.13908 -3.02813,0.15019 -8.88107,-15.87154 -1.7456,-1.18683 1.08531,0.006 -10.04442,-17.980913 -4.27644,-8.400629 -0.2474,-0.927644 -0.098,-8.037341 -0.38691,-1.388223 -3.65965,-6.312048 -4.65485,-5.812888 -3.61437,-4.055002 -3.83575,-4.690961 -1.23927,-1.888033 -3.36907,-4.444571 -1.24556,-1.362674 -4.02819,-3.796358 L 532.48253,21.757652 521.52887,6.9216948 Z"
             id="path180"
             inkscape:connector-curvature="0"
             style="fill:#a50f15;stroke:#ffffff;stroke-width:0.5px" />
          <path
             d="M 498.14282,5.0978524 519.35313,5 l 0.52285,0.052281 1.65289,1.8694138 10.95366,14.8359572 10.78774,13.089263 4.02819,3.796358 1.24556,1.362674 3.36907,4.444571 1.23927,1.888033 3.83575,4.690961 3.61437,4.055002 4.65485,5.812888 3.65965,6.312048 0.38691,1.388223 0.098,8.037341 0.2474,0.927644 4.27644,8.400629 10.04442,17.980913 -1.08531,-0.006 1.7456,1.18683 8.88107,15.87154 3.02813,-0.15019 8.88463,0.13908 1.38828,2.36709 0.68496,-1.38856 -1.57955,-4.07955 0.23749,-1.16777 0.77471,0.51858 0.0385,0.73301 1.04736,-0.1627 0.30407,-1.23917 1.87546,-0.70158 -6.92173,-5.61435 -0.0408,-6.25993 21.49685,-0.0257 1.4063,0.60872 1.53596,0.005 3.19693,5.32973 12.6419,16.77026 6.71314,7.88113 5.67681,8.27096 2.31468,7.8141 0.763,3.30746 -10.66421,-0.27316 -0.35403,1.53132 0.55932,0.36267 -0.83603,2.22595 -0.75855,0.44841 -0.44936,1.5379 -0.98575,1.89525 1.29931,0.30353 0.16309,1.05722 -1.40962,0.5399 -0.17547,2.31605 1.08048,0.5373 -1.03159,3.73113 0.0635,3.07479 -0.44855,2.44609 -1.28568,0.85111 -2.72861,0.16488 -0.63993,1.83646 0.49832,-0.45458 -0.0678,2.18621 -0.74947,0.27966 0.0689,2.29635 0.90206,-0.19548 0.71949,1.52375 1.21956,-0.42286 0.54566,-0.779 0.28361,0.84952 0.88932,-0.24092 5.03503,5.34 -0.0771,2.1473 0.39841,-1.75843 0.16605,0.75232 0.0198,3.51596 -0.29082,1.37558 -1.04127,0.87689 -0.96238,0.39675 1.9,-0.17072 0.10242,0.67454 -0.55868,3.44524 0.033,1.12223 -1.19535,-0.46578 -0.39369,0.33126 1.0497,0.95247 0.16363,1.44644 -0.59326,0.9283 -0.28454,1.37556 -1.09489,1.43481 0.66593,1.61457 -0.13578,0.82401 -1.21237,1.61007 -0.76756,1.52526 0.23265,0.60306 -1.74341,1.47436 0.7055,2.99631 -0.13764,2.16682 -1.47664,1.42217 -1.53522,0.0923 0.54214,1.78341 -0.43748,1.21352 -1.28626,1.20784 0.2944,2.01072 0.86803,0.1743 1.20001,1.52977 -0.0105,2.19913 -0.59547,2.23214 -1.26941,2.35606 0.39889,1.5111 -0.82513,1.57068 -0.0735,2.93223 -1.27203,3.16692 0.30752,2.38695 -0.65256,2.64735 -0.36281,3.0882 -2.78555,0.27501 -0.76044,-0.44045 -0.67702,0.39631 -4.04867,-0.4312 -1.65006,0.53976 -4.76056,0.15932 -0.9793,0.25371 -1.29316,1.67458 -0.1223,2.49113 -1.54777,1.57742 -2.68736,0.15096 0.12433,0.44753 -3.6384,0.0606 -16.55424,10e-4 -11.27151,0.003 -1.1863,2.2e-4 -6.12228,0.9674 -8.20569,1.13553 -9.07103,0.83605 -4.66473,-20.2276 -0.57192,-1.88138 -3.29045,-13.31879 -0.53679,-1.6803 -0.46374,-1.35593 -0.70398,-5.86452 -2.87846,-13.51996 -0.18551,-15.29007 0.0543,-1.02494 -0.68355,-7.882 -2.28182,-6.29976 -6.35424,-11.47178 -0.82153,-2.27086 -5.47052,-14.55325 -3.15761,-8.40901 -4.69531,-19.76243 -1.57588,-2.39477 -2.23184,-3.6797 -1.582,-2.34297 0.12299,-7.49887 1.96059,-3.650749 0.0827,-0.298343 -1.8646,-5.988839 -0.39829,-2.011259 -3.56136,-10.18729 -1.61889,-6.5726 0.64076,5.22e-4 -4.87262,-21.372116 -4.66764,-20.464006 -1.61844,-1.6103 -0.24151,-2.666352 -0.34127,-1.122566 -0.25153,-2.114976 -2.44482,-11.691814 -0.72307,-2.660358 z"
             id="path182"
             inkscape:connector-curvature="0"
             style="fill:#6baed6;stroke:#ffffff;stroke-width:0.5px" />
          <path
             d="m 561.2466,263.73991 9.07103,-0.83605 8.20569,-1.13553 0.0128,1.22606 0.58575,5.24152 1.18733,7.64166 0.32832,5.44264 0.51559,1.62819 -5.46889,0.0394 0.0955,0.61627 -2.03614,0.12334 -1.59392,-0.60328 -5.66615,-0.0651 -3.94312,-14.18769 -0.941,-3.54857 -0.006,-0.25299 z"
             id="path184"
             inkscape:connector-curvature="0"
             style="fill:#6baed6;stroke:#ffffff;stroke-width:0.5px" />
          <path
             d="m 466.18561,231.48612 7.80478,0.0112 3.00128,-0.11918 2.30176,-0.0554 1.29126,-0.40702 1.17133,-1.12077 2.29652,-3.5715 9.11811,-15.24692 1.30539,-2.12633 0.57864,-0.20047 10.59259,0.0885 1.80496,0.22871 1.98703,2.83014 0.85978,1.76523 0.36676,2.23188 -0.083,7.75847 -0.0307,2.47155 -0.0473,3.22404 0.59956,16.35445 -0.0267,8.87432 0.0342,4.67073 0.0667,3.78204 3.40113,10.44056 0.51121,1.17457 5.42962,9.42988 -12.8905,9.58394 -1.44738,-0.42298 -0.0834,0.71999 -0.24574,0.7912 -0.29001,0.48626 -0.16063,5.04033 -10.288,2.86342 0.0857,0.18822 6.17904,4.29437 7.28434,4.14562 5.29198,1.08785 0.51544,0.2145 11.60395,0.74146 0.93507,1.06448 0.70994,-0.25255 1.21203,1.04517 0.98678,-0.13564 3.65353,0.79997 2.04373,-0.56979 0.95832,-0.54443 1.79845,-0.25213 2.96108,5.0483 5.76744,10.0313 1.44781,2.15421 1.30481,1.54435 3.12885,2.74494 3.78182,2.6736 1.63314,1.168 0.88821,0.72672 0.7704,0.824 1.65534,2.6405 0.76069,2.46521 2.37137,9.38711 1.31174,4.37891 5.03833,19.84426 -2.1759,-0.0584 -2.13451,0.35667 -10.04809,0.14778 -4.6512,-0.35144 -1.89883,0.31083 -0.51282,-0.31154 -2.44999,0.29111 -7.40381,-0.0548 -2.48164,-0.23469 -20.81293,0.0712 -2.06139,0.21893 -15.62211,-7.34472 -2.46326,-2.18872 -1.36493,-1.487 -4.0067,-0.38718 -4.3385,0.0858 0.1096,-3.7559 -0.76098,-63.61347 -0.0539,-0.17521 -1.98052,-1.66312 -1.79828,-2.26624 -1.53026,-2.75248 -1.03658,-3.03081 0.31821,-2.48415 0.5903,-1.30315 -0.24923,-1.65453 -1.09954,-0.99395 -0.4981,-1.07751 -0.80803,-0.0594 -0.67544,0.71917 -0.85886,-0.11792 -0.59377,-0.87007 0.12836,-0.8172 -1.16714,-0.33891 1.34701,-0.93232 0.2138,-0.47976 -0.10557,-1.9333 -1.08145,-0.13769 -0.61587,-0.95444 -1.79488,-1.81887 -1.67581,-0.47591 0.25108,-2.08201 -0.99173,-2.76491 1.51593,-1.2823 0.12577,-1.2194 1.39608,0.22251 0.0527,-1.33627 -1.32458,-1.28629 0.68924,-1.58189 -0.52667,-0.94136 0.807,-1.65957 1.08154,-0.10879 0.12242,-1.14156 -1.03636,-0.33876 -0.15699,-1.4663 -1.69644,-1.33872 -0.19437,-1.98533 -1.66609,-0.24889 -0.75783,-1.55151 -1.23001,-0.48832 -0.23956,0.71322 -0.89011,-0.22836 0.48872,-1.45887 -0.12162,-1.62844 -0.65493,-0.10477 0.23069,-1.16084 -1.30265,-0.76094 0.96697,-0.18019 0.0971,-1.16105 -0.91202,-2.52484 -0.98298,0.28395 -0.62154,-1.11672 1.07193,-0.2384 0.40835,-0.89461 0.96085,-0.39427 -0.66032,-0.70159 1.02788,-0.57582 0.5427,0.68843 0.72645,-1.02389 -4.6e-4,-1.84882 0.58303,-0.81003 -0.42413,-1.31101 1.53968,-0.58809 0.68127,-0.6153 -0.67819,-1.51895 -0.87872,-1.33761 -1.52494,-0.74177 z"
             id="path186"
             inkscape:connector-curvature="0"
             style="fill:#084594;stroke:#ffffff;stroke-width:0.5px" />
          <path
             d="m 579.60154,410.00488 7.94868,-0.001 0.83826,0.18145 2.07159,-0.1562 4.15925,0.17395 3.84687,0.0116 0.0637,-3e-5 0.002,4.54745 0.04,4.70312 0.0483,9.69817 -7.20162,0.0672 -2.43558,0.15631 -0.0394,-4.69014 -0.3986,-0.5578 -4.53023,-2.58095 -0.16579,-0.17512 -0.58043,-1.77088 -1.34895,-4.37209 0.14636,-1.84235 -0.51977,-1.84227 -1.55545,-0.84961 z"
             id="path188"
             inkscape:connector-curvature="0"
             style="fill:#084594;stroke:#ffffff;stroke-width:0.5px" />
          <path
             d="m 571.19423,380.49551 3.35783,-0.026 4.07462,-0.17541 5.29796,-0.098 4.69278,0.49856 3.1189,-0.0397 2.07724,0.2978 0.65668,1.29721 0.72694,1.69939 -1.02573,0.47388 -1.49902,5.4042 -2.87667,1.92745 -0.9778,1.68039 0.12764,0.79789 -1.31265,0.66847 -0.89839,0.89541 -0.64654,1.60893 -0.53208,0.38284 -2.91244,0.57785 -0.64036,1.03154 0.0643,3.63925 0.66612,0.50589 1.86429,0.006 1.72116,1.33602 3.05873,-2.81608 1.88942,-1.20709 1.83541,-0.44813 5.41096,-0.13804 0.006,0.23353 0.01,9.70468 -0.0637,3e-5 -3.84687,-0.0116 -4.15925,-0.17395 -2.07159,0.1562 -0.83826,-0.18145 -7.94868,0.001 -1.0613,0.11038 -0.41454,-2.47803 -4.19776,-16.63265 z"
             id="path190"
             inkscape:connector-curvature="0"
             style="fill:#084594;stroke:#ffffff;stroke-width:0.5px" />
          <path
             d="m 578.5935,468.54433 3.32369,-0.13661 0.8995,-0.007 6.4879,-0.0727 3.03976,-0.18892 5.85623,-0.24843 0.004,1.23903 0.78468,0.0127 2.51991,-0.007 6.70806,-0.042 0.54574,0.5641 -0.008,2.49752 0.11436,5.24148 0.0357,1.23901 0.57908,3.13943 -6.42213,0.0161 -2.40232,10e-4 -1.33037,-0.006 -2.28747,-0.0186 -13.47277,-0.029 -5.05347,0.0525 z"
             id="path192"
             inkscape:connector-curvature="0"
             style="fill:#084594;stroke:#ffffff;stroke-width:0.5px" />
          <path
             d="m 621.16369,394.57496 8.67804,-2.21862 0.6117,-0.0913 6.69758,-0.0837 5.7769,0.0918 0.36272,2.65286 0.0289,0.22053 0.42375,3.11987 0.0289,0.21404 0.48799,3.5739 -3.36523,0.003 -3.57221,0.16555 0.0543,7.0579 -2.75999,0.0284 -0.30889,0.29868 -1.46287,0.0142 -6.43945,-1.96687 -0.31286,-0.70036 -5.24744,-11.70541 z"
             id="path194"
             inkscape:connector-curvature="0"
             style="fill:#084594;stroke:#ffffff;stroke-width:0.5px" />
          <path
             d="m 631.7992,295.13254 4.36562,-0.0622 2.53287,0.0106 -0.30358,2.02426 -1.12627,10.60097 -0.33959,7.99891 0.0392,4.63176 -1.2542,-0.0573 -0.0183,-2.63375 -0.99319,-3.71623 -0.0488,-1.22602 0.18478,-3.3994 0.57575,-7.47366 0.1422,-1.12888 -1.45753,-0.0701 -2.40906,-0.12768 z"
             id="path196"
             inkscape:connector-curvature="0"
             style="fill:#084594;stroke:#ffffff;stroke-width:0.5px" />
          <path
             d="m 585.8319,260.80071 11.27151,-0.003 16.55424,-10e-4 0.0366,2.72456 -0.69766,9.08883 -0.52516,10.63913 -0.40935,1.87501 -0.06,0.8693 -8.17006,0.50364 -0.77651,-0.46024 -8.24026,0.0745 -0.94159,0.51277 -1.15131,1.47941 -1.25371,-0.48618 -2.39338,-3.24942 -0.46177,-1.92656 -0.16591,-2.02393 -0.22373,-4.56038 -0.51576,-1.88763 0.092,-1.01201 0.30195,-1.06395 -1.84845,-1.62786 -0.23288,-3.3927 -0.56048,-3.56131 z"
             id="path198"
             inkscape:connector-curvature="0"
             style="fill:#084594;stroke:#ffffff;stroke-width:0.5px" />
          <path
             d="m 566.48353,283.05907 5.66615,0.0651 1.59392,0.60328 2.03614,-0.12334 -0.0955,-0.61627 5.46889,-0.0394 0.57612,1.99146 0.1347,7.76504 -4.2637,0.0848 -7.5856,0.0391 z"
             id="path200"
             inkscape:connector-curvature="0"
             style="fill:#6baed6;stroke:#ffffff;stroke-width:0.5px" />
          <path
             d="m 486.76762,369.55925 4.3385,-0.0858 4.0067,0.38718 1.36493,1.487 2.46326,2.18872 15.62211,7.34472 2.06139,-0.21893 20.81293,-0.0712 2.48164,0.23469 7.40381,0.0548 2.44999,-0.29111 0.51282,0.31154 1.89883,-0.31083 4.6512,0.35144 10.04809,-0.14778 2.13451,-0.35667 2.1759,0.0584 2.73371,10.50907 4.19776,16.63265 0.41454,2.47803 0.11489,1.58933 -0.008,16.15932 -0.0502,9.00407 0.0291,4.62528 -0.003,5.63078 -0.0504,6.8244 0.0515,4.93017 -0.0279,9.15973 -0.003,0.50599 -0.0785,13.24657 0.013,2.46508 0.099,0.7979 0.0862,0.41516 0.54889,1.23897 0.76266,1.05082 1.69121,1.36207 17.2822,12.65175 -0.0335,4.17767 -9.52951,0.15217 -4.87329,0.0205 -9.69234,0.0659 -4.81266,0.0454 -4.48395,0.0192 -0.35748,0.38271 -0.27626,18.35825 0.067,0.63573 -0.80446,-8e-5 -8.83626,-0.0145 -0.0959,0.40217 -0.0916,9.33479 14.5301,-0.037 0.2425,5.30638 -0.44823,35.633 0.30667,10e-6 0.0666,18.26078 28.87024,0.17015 25.44483,0.0378 3.30084,0.017 0.50892,5.16321 -0.21518,19.07823 -0.24405,19.11062 0.34456,3.1329 1.0665,2.18524 0.7426,0.94649 6.59999,7.26615 0.32981,0.46676 0.4266,1.40078 -96.48672,-0.86594 -33.97248,0.483 -24.48734,0.2394 -0.3003,-83.88936 0.12331,-1.53077 -0.0139,-9.231 -0.10319,-9.3414 -0.21639,-3.12052 0.31749,-44.11784 -0.35014,-5.74796 0.50775,-5.36415 5.9e-4,-13.13628 3.79949,-0.008 z"
             id="path202"
             inkscape:connector-curvature="0"
             style="fill:#084594;stroke:#ffffff;stroke-width:0.5px" />
          <path
             d="m 482.23643,88.683039 4.12462,-0.03383 7.71114,1.669548 0.62194,-0.06419 0.0409,3.204613 3.24917,-0.04195 21.46854,-0.344144 1.8646,5.988839 -0.0827,0.298343 -1.96059,3.650752 -7.59409,0.18857 -0.1777,-0.0131 -0.96149,-0.0657 -7.40676,0.0451 -0.15866,-0.007 2.80353,5.28956 -2.07945,0.74404 -0.91435,0.33644 -0.95009,-2.03136 -2.07933,0.60769 -3.63387,0.0676 -6.91215,-0.0142 z"
             id="path204"
             inkscape:connector-curvature="0"
             style="fill:#6baed6;stroke:#ffffff;stroke-width:0.5px" />
          <path
             d="m 492.93518,142.67411 2.66077,0.0159 2.5751,-0.0362 -0.0493,4.64466 1.4814,1.47408 1.74011,0.0342 0.76735,1.12301 1.80513,-1.50972 0.79588,-2.13348 -0.23585,-2.42637 0.69916,-4.02778 1.37148,0.15047 2.97295,2.36396 2.62883,0.2293 0.13939,4.15182 -0.20562,2.85412 -2.08155,1.84702 -0.0988,0.40211 -0.42386,1.72518 0.23064,1.34302 -0.0617,5.20904 0.30376,1.29767 -9.17538,-0.10591 -2.59513,0.3282 -1.08682,0.58269 -1.37041,1.43218 -0.61055,0.68048 -2.32616,1.10674 0.0133,-3.35379 z"
             id="path206"
             inkscape:connector-curvature="0"
             style="fill:#084594;stroke:#ffffff;stroke-width:0.5px" />
          <path
             d="m 511.10435,245.60274 9.57115,-0.0508 9.38349,0.006 0.97625,-0.10971 8.862,-0.002 2.56293,-0.10268 0.41337,-0.006 5.10178,14.5719 1.36952,3.90568 0.1589,0.41523 0.40365,0.92129 0.79471,1.49876 -1.0306,0.16835 -1.57132,0.12923 -3.52709,-0.86405 -0.0425,2.86728 -3.38125,0.10889 -0.81439,0.2267 -10.04621,7.39011 -3.46912,2.61219 -6.29913,4.68589 -5.42962,-9.42988 -0.51121,-1.17457 -3.40113,-10.44056 -0.0667,-3.78204 -0.0342,-4.67073 z"
             id="path208"
             inkscape:connector-curvature="0"
             style="fill:#084594;stroke:#ffffff;stroke-width:0.5px" />
          <path
             d="m 539.53701,226.5299 0.41327,-0.0323 4.88281,0.015 7.24791,0.0867 0.10171,0.0325 0.53679,1.6803 3.29045,13.31879 0.57192,1.88138 4.66473,20.2276 0.34648,1.32991 -10.89098,1.58043 -0.79471,-1.49876 -0.40365,-0.92129 -0.1589,-0.41523 -1.36952,-3.90568 -5.10178,-14.5719 -2.36591,-6.79298 -0.72994,-2.95195 z"
             id="path210"
             inkscape:connector-curvature="0"
             style="fill:#6baed6;stroke:#ffffff;stroke-width:0.5px" />
          <path
             d="m 572.9612,300.73013 4.47511,11.50791 8.19305,19.94024 1.55452,4.24225 10.59674,28.94887 5.78397,13.85411 -7.29773,2.39011 -7.40913,-21.96965 -6.50316,-19.41464 -0.62438,-2.2704 -0.74222,-2.93207 -1.47756,-2.73738 -2.1652,-4.23588 -1.77331,-2.58824 -0.71631,-1.30388 -1.08877,-3.49002 -0.56343,-1.01847 -4.75203,-6.35094 -1.66125,-2.34843 -0.49321,-1.34936 -2.76148,-8.80975 1.35241,0.36991 0.97699,-0.36967 z"
             id="path212"
             inkscape:connector-curvature="0"
             style="fill:#084594;stroke:#ffffff;stroke-width:0.5px" />
          <path
             d="m 578.51498,481.7909 5.05347,-0.0525 13.47277,0.029 2.28747,0.0186 0.008,4.56039 -0.0182,2.39373 -0.0519,6.19514 -0.14632,1.20665 -0.12232,5.63079 -17.2822,-12.65175 -1.69121,-1.36207 -0.76266,-1.05082 -0.54889,-1.23897 -0.0862,-0.41516 -0.099,-0.7979 z"
             id="path214"
             inkscape:connector-curvature="0"
             style="fill:#084594;stroke:#ffffff;stroke-width:0.5px" />
          <path
             d="m 628.5313,491.73935 7.49211,0.18179 2.25903,-0.054 3.68856,0.0224 0.4061,0.88183 1.81965,4.01367 -0.48182,0.0199 -5.50139,-0.0985 -0.10391,4.93674 -9.67283,-0.29658 0.0376,-4.8718 z"
             id="path216"
             inkscape:connector-curvature="0"
             style="fill:#9ecae1;stroke:#ffffff;stroke-width:0.5px" />
          <path
             d="m 701.47531,604.17428 -0.2098,0.62313 4.35907,6.80327 0.9488,3.15086 -8.64304,-0.15939 -7.64562,-0.0713 -2.64977,-0.0411 -6.86262,-0.14491 0.0668,-4.42419 -0.17304,-0.29165 -4.95425,-0.2586 0.0186,-4.78738 4.7394,-0.007 6.57699,-0.0168 3.23122,0.14392 0.0199,2.38068 1.79931,-0.003 0.044,-2.34835 2.85709,0.008 -0.22799,-0.63533 z"
             id="path218"
             inkscape:connector-curvature="0"
             style="fill:#9ecae1;stroke:#ffffff;stroke-width:0.5px" />
          <path
             d="m 647.36721,483.39256 10.11035,-0.0374 0.0273,-1.19365 7.05733,0.20526 0.21135,0.6095 1.21061,3.52089 2.44602,6.24376 1.60743,4.09762 1.54999,3.96793 0.42915,1.09571 1.79637,4.25944 0.0352,0.0778 -5.04221,0.18217 -9.4369,0.14192 -0.6974,-1.36791 -1.36941,-2.92401 -5.49731,-10.32101 z"
             id="path220"
             inkscape:connector-curvature="0"
             style="fill:#6baed6;stroke:#ffffff;stroke-width:0.5px" />
          <path
             d="m 633.13366,444.86655 6.24137,-2.19178 1.83279,-0.66344 0.71409,-0.1499 10.50604,-0.19272 0.81955,0.0769 4.05691,16.89408 -0.92187,-0.14162 -6.54429,0.1307 -12.75009,0.79124 -0.80207,-1.71835 -1.34521,-2.87257 -1.06396,-2.28251 z"
             id="path222"
             inkscape:connector-curvature="0"
             style="fill:#084594;stroke:#ffffff;stroke-width:0.5px" />
          <path
             d="m 520.807,208.61457 -0.12217,-2.45869 12.02877,-0.0313 3.26211,9.64152 -3.14739,1.34116 -0.4359,0.80415 -0.94763,0.74548 -2.10137,0.57613 -1.44704,1.25112 -1.12554,0.47934 -6.11897,0.0477 z"
             id="path224"
             inkscape:connector-curvature="0"
             style="fill:#084594;stroke:#ffffff;stroke-width:0.5px" />
          <path
             d="m 598.85426,458.87384 4.60853,-0.0343 -1.3111,-0.70004 6.5221,0.0748 10.92317,-0.15567 -1.21676,-2.52915 -0.062,-2.24449 2.7617,-0.0278 0.31943,5.35161 0.61344,1.55646 2.38128,2.74881 9.5749,11.07221 1.35088,1.70491 1.02576,1.93222 -3.22208,-0.0361 0.19523,4.44995 -1.94636,-0.30324 -2.93177,0.17104 -9.77204,-0.0578 -9.18501,-0.0724 -0.57908,-3.13943 -0.0357,-1.23901 -0.11436,-5.24148 0.008,-2.49752 -0.54574,-0.5641 -6.70806,0.042 -2.51991,0.007 z"
             id="path226"
             inkscape:connector-curvature="0"
             style="fill:#9ecae1;stroke:#ffffff;stroke-width:0.5px" />
          <path
             d="m 637.08816,459.42003 12.75009,-0.79124 6.54429,-0.1307 0.92187,0.14162 0.29811,1.25165 2.9597,10.25243 0.1377,0.43446 -6.83899,0.008 -0.7846,0.0852 -10.62214,0.0113 -3.72662,-7.76142 z"
             id="path228"
             inkscape:connector-curvature="0"
             style="fill:#084594;stroke:#ffffff;stroke-width:0.5px" />
          <path
             d="m 581.15315,282.9484 1.78161,-0.0132 0.0155,-2.40023 0.78931,2.05628 0.0665,-2.02398 4.64153,-0.15013 0.16591,2.02393 0.46177,1.92656 2.39338,3.24942 1.25371,0.48618 0.67158,0.83015 -0.2916,3.7626 -2.06818,0.12384 -7.79243,-0.0502 -1.37777,-0.0647 -0.1347,-7.76504 z"
             id="path230"
             inkscape:connector-curvature="0"
             style="fill:#6baed6;stroke:#ffffff;stroke-width:0.5px" />
          <path
             d="m 482.23643,88.683039 6.97322,19.475921 1.78741,4.99056 2.02161,5.82761 0.0473,3.18518 -0.0363,6.98647 -0.0944,13.52533 -3.1466,0.003 -3.53396,-0.004 -4.06389,-0.26451 -0.86195,-1.32444 -0.19182,1.0247 0.21535,-2.04962 1.09967,-0.86787 0.43021,-1.26443 0.11424,-2.49088 -0.98593,-1.14295 -0.59111,-11.98227 -0.55512,-7.70728 -3.59593,-0.089 -7.02624,-0.56111 -1.93483,1.32055 0.31636,-1.47209 -0.29101,-0.67507 -0.0572,-2.1408 2.40907,-0.12626 -0.24357,-5.00831 0.16209,-2.38698 4.7284,-0.006 -0.0285,-2.39374 -0.13561,-12.254103 z"
             id="path232"
             inkscape:connector-curvature="0"
             style="fill:#084594;stroke:#ffffff;stroke-width:0.5px" />
          <path
             d="m 624.394,462.91405 14.33357,0.007 3.72662,7.76142 1.65587,3.50136 1.97579,4.20159 0.98338,3.80038 -5.33242,1.88666 -1.2136,-1.28326 -0.75602,0.098 -3.53004,1.90398 -0.34257,-1.32954 0.005,-1.36877 -2.58104,-0.0561 -0.19523,-4.44995 3.22208,0.0361 -1.02576,-1.93222 -1.35088,-1.70491 z"
             id="path234"
             inkscape:connector-curvature="0"
             style="fill:#9ecae1;stroke:#ffffff;stroke-width:0.5px" />
          <path
             d="m 627.62453,585.13997 57.81608,0.10021 -1.02198,-1.76933 -0.574,-1.34839 7.59253,-0.93993 2.97934,6.6441 7.05881,16.34765 -6.70495,-0.079 0.22799,0.63533 -2.85709,-0.008 -0.044,2.34835 -1.79931,0.003 -0.0199,-2.38068 -3.23122,-0.14392 -6.57699,0.0168 -4.7394,0.007 -0.0186,4.78738 4.95425,0.2586 0.17304,0.29165 -0.0668,4.42419 -7.60093,-0.15749 -5.23194,5.00864 -20.29453,-0.0794 -0.7703,0.0397 -18.87218,-0.24867 -0.2173,0.0845 0.21518,-19.07823 -0.50892,-5.16321 z"
             id="path236"
             inkscape:connector-curvature="0"
             style="fill:#084594;stroke:#ffffff;stroke-width:0.5px" />
        </g>
      </g>
      <g
         id="g242" />
    </g>
    <g
       id="g254">
      <g
         id="g250">
        <g
           id="g248">
          <path
             d="m 645.0385,491.92011 1.86734,3.20819 0.58814,1.72482 0.87573,3.71026 0.21871,0.71176 0.20095,0.65313 0.22756,0.69425 0.23526,0.65412 0.22626,0.51008 0.22724,0.40204 0.26714,0.44934 10e-4,0.003 0.29364,0.40197 1.24148,1.07176 1.11249,1.44331 -0.73145,0.91241 -0.0762,0.11223 -0.17639,0.57638 -0.008,0.0597 0.003,0.0597 0.004,0.0442 0.0201,0.16769 0.17004,0.66138 0.0466,0.10592 0.092,0.18716 0.39029,0.71463 0.02,0.0319 0.64731,0.97053 0.0731,0.0812 0.0986,0.10175 0.12824,-0.10098 0.01,-0.0103 0.0895,-0.11225 0.0928,-0.15855 0.007,-0.0144 0.0339,-2.33663 1.99508,3.85806 -0.34943,0.20207 -0.097,0.30467 -0.0208,0.1667 0.28229,1.05222 0.50623,1.39046 0.65928,1.65264 0.81656,1.75122 1.10165,1.35474 0.61716,0.61246 1.57457,0.70594 0.25657,0.73944 -0.31081,1.9244 -0.0145,0.76551 -1.91123,0.0939 -6.22775,-0.1028 -12.29045,-0.12095 0.072,0.0575 0.0956,7.33276 -2.54367,-0.1324 -2.01328,0.0841 -0.0642,2.44263 -0.56237,-0.0767 -0.0166,-10e-4 -2.01118,0.0398 -0.21893,2.86562 -0.099,1.99714 -0.70077,-0.0786 -0.73391,0.006 -0.0113,2.43537 -0.97081,0.0409 -0.10263,1.74713 -1.43919,-0.076 -0.7374,1.25891 -0.16685,1.81096 -0.0196,0.41053 -0.01,0.4023 -0.0379,3.94373 -0.0354,4.23386 0.94112,-0.009 0.64551,-0.006 -1e-4,1.25523 -0.70531,5.6e-4 -0.88321,0.45649 -0.0106,3.4056 0.002,0.55353 0.002,0.30352 5e-5,0.0751 1.17842,0.3067 -0.0366,2.64013 -0.81169,0.009 -0.34295,0.42211 -0.009,0.80047 -0.0124,1.10708 -0.0447,5.14648 -0.0407,5.98911 0.40031,0.60672 0.89532,0.50961 -1.30474,-0.0113 -0.11874,9.65813 5.00918,0.033 -0.22004,0.47553 -0.0861,4.33265 -6.17825,-0.0403 -1.89435,-0.006 -1.36703,-0.004 -5.59441,-0.0127 -7.52086,0.0198 -35.03316,-0.15674 -0.3412,-0.0484 -4.42123,-0.003 -0.16611,-1.87667 0.0625,-14.88368 10e-6,-0.40023 3e-5,-1.10192 -0.30789,-10e-6 0.3782,-18.65043 0.0535,-11.14585 0.0111,-2.43741 0.01,-2.58249 -0.003,-0.81384 0.89996,-0.0525 2.69877,-0.15948 0.89996,-0.0535 0.002,-1.00625 0.008,-3.01771 0.002,-1.00624 -5.11822,-0.0134 -2.26025,-0.004 -1.04933,0.003 -10.8563,0.0405 0.0918,-9.334 -0.0199,-0.0833 -0.0697,-0.27988 -0.006,-0.0154 -0.0122,-0.035 -4.41917,-0.0248 -0.005,-4.8481 -0.0625,-2.09483 -0.19067,-6.28859 0.007,-3.26362 0.1757,-2.94565 2.72295,-0.098 6.96496,-0.003 -0.20968,16.83457 -0.0203,2.17711 0.0431,0.12142 0.17922,0.42393 0.0531,0.0278 3.47845,0.007 0.32427,-0.001 -0.0235,2.49813 0.11953,-0.003 0.58106,-0.0174 0.1253,-2.47959 -0.0674,-0.63277 0.15908,-8.60762 0.0901,-5.46543 0.006,-0.66157 0.0214,-3.62373 0.27996,-0.29527 8.32811,-0.13143 0.20912,-0.004 0.73135,-0.0155 1.97386,-0.0567 10.76998,-0.0118 0.95485,-0.0115 0.97365,-0.0115 -0.0995,4.84402 0.0144,0.0658 8.312,-0.17948 0.86944,-0.72054 0.36208,0.68202 0.0421,0.002 0.60305,0.0234 0.26114,0.0102 4.31429,0.097 2.82382,0.0419 7.19013,0.10415 12.4239,0.0646 0.19142,-0.006 0.31202,-0.0116 0.0313,-1.07727 1.17953,0.0114 0.0192,-0.94556 -1.20274,9.3e-4 0.14509,-2.6783 10.79793,0.26348 0.005,-0.20167 0.18343,-9.7859 1.95597,0.064 0.47793,0.0129 3.01465,0.0227 0.30975,-0.0116 0.22456,-0.0105 -0.36367,-0.80114 -0.44792,-0.98934 -0.96455,-2.12678 0.50325,-0.0828 -0.008,-0.15535 -0.008,-0.14712 -0.0237,-0.44034 z m -83.49721,41.76103 0.71835,0.002 10e-4,-0.0525 0.009,-0.69346 -2.22475,-0.007 -0.003,0.30043 -0.002,0.44448 z"
             style="fill:none;stroke:#ffd101;stroke-width:3.5"
             id="path246"
             inkscape:connector-curvature="0" />
        </g>
      </g>
      <g
         id="g252" />
    </g>
    <g
       id="g264">
      <g
         id="g260">
        <g
           id="g258">
          <path
             d="m 645.0385,491.92011 1.86734,3.20819 0.58814,1.72482 0.87573,3.71026 0.21871,0.71176 0.20095,0.65313 0.22756,0.69425 0.23526,0.65412 0.22626,0.51008 0.22724,0.40204 0.26714,0.44934 10e-4,0.003 0.29364,0.40197 1.24148,1.07176 1.11249,1.44331 -0.73145,0.91241 -0.0762,0.11223 -0.17639,0.57638 -0.008,0.0597 0.003,0.0597 0.004,0.0442 0.0201,0.16769 0.17004,0.66138 0.0466,0.10592 0.092,0.18716 0.39029,0.71463 0.02,0.0319 0.64731,0.97053 0.0731,0.0812 0.0986,0.10175 0.12824,-0.10098 0.01,-0.0103 0.0895,-0.11225 0.0928,-0.15855 0.007,-0.0144 0.0339,-2.33663 1.99508,3.85806 -0.34943,0.20207 -0.097,0.30467 -0.0208,0.1667 0.28229,1.05222 0.50623,1.39046 0.65928,1.65264 0.81656,1.75122 1.10165,1.35474 0.61716,0.61246 1.57457,0.70594 0.25657,0.73944 -0.31081,1.9244 -0.0145,0.76551 -1.91123,0.0939 -6.22775,-0.1028 -12.29045,-0.12095 0.072,0.0575 0.0956,7.33276 -2.54367,-0.1324 -2.01328,0.0841 -0.0642,2.44263 -0.56237,-0.0767 -0.0166,-10e-4 -2.01118,0.0398 -0.21893,2.86562 -0.099,1.99714 -0.70077,-0.0786 -0.73391,0.006 -0.0113,2.43537 -0.97081,0.0409 -0.10263,1.74713 -1.43919,-0.076 -0.7374,1.25891 -0.16685,1.81096 -0.0196,0.41053 -0.01,0.4023 -0.0379,3.94373 -0.0354,4.23386 0.94112,-0.009 0.64551,-0.006 -1e-4,1.25523 -0.70531,5.6e-4 -0.88321,0.45649 -0.0106,3.4056 0.002,0.55353 0.002,0.30352 5e-5,0.0751 1.17842,0.3067 -0.0366,2.64013 -0.81169,0.009 -0.34295,0.42211 -0.009,0.80047 -0.0124,1.10708 -0.0447,5.14648 -0.0407,5.98911 0.40031,0.60672 0.89532,0.50961 -1.30474,-0.0113 -0.11874,9.65813 5.00918,0.033 -0.22004,0.47553 -0.0861,4.33265 -6.17825,-0.0403 -1.89435,-0.006 -1.36703,-0.004 -5.59441,-0.0127 -7.52086,0.0198 -35.03316,-0.15674 -0.3412,-0.0484 -4.42123,-0.003 -0.16611,-1.87667 0.0625,-14.88368 10e-6,-0.40023 3e-5,-1.10192 -0.30789,-10e-6 0.3782,-18.65043 0.0535,-11.14585 0.0111,-2.43741 0.01,-2.58249 -0.003,-0.81384 0.89996,-0.0525 2.69877,-0.15948 0.89996,-0.0535 0.002,-1.00625 0.008,-3.01771 0.002,-1.00624 -5.11822,-0.0134 -2.26025,-0.004 -1.04933,0.003 -10.8563,0.0405 0.0918,-9.334 -0.0199,-0.0833 -0.0697,-0.27988 -0.006,-0.0154 -0.0122,-0.035 -4.41917,-0.0248 -0.005,-4.8481 -0.0625,-2.09483 -0.19067,-6.28859 0.007,-3.26362 0.1757,-2.94565 2.72295,-0.098 6.96496,-0.003 -0.20968,16.83457 -0.0203,2.17711 0.0431,0.12142 0.17922,0.42393 0.0531,0.0278 3.47845,0.007 0.32427,-0.001 -0.0235,2.49813 0.11953,-0.003 0.58106,-0.0174 0.1253,-2.47959 -0.0674,-0.63277 0.15908,-8.60762 0.0901,-5.46543 0.006,-0.66157 0.0214,-3.62373 0.27996,-0.29527 8.32811,-0.13143 0.20912,-0.004 0.73135,-0.0155 1.97386,-0.0567 10.76998,-0.0118 0.95485,-0.0115 0.97365,-0.0115 -0.0995,4.84402 0.0144,0.0658 8.312,-0.17948 0.86944,-0.72054 0.36208,0.68202 0.0421,0.002 0.60305,0.0234 0.26114,0.0102 4.31429,0.097 2.82382,0.0419 7.19013,0.10415 12.4239,0.0646 0.19142,-0.006 0.31202,-0.0116 0.0313,-1.07727 1.17953,0.0114 0.0192,-0.94556 -1.20274,9.3e-4 0.14509,-2.6783 10.79793,0.26348 0.005,-0.20167 0.18343,-9.7859 1.95597,0.064 0.47793,0.0129 3.01465,0.0227 0.30975,-0.0116 0.22456,-0.0105 -0.36367,-0.80114 -0.44792,-0.98934 -0.96455,-2.12678 0.50325,-0.0828 -0.008,-0.15535 -0.008,-0.14712 -0.0237,-0.44034 z m -83.49721,41.76103 0.71835,0.002 10e-4,-0.0525 0.009,-0.69346 -2.22475,-0.007 -0.003,0.30043 -0.002,0.44448 z"
             style="fill:none;stroke:#695600;stroke-width:1.5;stroke-dasharray:4, 2"
             id="path256"
             inkscape:connector-curvature="0" />
        </g>
      </g>
      <g
         id="g262" />
    </g>
  </g>
</svg>
