<?xml version="1.0" encoding="UTF-8" standalone="no"?>
<!-- Created with Inkscape (http://www.inkscape.org/) -->
<svg xmlns:rdf="http://www.w3.org/1999/02/22-rdf-syntax-ns#" xmlns="http://www.w3.org/2000/svg" xml:space="preserve" height="1075" viewBox="0 0 700 1075" width="700" version="1.1" xmlns:cc="http://creativecommons.org/ns#" xmlns:dc="http://purl.org/dc/elements/1.1/"><metadata><rdf:RDF><cc:Work rdf:about=""><dc:format>image/svg+xml</dc:format><dc:type rdf:resource="http://purl.org/dc/dcmitype/StillImage"/><dc:title/></cc:Work></rdf:RDF></metadata><g transform="matrix(1.3333 0 0 -1.3333 0 1075)"><text style="text-anchor:middle;text-align:center" font-size="15px" font-style="italic" transform="scale(1,-1)" y="-334.64032" x="262.25098" font-family="Arial" fill="#111111"><tspan y="-334.64032" x="262.25098">... for neighborhoods with low to high shares of residents who have</tspan><tspan y="-315.89032" x="262.25098">not attained education beyond high school</tspan></text>
<g font-size="15px" transform="translate(-2.1826 4.5008)" font-family="Arial" fill="#333333"><text transform="scale(1,-1)" y="-75.849998" x="17.73922"><tspan y="-75.849998" x="17.73922">0%</tspan></text>
<text transform="scale(1,-1)" y="-127.73" x="9.3896103"><tspan y="-127.73" x="9.3896103">25%</tspan></text>
<text transform="scale(1,-1)" y="-179.61" x="9.3896103"><tspan y="-179.61" x="9.3896103">50%</tspan></text>
<text transform="scale(1,-1)" y="-231.49001" x="9.3896103"><tspan y="-231.49001" x="9.3896103">75%</tspan></text>
<text transform="scale(1,-1)" y="-283.35999" x="1.04"><tspan y="-283.35999" x="1.04">100%</tspan></text>
</g><g><path d="m51.589 86.01h82.22v92.48h-82.221z" fill="#084594"/><path d="m51.589 178.49h82.22v89.79h-82.221z" fill="#6baed6"/><path d="m51.589 268.28h82.22v20.11h-82.221z" fill="#9ecae1"/><path d="m51.589 288.39h82.22v3.34h-82.221z" fill="#ef3b2c"/><path d="m51.589 291.73h82.22v1.79h-82.221z" fill="#a50f15"/><path d="m142.94 86.01h82.22v49.42h-82.22z" fill="#084594"/><path d="m142.94 135.43h82.22v94.72h-82.22z" fill="#6baed6"/><path d="m142.94 230.15h82.22v47.17h-82.22z" fill="#9ecae1"/><path d="m142.94 277.32h82.22v10.82h-82.22z" fill="#ef3b2c"/><path d="m142.94 288.14h82.22v5.39h-82.22z" fill="#a50f15"/><path d="m234.29 86.01h82.22v22.65h-82.22z" fill="#084594"/><path d="m234.29 108.66h82.22v73.05h-82.22z" fill="#6baed6"/><path d="m234.29 181.71h82.22v69.3h-82.22z" fill="#9ecae1"/><path d="m234.29 251.02h82.22v27.17h-82.22z" fill="#ef3b2c"/><path d="m234.29 278.19h82.22v15.34h-82.22z" fill="#a50f15"/><path d="m325.65 86.01h82.22v10.58h-82.22z" fill="#084594"/><path d="m325.65 96.59h82.22v43.79h-82.22z" fill="#6baed6"/><path d="m325.65 140.38h82.22v76.08h-82.22z" fill="#9ecae1"/><path d="m325.65 216.47h82.22v47.48h-82.22z" fill="#ef3b2c"/><path d="m325.65 263.95h82.22v29.58h-82.22z" fill="#a50f15"/><path d="m417 86.01h82.22v4.79h-82.22z" fill="#084594"/><path d="m417 90.8h82.22v24.72h-82.22z" fill="#6baed6"/><path d="m417 115.52h82.22v66.69h-82.22z" fill="#9ecae1"/><path d="m417 182.21h82.22v72.66h-82.22z" fill="#ef3b2c"/><path d="m417 254.87h82.22v38.66h-82.22z" fill="#a50f15"/><g font-size="15px" font-family="Helvetica"><text transform="scale(1,-1)" y="-128.29967" x="71.441719" fill="#ffffff"><tspan y="-128.29967" x="71.441719">44.6%</tspan></text>
<text transform="scale(1,-1)" y="-219.43967" x="71.441719" fill="#000000"><tspan y="-219.43967" x="71.441719">43.3%</tspan></text>
<text transform="scale(1,-1)" y="-274.38965" x="75.541527" fill="#000000"><tspan y="-274.38965" x="75.541527">9.7%</tspan></text>
<text transform="scale(1,-1)" y="-106.76968" x="164.22871" fill="#ffffff"><tspan y="-106.76968" x="164.22871">23.8%</tspan></text>
<text transform="scale(1,-1)" y="-178.84967" x="164.27371" fill="#000000"><tspan y="-178.84967" x="164.27371">45.6%</tspan></text>
<text transform="scale(1,-1)" y="-249.78967" x="164.22871" fill="#000000"><tspan y="-249.78967" x="164.22871">22.7%</tspan></text>
<text transform="scale(1,-1)" y="-93.389679" x="255.03874" fill="#ffffff"><tspan y="-93.389679" x="255.03874">10.9%</tspan></text></g></g><g font-size="15px" font-family="Helvetica" fill="#000000">
<text transform="scale(1,-1)" y="-141.23967" x="255.56374"><tspan y="-141.23967" x="255.56374">35.2%</tspan></text>
<text transform="scale(1,-1)" y="-212.41968" x="255.56374"><tspan y="-212.41968" x="255.56374">33.4%</tspan></text>
<text transform="scale(1,-1)" y="-260.64969" x="255.03874"><tspan y="-260.64969" x="255.03874">13.1%</tspan></text>
<text transform="scale(1,-1)" y="-114.5397" x="345.65375"><tspan y="-114.5397" x="345.65375">21.1%</tspan></text>
<text transform="scale(1,-1)" y="-174.47968" x="345.66873"><tspan y="-174.47968" x="345.66873">36.7%</tspan></text>
<text transform="scale(1,-1)" y="-236.25967" x="345.65375"><tspan y="-236.25967" x="345.65375">22.9%</tspan></text>
</g><text transform="scale(1,-1)" font-size="15px" y="-274.78967" x="345.14374" font-family="Helvetica" fill="#ffffff"><tspan y="-274.78967" x="345.14374">14.3%</tspan></text><g font-size="15px" font-family="Helvetica" fill="#000000">
<text transform="scale(1,-1)" y="-99.209686" x="442.19879"><tspan y="-99.209686" x="442.19879">11.9%</tspan></text>
<text transform="scale(1,-1)" y="-144.91969" x="442.72379"><tspan y="-144.91969" x="442.72379">32.1%</tspan></text>
<text transform="scale(1,-1)" y="-214.58969" x="448.97867"><tspan y="-214.58969" x="448.97867">35%</tspan></text>
</g><text transform="scale(1,-1)" font-size="15px" y="-270.24969" x="442.19879" font-family="Helvetica" fill="#ffffff"><tspan y="-270.24969" x="442.19879">18.6%</tspan></text><g font-size="15px" font-family="Helvetica" fill="#333333">
<text transform="scale(1,-1)" y="-65.739693" x="71.396721"><tspan y="-65.739693" x="71.396721">0.0%-</tspan><tspan y="-46.989693" x="71.396721">25.6%</tspan></text>
<text transform="scale(1,-1)" y="-65.739693" x="161.89117"><tspan y="-65.739693" x="161.89117">25.6%-</tspan><tspan y="-46.989693" x="161.89117">38.0%</tspan></text>
<text transform="scale(1,-1)" y="-65.739693" x="253.2412"><tspan y="-65.739693" x="253.2412">38.0%-</tspan><tspan y="-46.989693" x="253.2412">48.1%</tspan></text>
<text transform="scale(1,-1)" y="-65.739693" x="343.34619"><tspan y="-65.739693" x="343.34619">48.1%-</tspan><tspan y="-46.989693" x="343.34619">58.6%</tspan></text>
<text transform="scale(1,-1)" y="-65.739693" x="440.34875"><tspan y="-65.739693" x="440.34875">58.6%-</tspan><tspan y="-46.989693" x="440.34875">100%</tspan></text>
</g><g stroke-linejoin="round" transform="matrix(.99246 0 0 .99998 -11.706 3.933)" stroke="#fff" stroke-dasharray="0.75285124, 2.25855371" stroke-width=".75285" fill="none"><path d="m58.093 133.96h458.43"/><path d="m58.093 185.84h458.43"/><path d="m58.093 237.72h458.43"/></g><text style="font-variant-ligatures:normal;letter-spacing:0px;font-variant-numeric:normal;word-spacing:0px;font-variant-caps:normal;font-feature-settings:normal" xml:space="preserve" transform="scale(1,-1)" line-height="18.75px" font-size="15px" y="-13.403374" x="105.56031" font-family="&apos;liberation sans&apos;" fill="#333333"><tspan y="-13.403374" x="105.56031" stroke-width=".75" fill="#333333">Share of neighborhood with HS diploma or less</tspan></text>
<g font-size="15px" transform="translate(-2.1826 434.17)" font-family="Arial" fill="#333333"><text transform="scale(1,-1)" y="-75.849998" x="17.73922"><tspan y="-75.849998" x="17.73922">0%</tspan></text>
<text transform="scale(1,-1)" y="-127.73" x="9.3896103"><tspan y="-127.73" x="9.3896103">25%</tspan></text>
<text transform="scale(1,-1)" y="-179.61" x="9.3896103"><tspan y="-179.61" x="9.3896103">50%</tspan></text>
<text transform="scale(1,-1)" y="-231.49001" x="9.3896103"><tspan y="-231.49001" x="9.3896103">75%</tspan></text>
<text transform="scale(1,-1)" y="-283.35999" x="1.04"><tspan y="-283.35999" x="1.04">100%</tspan></text>
</g><g><path d="m51.589 516.25h82.22v5.34h-82.221z" fill="#084594"/><path d="m51.589 521.6h82.22v22.16h-82.221z" fill="#6baed6"/><path d="m51.589 543.76h82.22v74.06h-82.221z" fill="#9ecae1"/><path d="m51.589 617.82h82.22v77.72h-82.221z" fill="#ef3b2c"/><path d="m51.589 695.55h82.22v28.22h-82.221z" fill="#a50f15"/><path d="m142.94 516.25h82.22v7.66h-82.22z" fill="#084594"/><path d="m142.94 523.91h82.22v44.55h-82.22z" fill="#6baed6"/><path d="m142.94 568.46h82.22v86.38h-82.22z" fill="#9ecae1"/><path d="m142.94 654.84h82.22v40.21h-82.22z" fill="#ef3b2c"/><path d="m142.94 695.05h82.22v28.71h-82.22z" fill="#a50f15"/><path d="m234.29 516.25h82.22v16.79h-82.22z" fill="#084594"/><path d="m234.29 533.04h82.22v72.91h-82.22z" fill="#6baed6"/><path d="m234.29 605.95h82.22v67.34h-82.22z" fill="#9ecae1"/><path d="m234.29 673.29h82.22v29.13h-82.22z" fill="#ef3b2c"/><path d="m234.29 702.43h82.22v21.34h-82.22z" fill="#a50f15"/><path d="m325.65 516.25h82.22v39.25h-82.22z" fill="#084594"/><path d="m325.65 555.5h82.22v98.96h-82.22z" fill="#6baed6"/><path d="m325.65 654.46h82.22v42.56h-82.22z" fill="#9ecae1"/><path d="m325.65 697.03h82.22v16.61h-82.22z" fill="#ef3b2c"/><path d="m325.65 713.64h82.22v10.13h-82.22z" fill="#a50f15"/><path d="m417 516.25h82.22v103.93h-82.22z" fill="#084594"/><path d="m417 620.19h82.22v83.4h-82.22z" fill="#6baed6"/><path d="m417 703.59h82.22v15.37h-82.22z" fill="#9ecae1"/><path d="m417 718.95h82.22v3.22h-82.22z" fill="#ef3b2c"/><path d="m417 722.17h82.22v1.59h-82.22z" fill="#a50f15"/></g><g stroke-linejoin="round" stroke="#fff" stroke-dasharray="0.75000002, 2.25000006" stroke-width=".75" fill="none"><path d="m45.949 568.13h454.97"/><path d="m45.949 620.01h454.97"/><path d="m45.949 671.89h454.97"/></g><g font-size="15px" font-family="Arial" fill="#333333"><text transform="scale(1,-1)" y="-495.98325" x="66.418716"><tspan y="-495.98325" x="66.418716">$3,271 - </tspan><tspan y="-477.23325" x="66.418716">$35,391</tspan></text>
<text transform="scale(1,-1)" y="-495.98325" x="155.02872"><tspan y="-495.98325" x="155.02872">$35,391 - </tspan><tspan y="-477.23325" x="155.02872">$46,016</tspan></text>
<text transform="scale(1,-1)" y="-495.98325" x="246.37871"><tspan y="-495.98325" x="246.37871">$46,016 - </tspan><tspan y="-477.23325" x="246.37871">$57,522</tspan></text>
<text transform="scale(1,-1)" y="-495.98325" x="337.72873"><tspan y="-495.98325" x="337.72873">$57,522 - </tspan><tspan y="-477.23325" x="337.72873">$76,438</tspan></text>
<text transform="scale(1,-1)" y="-495.98325" x="426.58875"><tspan y="-495.98325" x="426.58875">$76,438 - </tspan><tspan y="-477.23325" x="426.58875">$250,001</tspan></text>
<text transform="scale(1,-1)" y="-528.73328" x="73.813072"><tspan y="-528.73328" x="73.813072">10.7%</tspan></text>
<text transform="scale(1,-1)" y="-576.84326" x="74.098717"><tspan y="-576.84326" x="74.098717">35.7%</tspan></text>
<text transform="scale(1,-1)" y="-652.73328" x="74.098717"><tspan y="-652.73328" x="74.098717">37.5%</tspan></text>
</g><text transform="scale(1,-1)" font-size="15px" y="-705.71326" x="73.813072" font-family="Arial" fill="#ffffff"><tspan y="-705.71326" x="73.813072">13.6%</tspan></text><g font-size="15px" font-family="Arial" fill="#333333">
<text transform="scale(1,-1)" y="-542.23328" x="165.25363"><tspan y="-542.23328" x="165.25363">21.5%</tspan></text>
<text transform="scale(1,-1)" y="-607.70325" x="165.45871"><tspan y="-607.70325" x="165.45871">41.6%</tspan></text>
<text transform="scale(1,-1)" y="-670.99323" x="165.05954"><tspan y="-670.99323" x="165.05954">19.4%</tspan></text>
</g><text transform="scale(1,-1)" font-size="15px" y="-705.46326" x="165.05954" font-family="Arial" fill="#ffffff"><tspan y="-705.46326" x="165.05954">13.8%</tspan></text>
<text transform="scale(1,-1)" font-size="15px" y="-520.70325" x="260.94324" font-family="Arial" fill="#ffffff"><tspan y="-520.70325" x="260.94324">8.1%</tspan></text><g font-size="15px" font-family="Arial" fill="#333333">
<text transform="scale(1,-1)" y="-565.55328" x="256.80872"><tspan y="-565.55328" x="256.80872">35.1%</tspan></text>
<text transform="scale(1,-1)" y="-635.67328" x="256.80872"><tspan y="-635.67328" x="256.80872">32.5%</tspan></text>
<text transform="scale(1,-1)" y="-683.91327" x="262.77798"><tspan y="-683.91327" x="262.77798">14%</tspan></text>
</g><text transform="scale(1,-1)" font-size="15px" y="-709.15326" x="256.52307" font-family="Arial" fill="#ffffff"><tspan y="-709.15326" x="256.52307">10.3%</tspan></text>
<text transform="scale(1,-1)" font-size="15px" y="-531.93323" x="347.75958" font-family="Arial" fill="#ffffff"><tspan y="-531.93323" x="347.75958">18.9%</tspan></text><g font-size="15px" font-family="Arial" fill="#333333">
<text transform="scale(1,-1)" y="-601.03326" x="348.15875"><tspan y="-601.03326" x="348.15875">47.7%</tspan></text>
<text transform="scale(1,-1)" y="-671.80322" x="347.95367"><tspan y="-671.80322" x="347.95367">20.5%</tspan></text>
<text transform="scale(1,-1)" y="-701.38324" x="358.43463"><tspan y="-701.38324" x="358.43463">8%</tspan></text>
</g><g><g font-size="15px"><text transform="scale(1,-1)" y="-564.27325" x="439.39056" font-family="Arial" fill="#ffffff"><tspan y="-564.27325" x="439.39056">50.1%</tspan></text>
<text transform="scale(1,-1)" y="-657.94324" x="439.51874" font-family="Arial" fill="#333333"><tspan y="-657.94324" x="439.51874">40.2%</tspan></text>
<text style="font-variant-ligatures:normal;letter-spacing:0px;font-variant-numeric:normal;word-spacing:0px;font-variant-caps:normal;font-feature-settings:normal" xml:space="preserve" transform="scale(1,-1)" line-height="18.75px" y="-445.8443" x="174.59473" font-family="&apos;liberation sans&apos;" fill="#333333"><tspan y="-445.8443" x="174.59473" stroke-width=".75" fill="#333333">Median household income</tspan></text>
</g><g fill="#111" transform="translate(9.383 456.63)"><text style="text-anchor:middle;text-align:center" transform="matrix(1,0,0,-1,41.48,309.19)" font-style="italic" font-size="15px" y="0" x="211.63696" font-family="Arial" fill="#333333"><tspan y="0" x="213.71704"> </tspan><tspan y="18.75" x="211.63696">... for neighborhoods with low to high median household income</tspan></text>
</g><g fill="#111" transform="translate(-41.905 480.94)"><text font-weight="bold" transform="matrix(1,0,0,-1,41.48,309.19)" font-size="15px" font-family="Arial" fill="#333333"><tspan y="0" x="0">Share of population by neighborhood broadband subscription rate ...</tspan></text>
</g></g><g transform="translate(1.4706 388.41)"><g transform="translate(0 2.6083)"><g transform="translate(129 -4.4913)"><g transform="translate(-116.65 -7.3687)"><path d="m154.63 11.86h15.86v15.86h-15.86z" fill="#a50f15"/></g><text transform="scale(1,-1)" font-size="15px" y="-7.6913042" x="56.709023" font-family="Arial" fill="#333333"><tspan y="-7.6913042" x="56.709023">0-20</tspan></text>
</g><g transform="translate(-329.95 -239.44)"><g transform="translate(356.87 227.58)"><path d="m204.5 11.86h15.86v15.86h-15.86z" fill="#ef3b2c"/></g><g fill="#333" transform="translate(356.7 226.08)"><text font-size="15px" transform="matrix(1,0,0,-1,223.23,16.56)" font-family="Arial" fill="#333333"><tspan y="0" x="0">20-40</tspan></text>
</g></g><g transform="translate(-257.33 -214.98)"><g transform="translate(301.99 203.12)"><path d="m259.38 11.86h15.86v15.86h-15.86z" fill="#9ecae1"/></g><g fill="#333" transform="translate(302.23 201.62)"><text font-size="15px" transform="matrix(1,0,0,-1,278.11,16.56)" font-family="Arial" fill="#333333"><tspan y="0" x="0">40-60</tspan></text>
</g></g><g transform="translate(-184.31 -184.88)"><g transform="translate(247.12 173.02)"><path d="m314.25 11.86h15.86v15.86h-15.86z" fill="#6baed6"/></g><g fill="#333" transform="translate(246.94 171.52)"><text font-size="15px" transform="matrix(1,0,0,-1,332.98,16.56)" font-family="Arial" fill="#333333"><tspan y="0" x="0">60-80</tspan></text>
</g></g><g transform="translate(44.625 -4.4913)"><g transform="translate(-156.32 -154.04)"><g transform="translate(192.25 146.68)"><path d="m369.12 11.86h15.86v15.86h-15.86z" fill="#084594"/></g><g fill="#333" transform="translate(192.18 145.18)"><text transform="matrix(1,0,0,-1,387.85,16.56)" font-size="15px" font-family="Arial" fill="#333333"><tspan y="0" x="0">80-100</tspan></text>
</g></g></g></g><text transform="scale(1,-1)" font-size="15px" y="-6.6601753" x="9.3567123" font-family="Arial" fill="#333333"><tspan y="-6.6601753" x="9.3567123">Subscription rate (%): </tspan></text>
</g><path d="m0 418.88h525" stroke="#aaa" stroke-width=".76293px" fill="none"/><path d="m0 381.38h525" stroke="#aaa" stroke-width=".76293px" fill="none"/></g></svg>
