<?xml version="1.0" encoding="UTF-8" standalone="no"?>
<!-- Created with Inkscape (http://www.inkscape.org/) -->
<svg xmlns:rdf="http://www.w3.org/1999/02/22-rdf-syntax-ns#" xmlns="http://www.w3.org/2000/svg" xml:space="preserve" height="700" viewBox="0 0 700 700" width="700" version="1.1" xmlns:cc="http://creativecommons.org/ns#" xmlns:dc="http://purl.org/dc/elements/1.1/"><metadata><rdf:RDF><cc:Work rdf:about=""><dc:format>image/svg+xml</dc:format><dc:type rdf:resource="http://purl.org/dc/dcmitype/StillImage"/><dc:title/></cc:Work></rdf:RDF></metadata><g transform="matrix(1.3333 0 0 -1.3333 0 700)"><g fill="#c2defa"><path d="m125.3 56.7h4.93v8.8h-4.93z"/><path d="m125.3 70.766h8.04v8.8h-8.04z"/><path d="m125.3 84.832h9.07v8.8h-9.07z"/><path d="m125.3 98.898h9.07v8.8h-9.07z"/><path d="m125.3 112.96h15.3v8.8h-15.3z"/><path d="m125.3 127.03h19.7v8.8h-19.7z"/><path d="m125.3 141.1h21v8.8h-21z"/><path d="m125.3 155.16h29.03v8.8h-29.03z"/><path d="m125.3 169.23h30.33v8.8h-30.33z"/><path d="m125.3 183.29h30.59v8.8h-30.59z"/><path d="m125.3 197.36h31.11v8.8h-31.11z"/><path d="m125.3 211.43h34.74v8.8h-34.74z"/><path d="m125.3 225.49h35.26v8.8h-35.26z"/><path d="m125.3 239.56h37.07v8.8h-37.07z"/><path d="m125.3 253.63h42.26v8.8h-42.26z"/><path d="m125.3 267.69h42.52v8.8h-42.52z"/><path d="m125.3 281.76h43.81v8.8h-43.81z"/><path d="m125.3 295.82h48.74v8.8h-48.74z"/><path d="m125.3 309.89h50.81v8.8h-50.81z"/><path d="m125.3 323.96h53.14v8.8h-53.14z"/><path d="m125.3 338.02h69.99v8.8h-69.99z"/><path d="m125.3 352.09h70.77v8.8h-70.77z"/><path d="m125.3 366.15h71.29v8.8h-71.29z"/><path d="m125.3 380.22h71.81v8.8h-71.81z"/><path d="m125.3 394.29h73.36v8.8h-73.36z"/><path d="m125.3 408.35h75.18v8.8h-75.18z"/><path d="m125.3 422.42h100.84v8.8h-100.84z"/><path d="m125.3 436.48h106.03v8.8h-106.03z"/></g><path d="m125.3 450.55h108.36v8.8h-108.36z" fill="#dc2828"/><g fill="#c2defa"><path d="m125.3 464.62h150.62v8.8h-150.62z"/><path d="m125.3 478.68h155.28v8.8h-155.28z"/><path d="m125.3 492.75h170.84v8.8h-170.84z"/><path d="m125.3 506.82h325.35v8.8h-325.35z"/></g><g font-size="15px" font-family="Arial" fill="#101010"><text transform="scale(1,-1)" y="-436.19363" x="238.03"><tspan y="-436.19363" x="238.03">$4.09</tspan></text>
<text transform="scale(1,-1)" y="-323.88736" x="185.14"><tspan y="-323.88736" x="185.14">$2.05</tspan></text>
<text transform="scale(1,-1)" y="-211.5811" x="166.74001"><tspan y="-211.5811" x="166.74001">$1.34</tspan></text>
<text transform="scale(1,-1)" y="-506.38501" x="454.29001"><tspan y="-506.38501" x="454.29001">$12.55</tspan></text>
<text transform="scale(1,-1)" y="-85.236565" x="141.07001"><tspan y="-85.236565" x="141.07001">$0.35</tspan></text>
<text transform="scale(1,-1)" y="-380.04047" x="203.81"><tspan y="-380.04047" x="203.81">$2.77</tspan></text>
<text transform="scale(1,-1)" y="-408.11707" x="210.24001"><tspan y="-408.11707" x="210.24001">$2.90</tspan></text>
<text transform="scale(1,-1)" y="-351.9639" x="202.77"><tspan y="-351.9639" x="202.77">$2.73</tspan></text>
<text transform="scale(1,-1)" y="-267.73422" x="174.50999"><tspan y="-267.73422" x="174.50999">$1.64</tspan></text>
<text transform="scale(1,-1)" y="-422.15533" x="232.84"><tspan y="-422.15533" x="232.84">$3.89</tspan></text>
<text transform="scale(1,-1)" y="-141.38969" x="153"><tspan y="-141.38969" x="153">$0.81</tspan></text>
<text transform="scale(1,-1)" y="-225.61938" x="167.25999"><tspan y="-225.61938" x="167.25999">$1.36</tspan></text>
<text transform="scale(1,-1)" y="-309.84906" x="182.81"><tspan y="-309.84906" x="182.81">$1.96</tspan></text>
<text transform="scale(1,-1)" y="-57.16" x="136.92"><tspan y="-57.16" x="136.92">$0.19</tspan></text>
<text transform="scale(1,-1)" y="-239.65767" x="169.07001"><tspan y="-239.65767" x="169.07001">$1.43</tspan></text>
<text transform="scale(1,-1)" y="-478.30844" x="287.28"><tspan y="-478.30844" x="287.28">$5.99</tspan></text>
<text transform="scale(1,-1)" y="-183.50455" x="162.59"><tspan y="-183.50455" x="162.59">$1.18</tspan></text>
<text transform="scale(1,-1)" y="-394.07877" x="205.36"><tspan y="-394.07877" x="205.36">$2.83</tspan></text>
<text transform="scale(1,-1)" y="-295.81079" x="180.74001"><tspan y="-295.81079" x="180.74001">$1.88</tspan></text>
<text transform="scale(1,-1)" y="-71.198288" x="140.04001"><tspan y="-71.198288" x="140.04001">$0.31</tspan></text>
<text transform="scale(1,-1)" y="-281.77249" x="175.81"><tspan y="-281.77249" x="175.81">$1.69</tspan></text>
<text transform="scale(1,-1)" y="-155.42798" x="161.03"><tspan y="-155.42798" x="161.03">$1.12</tspan></text>
<text transform="scale(1,-1)" y="-113.31313" x="147.29001"><tspan y="-113.31313" x="147.29001">$0.59</tspan></text>
<text transform="scale(1,-1)" y="-169.46625" x="162.33"><tspan y="-169.46625" x="162.33">$1.17</tspan></text>
<text transform="scale(1,-1)" y="-99.274849" x="141.07001"><tspan y="-99.274849" x="141.07001">$0.35</tspan></text>
<text transform="scale(1,-1)" y="-253.69594" x="174.25"><tspan y="-253.69594" x="174.25">$1.63</tspan></text>
<text transform="scale(1,-1)" y="-492.34674" x="302.84"><tspan y="-492.34674" x="302.84">$6.59</tspan></text>
<text transform="scale(1,-1)" y="-197.54283" x="166.17"><tspan y="-197.54283" x="166.17">$1.20</tspan></text>
<text transform="scale(1,-1)" y="-366.0022" x="203.28999"><tspan y="-366.0022" x="203.28999">$2.75</tspan></text>
<text transform="scale(1,-1)" y="-464.27014" x="282.62"><tspan y="-464.27014" x="282.62">$5.81</tspan></text>
<text transform="scale(1,-1)" y="-337.92563" x="205.05"><tspan y="-337.92563" x="205.05">$2.70</tspan></text>
<text transform="scale(1,-1)" y="-127.35143" x="151.7"><tspan y="-127.35143" x="151.7">$0.76</tspan></text>
</g><text transform="scale(1,-1)" font-size="15px" y="-450.23187" x="240.36" font-family="Arial" fill="#dc2828"><tspan y="-450.23187" x="240.36">$4.18</tspan></text><g font-size="15px" font-family="Arial" fill="#111111">
<text style="text-anchor:end;text-align:end" transform="scale(1,-1)" y="-57.564999" x="119.30852"><tspan y="-57.564999" x="119.30852">Hong Kong</tspan></text>
<text style="text-anchor:end;text-align:end" transform="scale(1,-1)" y="-71.631088" x="118.61852"><tspan y="-71.631088" x="118.61852">Korea</tspan></text>
<text style="text-anchor:end;text-align:end" transform="scale(1,-1)" y="-85.697182" x="118.61852"><tspan y="-85.697182" x="118.61852">Bulgaria</tspan></text>
<text style="text-anchor:end;text-align:end" transform="scale(1,-1)" y="-99.58329" x="118.94852"><tspan y="-99.58329" x="118.94852">Singapore</tspan></text>
<text style="text-anchor:end;text-align:end" transform="scale(1,-1)" y="-113.82938" x="119.21852"><tspan y="-113.82938" x="119.21852">Poland</tspan></text>
<text style="text-anchor:end;text-align:end" transform="scale(1,-1)" y="-127.89548" x="119.37367"><tspan y="-127.89548" x="119.37367">United Kingdom</tspan></text>
<text style="text-anchor:end;text-align:end" transform="scale(1,-1)" y="-141.96156" x="118.94852"><tspan y="-141.96156" x="118.94852">France</tspan></text>
<text style="text-anchor:end;text-align:end" transform="scale(1,-1)" y="-156.02766" x="118.90891"><tspan y="-156.02766" x="118.90891">Netherlands</tspan></text>
<text style="text-anchor:end;text-align:end" transform="scale(1,-1)" y="-170.09377" x="119.35375"><tspan y="-170.09377" x="119.35375">Portugal</tspan></text>
<text style="text-anchor:end;text-align:end" transform="scale(1,-1)" y="-184.15984" x="119.35375"><tspan y="-184.15984" x="119.35375">Israel</tspan></text>
<text style="text-anchor:end;text-align:end" transform="scale(1,-1)" y="-198.04594" x="119.33852"><tspan y="-198.04594" x="119.33852">Spain</tspan></text>
<text style="text-anchor:end;text-align:end" transform="scale(1,-1)" y="-212.29204" x="119.37367"><tspan y="-212.29204" x="119.37367">Belgium</tspan></text>
<text style="text-anchor:end;text-align:end" transform="scale(1,-1)" y="-226.17815" x="118.62391"><tspan y="-226.17815" x="118.62391">Germany</tspan></text>
<text style="text-anchor:end;text-align:end" transform="scale(1,-1)" y="-240.42424" x="118.62391"><tspan y="-240.42424" x="118.62391">Hungary</tspan></text>
<text style="text-anchor:end;text-align:end" transform="scale(1,-1)" y="-254.31035" x="118.63891"><tspan y="-254.31035" x="118.63891">Slovak Republic</tspan></text>
<text style="text-anchor:end;text-align:end" transform="scale(1,-1)" y="-268.55643" x="118.26391"><tspan y="-268.55643" x="118.26391">Denmark</tspan></text>
<text style="text-anchor:end;text-align:end" transform="scale(1,-1)" y="-282.62253" x="118.99352"><tspan y="-282.62253" x="118.99352">Mexico</tspan></text>
<text style="text-anchor:end;text-align:end" transform="scale(1,-1)" y="-296.6886" x="119.33852"><tspan y="-296.6886" x="119.33852">Japan</tspan></text>
<text style="text-anchor:end;text-align:end" transform="scale(1,-1)" y="-310.57474" x="118.94852"><tspan y="-310.57474" x="118.94852">Greece</tspan></text>
<text style="text-anchor:end;text-align:end" transform="scale(1,-1)" y="-324.82077" x="118.61852"><tspan y="-324.82077" x="118.61852">Austria</tspan></text>
<text style="text-anchor:end;text-align:end" transform="scale(1,-1)" y="-338.8869" x="118.62391"><tspan y="-338.8869" x="118.62391">Turkey</tspan></text>
<text style="text-anchor:end;text-align:end" transform="scale(1,-1)" y="-352.77298" x="118.63891"><tspan y="-352.77298" x="118.63891">Czech Republic</tspan></text>
<text style="text-anchor:end;text-align:end" transform="scale(1,-1)" y="-366.83908" x="119.33852"><tspan y="-366.83908" x="119.33852">Sweden</tspan></text>
<text style="text-anchor:end;text-align:end" transform="scale(1,-1)" y="-380.90515" x="118.61852"><tspan y="-380.90515" x="118.61852">Canada</tspan></text>
<text style="text-anchor:end;text-align:end" transform="scale(1,-1)" y="-395.15131" x="118.62391"><tspan y="-395.15131" x="118.62391">Italy</tspan></text>
<text style="text-anchor:end;text-align:end" transform="scale(1,-1)" y="-409.03738" x="118.94852"><tspan y="-409.03738" x="118.94852">Chile</tspan></text>
<text style="text-anchor:end;text-align:end" transform="scale(1,-1)" y="-423.28348" x="119.21852"><tspan y="-423.28348" x="119.21852">Finland</tspan></text>
<text style="text-anchor:end;text-align:end" transform="scale(1,-1)" y="-437.34958" x="118.61852"><tspan y="-437.34958" x="118.61852">Australia</tspan></text>
</g><text style="text-anchor:end;text-align:end" font-size="15px" transform="scale(1,-1)" y="-451.23563" x="118.90891" font-family="Arial" fill="#dc2828"><tspan y="-451.23563" x="118.90891">United States</tspan></text><g font-size="15px" font-family="Arial" fill="#111111">
<text style="text-anchor:end;text-align:end" transform="scale(1,-1)" y="-465.30173" x="119.21852"><tspan y="-465.30173" x="119.21852">Switzerland</tspan></text>
<text style="text-anchor:end;text-align:end" transform="scale(1,-1)" y="-479.54782" x="118.61852"><tspan y="-479.54782" x="118.61852">India</tspan></text>
<text style="text-anchor:end;text-align:end" transform="scale(1,-1)" y="-493.4339" x="118.61852"><tspan y="-493.4339" x="118.61852">Slovenia</tspan></text>
<text style="text-anchor:end;text-align:end" transform="scale(1,-1)" y="-507.68002" x="119.35375"><tspan y="-507.68002" x="119.35375">Brazil</tspan></text>
</g><path d="m12 42.299h491.92" stroke="#aaa" stroke-width=".75px" fill="none"/><text stroke-width=".75" style="font-variant-ligatures:normal;letter-spacing:0px;font-variant-numeric:normal;word-spacing:0px;font-variant-caps:normal;font-feature-settings:normal" xml:space="preserve" transform="scale(1,-1)" line-height="18.75px" font-size="15px" y="-23.22459" x="14.802967" font-family="Arial" fill="#555555"><tspan y="-23.22459" x="14.802967">Source: Federal Communications Commission, Fifth International </tspan><tspan y="-4.4745903" x="14.802967">Broadband Data Report, 2016.</tspan></text>
</g></svg>
